<svg xmlns="http://www.w3.org/2000/svg" width="805" height="805"><rect width="805" height="805" x="0" y="0" fill="#FFFFFF" id="backgorund"/><g transform="translate(20,20)" id="viz"><g id="nodes"><g transform="translate(383.5,383.5)"><path id="p_1150.5" d="M-7.026411010107939e-14,382.5A382.5,382.5,0,1,1,7.026411010107939e-14,-382.5A382.5,382.5,0,1,1,-7.026411010107939e-14,382.5Z" fill="none" stroke="#ccc"/><text fill="black" text-anchor="middle" font-family="'Arial', sans-serif" font-size="8" dominant-baseline="middle"><textPath href="#p_1150.5" startOffset="50%"/></text></g><g transform="translate(271.03202922068715,416.6067092499124)" id="Asia"><path id="p_872.4209623280678" d="M-3.3760246828084634e-14,183.78222385746832A183.78222385746832,183.78222385746832,0,1,1,3.3760246828084634e-14,-183.78222385746832A183.78222385746832,183.78222385746832,0,1,1,-3.3760246828084634e-14,183.78222385746832Z" fill="none" stroke="#ccc"/><text fill="black" text-anchor="middle" font-family="'Arial', sans-serif" font-size="8" dominant-baseline="middle"><textPath href="#p_872.4209623280678" startOffset="50%">Asia</textPath></text></g><g transform="translate(583.4212478440111,416.6067092499124)" id="Africa"><path id="p_1125.1110238095032" d="M-2.279368957224332e-14,124.08306671557969A124.08306671557969,124.08306671557969,0,1,1,2.279368957224332e-14,-124.08306671557969A124.08306671557969,124.08306671557969,0,1,1,-2.279368957224332e-14,124.08306671557969Z" fill="none" stroke="#ccc"/><text fill="black" text-anchor="middle" font-family="'Arial', sans-serif" font-size="8" dominant-baseline="middle"><textPath href="#p_1125.1110238095032" startOffset="50%">Africa</textPath></text></g><g transform="translate(478.785429159146,632.5329829662815)" id="Europe"><path id="p_1223.654765325062" d="M-2.045215628620074e-14,111.33635319963454A111.33635319963454,111.33635319963454,0,1,1,2.045215628620074e-14,-111.33635319963454A111.33635319963454,111.33635319963454,0,1,1,-2.045215628620074e-14,111.33635319963454Z" fill="none" stroke="#ccc"/><text fill="black" text-anchor="middle" font-family="'Arial', sans-serif" font-size="8" dominant-baseline="middle"><textPath href="#p_1223.654765325062" startOffset="50%">Europe</textPath></text></g><g transform="translate(477.18833066367927,210.8235164283938)" id="South America"><path id="p_791.9910244964522" d="M-1.891696799806504e-14,102.97917740437907A102.97917740437907,102.97917740437907,0,1,1,1.891696799806504e-14,-102.97917740437907A102.97917740437907,102.97917740437907,0,1,1,-1.891696799806504e-14,102.97917740437907Z" fill="none" stroke="#ccc"/><text fill="black" text-anchor="middle" font-family="'Arial', sans-serif" font-size="8" dominant-baseline="middle"><textPath href="#p_791.9910244964522" startOffset="50%">South America</textPath></text></g><g transform="translate(285.04283071590834,126.17752396558302)" id="North America"><path id="p_514.6811441949785" d="M-1.8821741687370417e-14,102.4607895134872A102.4607895134872,102.4607895134872,0,1,1,1.8821741687370417e-14,-102.4607895134872A102.4607895134872,102.4607895134872,0,1,1,-1.8821741687370417e-14,102.4607895134872Z" fill="none" stroke="#ccc"/><text fill="black" text-anchor="middle" font-family="'Arial', sans-serif" font-size="8" dominant-baseline="middle"><textPath href="#p_514.6811441949785" startOffset="50%">North America</textPath></text></g><g transform="translate(199.1165055181141,416.6067092499124)" id="China"><path id="p_724.0659868726459" d="M-1.9718547340428894e-14,107.34277210461941A107.34277210461941,107.34277210461941,0,1,1,1.9718547340428894e-14,-107.34277210461941A107.34277210461941,107.34277210461941,0,1,1,-1.9718547340428894e-14,107.34277210461941Z" fill="none" stroke="#ccc"/><text fill="black" text-anchor="middle" font-family="'Arial', sans-serif" font-size="8" dominant-baseline="middle"><textPath href="#p_724.0659868726459" startOffset="50%">China</textPath></text></g><g transform="translate(380.6367653504445,416.6067092499124)" id="India"><path id="p_867.8970342777919" d="M-1.2795151336228505e-14,69.6535596774351A69.6535596774351,69.6535596774351,0,1,1,1.2795151336228505e-14,-69.6535596774351A69.6535596774351,69.6535596774351,0,1,1,-1.2795151336228505e-14,69.6535596774351Z" fill="none" stroke="#ccc"/><text fill="black" text-anchor="middle" font-family="'Arial', sans-serif" font-size="8" dominant-baseline="middle"><textPath href="#p_867.8970342777919" startOffset="50%">India</textPath></text></g><g transform="translate(318.4293101099772,517.667349767543)" id="Pakistan"><path id="p_881.5910750979313" d="M-8.173491476941445e-15,44.49441522041103A44.49441522041103,44.49441522041103,0,1,1,8.173491476941445e-15,-44.49441522041103A44.49441522041103,44.49441522041103,0,1,1,-8.173491476941445e-15,44.49441522041103Z" fill="none" stroke="#ccc"/><text fill="black" text-anchor="middle" font-family="'Arial', sans-serif" font-size="8" dominant-baseline="middle"><textPath href="#p_881.5910750979313" startOffset="50%">Pakistan</textPath></text></g><g transform="translate(316.4235997601064,328.5143227363437)" id="Japan"><path id="p_680.772357037765" d="M-6.398981814169415e-15,34.83443454131502A34.83443454131502,34.83443454131502,0,1,1,6.398981814169415e-15,-34.83443454131502A34.83443454131502,34.83443454131502,0,1,1,-6.398981814169415e-15,34.83443454131502Z" fill="none" stroke="#ccc"/><text fill="black" text-anchor="middle" font-family="'Arial', sans-serif" font-size="8" dominant-baseline="middle"><textPath href="#p_680.772357037765" startOffset="50%">Japan</textPath></text></g><g transform="translate(259.6173871198781,287.5187213703783)" id="Indonesia"><path id="p_578.831904418228" d="M-5.6387262345705985e-15,30.695795927971503A30.695795927971503,30.695795927971503,0,1,1,5.6387262345705985e-15,-30.695795927971503A30.695795927971503,30.695795927971503,0,1,1,-5.6387262345705985e-15,30.695795927971503Z" fill="none" stroke="#ccc"/><text fill="black" text-anchor="middle" font-family="'Arial', sans-serif" font-size="8" dominant-baseline="middle"><textPath href="#p_578.831904418228" startOffset="50%">Indonesia</textPath></text></g><g transform="translate(526.4546675502146,418.3660926047598)" id="Nigeria"><path id="p_984.9139607427829" d="M-7.181304445242794e-15,39.09320058780866A39.09320058780866,39.09320058780866,0,1,1,7.181304445242794e-15,-39.09320058780866A39.09320058780866,39.09320058780866,0,1,1,-7.181304445242794e-15,39.09320058780866Z" fill="none" stroke="#ccc"/><text fill="black" text-anchor="middle" font-family="'Arial', sans-serif" font-size="8" dominant-baseline="middle"><textPath href="#p_984.9139607427829" startOffset="50%">Nigeria</textPath></text></g><g transform="translate(621.4753180469063,418.3660926047598)" id="Egypt"><path id="p_1092.2449325102732" d="M-9.442673776356633e-15,51.403521858607135A51.403521858607135,51.403521858607135,0,1,1,9.442673776356633e-15,-51.403521858607135A51.403521858607135,51.403521858607135,0,1,1,-9.442673776356633e-15,51.403521858607135Z" fill="none" stroke="#ccc"/><text fill="black" text-anchor="middle" font-family="'Arial', sans-serif" font-size="8" dominant-baseline="middle"><textPath href="#p_1092.2449325102732" startOffset="50%">Egypt</textPath></text></g><g transform="translate(563.7701597270702,480.56816992298036)" id="Democratic Republic of the Congo"><path id="p_1074.2577047814673" d="M-5.312403028204653e-15,28.919375131416697A28.919375131416697,28.919375131416697,0,1,1,5.312403028204653e-15,-28.919375131416697A28.919375131416697,28.919375131416697,0,1,1,-5.312403028204653e-15,28.919375131416697Z" fill="none" stroke="#ccc"/><text fill="black" text-anchor="middle" font-family="'Arial', sans-serif" font-size="8" dominant-baseline="middle"><textPath href="#p_1074.2577047814673" startOffset="50%">Democratic Republic of the Congo</textPath></text></g><g transform="translate(564.239733484922,360.73668969694114)" id="Somalia"><path id="p_951.2712622068912" d="M-4.646586547042235e-15,25.29483902502811A25.29483902502811,25.29483902502811,0,1,1,4.646586547042235e-15,-25.29483902502811A25.29483902502811,25.29483902502811,0,1,1,-4.646586547042235e-15,25.29483902502811Z" fill="none" stroke="#ccc"/><text fill="black" text-anchor="middle" font-family="'Arial', sans-serif" font-size="8" dominant-baseline="middle"><textPath href="#p_951.2712622068912" startOffset="50%">Somalia</textPath></text></g><g transform="translate(617.9062123507347,497.4884588594173)" id="Sudan"><path id="p_1139.670045475705" d="M-4.275616888989895e-15,23.275374265552845A23.275374265552845,23.275374265552845,0,1,1,4.275616888989895e-15,-23.275374265552845A23.275374265552845,23.275374265552845,0,1,1,-4.275616888989895e-15,23.275374265552845Z" fill="none" stroke="#ccc"/><text fill="black" text-anchor="middle" font-family="'Arial', sans-serif" font-size="8" dominant-baseline="middle"><textPath href="#p_1139.670045475705" startOffset="50%">Sudan</textPath></text></g><g transform="translate(612.4909550261827,340.41904338050017)" id="Angola"><path id="p_976.4456688898497" d="M-4.139735508577441e-15,22.53567048316672A22.53567048316672,22.53567048316672,0,1,1,4.139735508577441e-15,-22.53567048316672A22.53567048316672,22.53567048316672,0,1,1,-4.139735508577441e-15,22.53567048316672Z" fill="none" stroke="#ccc"/><text fill="black" text-anchor="middle" font-family="'Arial', sans-serif" font-size="8" dominant-baseline="middle"><textPath href="#p_976.4456688898497" startOffset="50%">Angola</textPath></text></g><g transform="translate(513.0640004821645,354.3856883446949)" id="Tanzania"><path id="p_890.1992343722508" d="M-3.995326700260955e-15,21.749545545391303A21.749545545391303,21.749545545391303,0,1,1,3.995326700260955e-15,-21.749545545391303A21.749545545391303,21.749545545391303,0,1,1,-3.995326700260955e-15,21.749545545391303Z" fill="none" stroke="#ccc"/><text fill="black" text-anchor="middle" font-family="'Arial', sans-serif" font-size="8" dominant-baseline="middle"><textPath href="#p_890.1992343722508" startOffset="50%">Tanzania</textPath></text></g><g transform="translate(509.05755734703064,480.8777131888464)" id="Ivory Coast"><path id="p_1012.2054453667342" d="M-3.9072677285870654e-15,21.270174830857123A21.270174830857123,21.270174830857123,0,1,1,3.9072677285870654e-15,-21.270174830857123A21.270174830857123,21.270174830857123,0,1,1,-3.9072677285870654e-15,21.270174830857123Z" fill="none" stroke="#ccc"/><text fill="black" text-anchor="middle" font-family="'Arial', sans-serif" font-size="8" dominant-baseline="middle"><textPath href="#p_1012.2054453667342" startOffset="50%">Ivory Coast</textPath></text></g><g transform="translate(658.5041144093885,351.71413626813205)" id="South Africa"><path id="p_1031.5378665715516" d="M-3.732652884679321e-15,20.31961589403105A20.31961589403105,20.31961589403105,0,1,1,3.732652884679321e-15,-20.31961589403105A20.31961589403105,20.31961589403105,0,1,1,-3.732652884679321e-15,20.31961589403105Z" fill="none" stroke="#ccc"/><text fill="black" text-anchor="middle" font-family="'Arial', sans-serif" font-size="8" dominant-baseline="middle"><textPath href="#p_1031.5378665715516" startOffset="50%">South Africa</textPath></text></g><g transform="translate(433.39416598222437,638.3053113286967)" id="Russia"><path id="p_1127.2866058942475" d="M-1.0027492844132343e-14,54.58712858332637A54.58712858332637,54.58712858332637,0,1,1,1.0027492844132343e-14,-54.58712858332637A54.58712858332637,54.58712858332637,0,1,1,-1.0027492844132343e-14,54.58712858332637Z" fill="none" stroke="#ccc"/><text fill="black" text-anchor="middle" font-family="'Arial', sans-serif" font-size="8" dominant-baseline="middle"><textPath href="#p_1127.2866058942475" startOffset="50%">Russia</textPath></text></g><g transform="translate(527.9084151376276,638.3053113286967)" id="Turkey"><path id="p_1202.6169189881252" d="M-6.5034609602131605e-15,35.403192521800975A35.403192521800975,35.403192521800975,0,1,1,6.5034609602131605e-15,-35.403192521800975A35.403192521800975,35.403192521800975,0,1,1,-6.5034609602131605e-15,35.403192521800975Z" fill="none" stroke="#ccc"/><text fill="black" text-anchor="middle" font-family="'Arial', sans-serif" font-size="8" dominant-baseline="middle"><textPath href="#p_1202.6169189881252" startOffset="50%">Turkey</textPath></text></g><g transform="translate(496.54950079924896,699.4692852197)" id="United Kingdom"><path id="p_1225.8260324740086" d="M-5.291805324515661e-15,28.807246455059655A28.807246455059655,28.807246455059655,0,1,1,5.291805324515661e-15,-28.807246455059655A28.807246455059655,28.807246455059655,0,1,1,-5.291805324515661e-15,28.807246455059655Z" fill="none" stroke="#ccc"/><text fill="black" text-anchor="middle" font-family="'Arial', sans-serif" font-size="8" dominant-baseline="middle"><textPath href="#p_1225.8260324740086" startOffset="50%">United Kingdom</textPath></text></g><g transform="translate(494.7792793030729,588.265185225838)" id="Germany"><path id="p_1104.1302914059834" d="M-3.689706538985242e-15,20.08582687707269A20.08582687707269,20.08582687707269,0,1,1,3.689706538985242e-15,-20.08582687707269A20.08582687707269,20.08582687707269,0,1,1,-3.689706538985242e-15,20.08582687707269Z" fill="none" stroke="#ccc"/><text fill="black" text-anchor="middle" font-family="'Arial', sans-serif" font-size="8" dominant-baseline="middle"><textPath href="#p_1104.1302914059834" startOffset="50%">Germany</textPath></text></g><g transform="translate(458.2727414259062,564.0583402012044)" id="Spain"><path id="p_1042.5242792694648" d="M-3.5257332087167485e-15,19.19319764235425A19.19319764235425,19.19319764235425,0,1,1,3.5257332087167485e-15,-19.19319764235425A19.19319764235425,19.19319764235425,0,1,1,-3.5257332087167485e-15,19.19319764235425Z" fill="none" stroke="#ccc"/><text fill="black" text-anchor="middle" font-family="'Arial', sans-serif" font-size="8" dominant-baseline="middle"><textPath href="#p_1042.5242792694648" startOffset="50%">Spain</textPath></text></g><g transform="translate(446.9492708722684,714.8129405450212)" id="Ukraine"><path id="p_1181.35030662515" d="M-3.414577694782884e-15,18.588095207860455A18.588095207860455,18.588095207860455,0,1,1,3.414577694782884e-15,-18.588095207860455A18.588095207860455,18.588095207860455,0,1,1,-3.414577694782884e-15,18.588095207860455Z" fill="none" stroke="#ccc"/><text fill="black" text-anchor="middle" font-family="'Arial', sans-serif" font-size="8" dominant-baseline="middle"><textPath href="#p_1181.35030662515" startOffset="50%">Ukraine</textPath></text></g><g transform="translate(537.2080451686008,580.6208601587043)" id="Italy"><path id="p_1137.3310499011825" d="M-3.398788819464057e-15,18.50214457387728A18.50214457387728,18.50214457387728,0,1,1,3.398788819464057e-15,-18.50214457387728A18.50214457387728,18.50214457387728,0,1,1,-3.398788819464057e-15,18.50214457387728Z" fill="none" stroke="#ccc"/><text fill="black" text-anchor="middle" font-family="'Arial', sans-serif" font-size="8" dominant-baseline="middle"><textPath href="#p_1137.3310499011825" startOffset="50%">Italy</textPath></text></g><g transform="translate(546.2009985447164,692.0740012406009)" id="France"><path id="p_1256.1430429382249" d="M-3.0986092582631766e-15,16.868043152907703A16.868043152907703,16.868043152907703,0,1,1,3.0986092582631766e-15,-16.868043152907703A16.868043152907703,16.868043152907703,0,1,1,-3.0986092582631766e-15,16.868043152907703Z" fill="none" stroke="#ccc"/><text fill="black" text-anchor="middle" font-family="'Arial', sans-serif" font-size="8" dominant-baseline="middle"><textPath href="#p_1256.1430429382249" startOffset="50%">France</textPath></text></g><g transform="translate(418.5238663431075,564.6441665271108)" id="Belarus"><path id="p_1000.2040990347466" d="M-2.9457775648957354e-15,16.03606616452842A16.03606616452842,16.03606616452842,0,1,1,2.9457775648957354e-15,-16.03606616452842A16.03606616452842,16.03606616452842,0,1,1,-2.9457775648957354e-15,16.03606616452842Z" fill="none" stroke="#ccc"/><text fill="black" text-anchor="middle" font-family="'Arial', sans-serif" font-size="8" dominant-baseline="middle"><textPath href="#p_1000.2040990347466" startOffset="50%">Belarus</textPath></text></g><g transform="translate(446.04472741446983,210.5225032743976)" id="Brazil"><path id="p_718.2663513609297" d="M-1.1150247576314987e-14,60.69912067206221A60.69912067206221,60.69912067206221,0,1,1,1.1150247576314987e-14,-60.69912067206221A60.69912067206221,60.69912067206221,0,1,1,-1.1150247576314987e-14,60.69912067206221Z" fill="none" stroke="#ccc"/><text fill="black" text-anchor="middle" font-family="'Arial', sans-serif" font-size="8" dominant-baseline="middle"><textPath href="#p_718.2663513609297" startOffset="50%">Brazil</textPath></text></g><g transform="translate(540.3820214353016,210.5225032743976)" id="Peru"><path id="p_781.0187700081929" d="M-5.348200097158671e-15,29.114245298493664A29.114245298493664,29.114245298493664,0,1,1,5.348200097158671e-15,-29.114245298493664A29.114245298493664,29.114245298493664,0,1,1,-5.348200097158671e-15,29.114245298493664Z" fill="none" stroke="#ccc"/><text fill="black" text-anchor="middle" font-family="'Arial', sans-serif" font-size="8" dominant-baseline="middle"><textPath href="#p_781.0187700081929" startOffset="50%">Peru</textPath></text></g><g transform="translate(519.0183970811216,267.95975892297537)" id="Colombia"><path id="p_815.6216502402307" d="M-5.078027510029429e-15,27.643494236133773A27.643494236133773,27.643494236133773,0,1,1,5.078027510029429e-15,-27.643494236133773A27.643494236133773,27.643494236133773,0,1,1,-5.078027510029429e-15,27.643494236133773Z" fill="none" stroke="#ccc"/><text fill="black" text-anchor="middle" font-family="'Arial', sans-serif" font-size="8" dominant-baseline="middle"><textPath href="#p_815.6216502402307" startOffset="50%">Colombia</textPath></text></g><g transform="translate(517.7562149219887,157.64831457222834)" id="Chile"><path id="p_700.2781545114391" d="M-4.385513769207773e-15,23.873625017222047A23.873625017222047,23.873625017222047,0,1,1,4.385513769207773e-15,-23.873625017222047A23.873625017222047,23.873625017222047,0,1,1,-4.385513769207773e-15,23.873625017222047Z" fill="none" stroke="#ccc"/><text fill="black" text-anchor="middle" font-family="'Arial', sans-serif" font-size="8" dominant-baseline="middle"><textPath href="#p_700.2781545114391" startOffset="50%">Chile</textPath></text></g><g transform="translate(477.4259976173466,131.8478804838361)" id="Venezuela"><path id="p_629.7531338975712" d="M-3.578281239122969e-15,19.479255796388575A19.479255796388575,19.479255796388575,0,1,1,3.578281239122969e-15,-19.479255796388575A19.479255796388575,19.479255796388575,0,1,1,-3.578281239122969e-15,19.479255796388575Z" fill="none" stroke="#ccc"/><text fill="black" text-anchor="middle" font-family="'Arial', sans-serif" font-size="8" dominant-baseline="middle"><textPath href="#p_629.7531338975712" startOffset="50%">Venezuela</textPath></text></g><g transform="translate(473.0282324885135,290.2361121195817)" id="Argentina"><path id="p_783.1981077384166" d="M-3.4780758620043684e-15,18.93376313032155A18.93376313032155,18.93376313032155,0,1,1,3.4780758620043684e-15,-18.93376313032155A18.93376313032155,18.93376313032155,0,1,1,-3.4780758620043684e-15,18.93376313032155Z" fill="none" stroke="#ccc"/><text fill="black" text-anchor="middle" font-family="'Arial', sans-serif" font-size="8" dominant-baseline="middle"><textPath href="#p_783.1981077384166" startOffset="50%">Argentina</textPath></text></g><g transform="translate(240.69754941689826,123.88030199169808)" id="United States"><path id="p_419.10996985616083" d="M-9.833690626258028e-15,53.53211844756451A53.53211844756451,53.53211844756451,0,1,1,9.833690626258028e-15,-53.53211844756451A53.53211844756451,53.53211844756451,0,1,1,-9.833690626258028e-15,53.53211844756451Z" fill="none" stroke="#ccc"/><text fill="black" text-anchor="middle" font-family="'Arial', sans-serif" font-size="8" dominant-baseline="middle"><textPath href="#p_419.10996985616083" startOffset="50%">United States</textPath></text></g><g transform="translate(340.84301063458054,123.88030199169808)" id="Mexico"><path id="p_507.8127273461204" d="M-7.731700052195973e-15,42.08941471984186A42.08941471984186,42.08941471984186,0,1,1,7.731700052195973e-15,-42.08941471984186A42.08941471984186,42.08941471984186,0,1,1,-7.731700052195973e-15,42.08941471984186Z" fill="none" stroke="#ccc"/><text fill="black" text-anchor="middle" font-family="'Arial', sans-serif" font-size="8" dominant-baseline="middle"><textPath href="#p_507.8127273461204" startOffset="50%">Mexico</textPath></text></g><g transform="translate(300.35672349178526,190.75859718712366)" id="Canada"><path id="p_523.6802729455553" d="M-5.798387663788136e-15,31.564952266646458A31.564952266646458,31.564952266646458,0,1,1,5.798387663788136e-15,-31.564952266646458A31.564952266646458,31.564952266646458,0,1,1,-5.798387663788136e-15,31.564952266646458Z" fill="none" stroke="#ccc"/><text fill="black" text-anchor="middle" font-family="'Arial', sans-serif" font-size="8" dominant-baseline="middle"><textPath href="#p_523.6802729455553" startOffset="50%">Canada</textPath></text></g><g transform="translate(298.6379618884305,76.92425690253023)" id="Cuba"><path id="p_393.08473199889136" d="M-3.0351364370943106e-15,16.522513207930597A16.522513207930597,16.522513207930597,0,1,1,3.0351364370943106e-15,-16.522513207930597A16.522513207930597,16.522513207930597,0,1,1,-3.0351364370943106e-15,16.522513207930597Z" fill="none" stroke="#ccc"/><text fill="black" text-anchor="middle" font-family="'Arial', sans-serif" font-size="8" dominant-baseline="middle"><textPath href="#p_393.08473199889136" startOffset="50%">Cuba</textPath></text></g><g transform="translate(180.26312378623714,419.0766441982594)" id="Shanghai"><path id="p_640.9487650920596" d="M-7.459751748654171e-15,40.60899710756299A40.60899710756299,40.60899710756299,0,1,1,7.459751748654171e-15,-40.60899710756299A40.60899710756299,40.60899710756299,0,1,1,-7.459751748654171e-15,40.60899710756299Z" fill="rgb(248, 142, 83)" stroke="none"/></g><g transform="translate(263.6420716252338,419.0766441982594)" id="Beijing"><path id="p_721.964738504651" d="M-7.025680388489554e-15,38.24602268115785A38.24602268115785,38.24602268115785,0,1,1,7.025680388489554e-15,-38.24602268115785A38.24602268115785,38.24602268115785,0,1,1,-7.025680388489554e-15,38.24602268115785Z" fill="rgb(248, 142, 83)" stroke="none"/></g><g transform="translate(224.10921359154426,482.71277267181046)" id="Tianjin"><path id="p_739.9680132096778" d="M-5.90512935076787e-15,32.14602694632309A32.14602694632309,32.14602694632309,0,1,1,5.90512935076787e-15,-32.14602694632309A32.14602694632309,32.14602694632309,0,1,1,-5.90512935076787e-15,32.14602694632309Z" fill="rgb(248, 142, 83)" stroke="none"/></g><g transform="translate(224.04331311307624,358.2380101264253)" id="Guangzhou"><path id="p_613.1020128925602" d="M-5.477971819797732e-15,29.82068965305866A29.82068965305866,29.82068965305866,0,1,1,5.477971819797732e-15,-29.82068965305866A29.82068965305866,29.82068965305866,0,1,1,-5.477971819797732e-15,29.82068965305866Z" fill="rgb(248, 142, 83)" stroke="none"/></g><g transform="translate(163.6947254310817,349.20499712522866)" id="Shenzhen"><path id="p_540.575981273191" d="M-4.900349227628178e-15,26.676258716880614A26.676258716880614,26.676258716880614,0,1,1,4.900349227628178e-15,-26.676258716880614A26.676258716880614,26.676258716880614,0,1,1,-4.900349227628178e-15,26.676258716880614Z" fill="rgb(248, 142, 83)" stroke="none"/></g><g transform="translate(349.29060157413767,416.6067092499124)" id="Delhi"><path id="p_800.6807786749024" d="M-6.205922365146589e-15,33.783467850852425A33.783467850852425,33.783467850852425,0,1,1,6.205922365146589e-15,-33.783467850852425A33.783467850852425,33.783467850852425,0,1,1,-6.205922365146589e-15,33.783467850852425Z" fill="rgb(248, 142, 83)" stroke="none"/></g><g transform="translate(416.6821972264348,416.6067092499124)" id="Mumbai"><path id="p_863.373106227516" d="M-5.342680819654677e-15,29.084199751168853A29.084199751168853,29.084199751168853,0,1,1,5.342680819654677e-15,-29.084199751168853A29.084199751168853,29.084199751168853,0,1,1,-5.342680819654677e-15,29.084199751168853Z" fill="rgb(248, 142, 83)" stroke="none"/></g><g transform="translate(318.4293101099772,517.667349767543)" id="Karachi"><path id="p_877.0671470476553" d="M-7.342459375989951e-15,39.97048717013514A39.97048717013514,39.97048717013514,0,1,1,7.342459375989951e-15,-39.97048717013514A39.97048717013514,39.97048717013514,0,1,1,-7.342459375989951e-15,39.97048717013514Z" fill="rgb(248, 142, 83)" stroke="none"/></g><g transform="translate(316.4235997601064,328.5143227363437)" id="Tokyo"><path id="p_676.2484289874892" d="M-5.5679497132179215e-15,30.31050649103913A30.31050649103913,30.31050649103913,0,1,1,5.5679497132179215e-15,-30.31050649103913A30.31050649103913,30.31050649103913,0,1,1,-5.5679497132179215e-15,30.31050649103913Z" fill="rgb(248, 142, 83)" stroke="none"/></g><g transform="translate(259.6173871198781,287.5187213703783)" id="Jakarta"><path id="p_574.307976367952" d="M-4.807694133619104e-15,26.171867877695615A26.171867877695615,26.171867877695615,0,1,1,4.807694133619104e-15,-26.171867877695615A26.171867877695615,26.171867877695615,0,1,1,-4.807694133619104e-15,26.171867877695615Z" fill="rgb(248, 142, 83)" stroke="none"/></g><g transform="translate(526.4546675502146,418.3660926047598)" id="Lagos"><path id="p_980.3900326925071" d="M-6.3502723442913e-15,34.56927253753277A34.56927253753277,34.56927253753277,0,1,1,6.3502723442913e-15,-34.56927253753277A34.56927253753277,34.56927253753277,0,1,1,-6.3502723442913e-15,34.56927253753277Z" fill="rgb(158, 1, 66)" stroke="none"/></g><g transform="translate(601.9434737127806,418.3660926047598)" id="Cairo"><path id="p_1048.657315791746" d="M-5.023700078620438e-15,27.34774947420559A27.34774947420559,27.34774947420559,0,1,1,5.023700078620438e-15,-27.34774947420559A27.34774947420559,27.34774947420559,0,1,1,-5.023700078620438e-15,27.34774947420559Z" fill="rgb(158, 1, 66)" stroke="none"/></g><g transform="translate(651.0850315462499,418.3660926047598)" id="Alexandria"><path id="p_1087.7210044599974" d="M-3.172425546308955e-15,17.26988030898771A17.26988030898771,17.26988030898771,0,1,1,3.172425546308955e-15,-17.26988030898771A17.26988030898771,17.26988030898771,0,1,1,-3.172425546308955e-15,17.26988030898771Z" fill="rgb(158, 1, 66)" stroke="none"/></g><g transform="translate(563.7701597270702,480.56816992298036)" id="Kinshasa-Brazzaville"><path id="p_1069.7337767311915" d="M-4.48137092725316e-15,24.39544708114081A24.39544708114081,24.39544708114081,0,1,1,4.48137092725316e-15,-24.39544708114081A24.39544708114081,24.39544708114081,0,1,1,-4.48137092725316e-15,24.39544708114081Z" fill="rgb(158, 1, 66)" stroke="none"/></g><g transform="translate(564.239733484922,360.73668969694114)" id="Mogadishu"><path id="p_946.7473341566154" d="M-3.815554446090741e-15,20.770910974752223A20.770910974752223,20.770910974752223,0,1,1,3.815554446090741e-15,-20.770910974752223A20.770910974752223,20.770910974752223,0,1,1,-3.815554446090741e-15,20.770910974752223Z" fill="rgb(158, 1, 66)" stroke="none"/></g><g transform="translate(617.9062123507347,497.4884588594173)" id="Khartoum-Omdurman"><path id="p_1135.1461174254289" d="M-3.444584788038401e-15,18.751446215276957A18.751446215276957,18.751446215276957,0,1,1,3.444584788038401e-15,-18.751446215276957A18.751446215276957,18.751446215276957,0,1,1,-3.444584788038401e-15,18.751446215276957Z" fill="rgb(158, 1, 66)" stroke="none"/></g><g transform="translate(612.4909550261827,340.41904338050017)" id="Luanda"><path id="p_971.9217408395738" d="M-3.3087034076259472e-15,18.01174243289083A18.01174243289083,18.01174243289083,0,1,1,3.3087034076259472e-15,-18.01174243289083A18.01174243289083,18.01174243289083,0,1,1,-3.3087034076259472e-15,18.01174243289083Z" fill="rgb(158, 1, 66)" stroke="none"/></g><g transform="translate(513.0640004821645,354.3856883446949)" id="Dar es Salaam"><path id="p_885.6753063219749" d="M-3.164294599309461e-15,17.225617495115415A17.225617495115415,17.225617495115415,0,1,1,3.164294599309461e-15,-17.225617495115415A17.225617495115415,17.225617495115415,0,1,1,-3.164294599309461e-15,17.225617495115415Z" fill="rgb(158, 1, 66)" stroke="none"/></g><g transform="translate(509.05755734703064,480.8777131888464)" id="Abidjan"><path id="p_1007.6815173164583" d="M-3.0762356276355713e-15,16.746246780581235A16.746246780581235,16.746246780581235,0,1,1,3.0762356276355713e-15,-16.746246780581235A16.746246780581235,16.746246780581235,0,1,1,-3.0762356276355713e-15,16.746246780581235Z" fill="rgb(158, 1, 66)" stroke="none"/></g><g transform="translate(658.5041144093885,351.71413626813205)" id="Greater Johannesburg"><path id="p_1027.0139385212758" d="M-2.901620783727827e-15,15.79568784375516A15.79568784375516,15.79568784375516,0,1,1,2.901620783727827e-15,-15.79568784375516A15.79568784375516,15.79568784375516,0,1,1,-2.901620783727827e-15,15.79568784375516Z" fill="rgb(158, 1, 66)" stroke="none"/></g><g transform="translate(412.2836786110967,638.3053113286967)" id="Moscow"><path id="p_1080.5417031017164" d="M-5.318527125057033e-15,28.952713161922816A28.952713161922816,28.952713161922816,0,1,1,5.318527125057033e-15,-28.952713161922816A28.952713161922816,28.952713161922816,0,1,1,-5.318527125057033e-15,28.952713161922816Z" fill="rgb(251, 248, 176)" stroke="none"/></g><g transform="translate(464.60884316928514,638.3053113286967)" id="Saint Petersburg"><path id="p_1122.7626778439715" d="M-3.4624175676480708e-15,18.848523345989722A18.848523345989722,18.848523345989722,0,1,1,3.4624175676480708e-15,-18.848523345989722A18.848523345989722,18.848523345989722,0,1,1,-3.4624175676480708e-15,18.848523345989722Z" fill="rgb(251, 248, 176)" stroke="none"/></g><g transform="translate(527.9084151376276,638.3053113286967)" id="Istanbul"><path id="p_1198.0929909378494" d="M-5.672428859261668e-15,30.87926447152509A30.87926447152509,30.87926447152509,0,1,1,5.672428859261668e-15,-30.87926447152509A30.87926447152509,30.87926447152509,0,1,1,-5.672428859261668e-15,30.87926447152509Z" fill="rgb(251, 248, 176)" stroke="none"/></g><g transform="translate(496.54950079924896,699.4692852197)" id="London"><path id="p_1221.3021044237328" d="M-4.460773223564168e-15,24.283318404783767A24.283318404783767,24.283318404783767,0,1,1,4.460773223564168e-15,-24.283318404783767A24.283318404783767,24.283318404783767,0,1,1,-4.460773223564168e-15,24.283318404783767Z" fill="rgb(251, 248, 176)" stroke="none"/></g><g transform="translate(494.7792793030729,588.265185225838)" id="Berlin"><path id="p_1099.6063633557076" d="M-2.858674438033748e-15,15.561898826796801A15.561898826796801,15.561898826796801,0,1,1,2.858674438033748e-15,-15.561898826796801A15.561898826796801,15.561898826796801,0,1,1,-2.858674438033748e-15,15.561898826796801Z" fill="rgb(251, 248, 176)" stroke="none"/></g><g transform="translate(458.2727414259062,564.0583402012044)" id="Madrid"><path id="p_1038.0003512191888" d="M-2.6947011077652545e-15,14.669269592078361A14.669269592078361,14.669269592078361,0,1,1,2.6947011077652545e-15,-14.669269592078361A14.669269592078361,14.669269592078361,0,1,1,-2.6947011077652545e-15,14.669269592078361Z" fill="rgb(251, 248, 176)" stroke="none"/></g><g transform="translate(446.9492708722684,714.8129405450212)" id="Kiev"><path id="p_1176.826378574874" d="M-2.58354559383139e-15,14.064167157584567A14.064167157584567,14.064167157584567,0,1,1,2.58354559383139e-15,-14.064167157584567A14.064167157584567,14.064167157584567,0,1,1,-2.58354559383139e-15,14.064167157584567Z" fill="rgb(251, 248, 176)" stroke="none"/></g><g transform="translate(537.2080451686008,580.6208601587043)" id="Rome"><path id="p_1132.8071218509065" d="M-2.567756718512563e-15,13.978216523601391A13.978216523601391,13.978216523601391,0,1,1,2.567756718512563e-15,-13.978216523601391A13.978216523601391,13.978216523601391,0,1,1,-2.567756718512563e-15,13.978216523601391Z" fill="rgb(251, 248, 176)" stroke="none"/></g><g transform="translate(546.2009985447164,692.0740012406009)" id="Paris"><path id="p_1251.619114887949" d="M-2.267577157311683e-15,12.344115102631815A12.344115102631815,12.344115102631815,0,1,1,2.267577157311683e-15,-12.344115102631815A12.344115102631815,12.344115102631815,0,1,1,-2.267577157311683e-15,12.344115102631815Z" fill="rgb(251, 248, 176)" stroke="none"/></g><g transform="translate(418.5238663431075,564.6441665271108)" id="Minsk"><path id="p_995.6801709844707" d="M-2.1147454639442417e-15,11.512138114252533A11.512138114252533,11.512138114252533,0,1,1,2.1147454639442417e-15,-11.512138114252533A11.512138114252533,11.512138114252533,0,1,1,-2.1147454639442417e-15,11.512138114252533Z" fill="rgb(251, 248, 176)" stroke="none"/></g><g transform="translate(426.6536982286227,216.7250153505743)" id="São Paulo"><path id="p_672.9028907623357" d="M-5.2398063428464225e-15,28.524177183138736A28.524177183138736,28.524177183138736,0,1,1,5.2398063428464225e-15,-28.524177183138736A28.524177183138736,28.524177183138736,0,1,1,-5.2398063428464225e-15,28.524177183138736Z" fill="rgb(94, 79, 162)" stroke="none"/></g><g transform="translate(480.6854077449437,216.7250153505743)" id="Rio de Janeiro"><path id="p_719.3940273784243" d="M-3.85462557294539e-15,20.983604282906335A20.983604282906335,20.983604282906335,0,1,1,3.85462557294539e-15,-20.983604282906335A20.983604282906335,20.983604282906335,0,1,1,-3.85462557294539e-15,20.983604282906335Z" fill="rgb(94, 79, 162)" stroke="none"/></g><g transform="translate(459.7221938591921,250.3208452591767)" id="Salvador"><path id="p_725.1352053151945" d="M-2.5886889338992658e-15,14.092166196825687A14.092166196825687,14.092166196825687,0,1,1,2.5886889338992658e-15,-14.092166196825687A14.092166196825687,14.092166196825687,0,1,1,-2.5886889338992658e-15,14.092166196825687Z" fill="rgb(94, 79, 162)" stroke="none"/></g><g transform="translate(459.7200864066127,183.14830210295196)" id="Brasília"><path id="p_657.9454538291633" d="M-2.5859149477551765e-15,14.077065319598496A14.077065319598496,14.077065319598496,0,1,1,2.5859149477551765e-15,-14.077065319598496A14.077065319598496,14.077065319598496,0,1,1,-2.5859149477551765e-15,14.077065319598496Z" fill="rgb(94, 79, 162)" stroke="none"/></g><g transform="translate(430.43804134332987,170.55918866534878)" id="Fortaleza"><path id="p_615.2697984139334" d="M-2.4381312620939128e-15,13.272568405254669A13.272568405254669,13.272568405254669,0,1,1,2.4381312620939128e-15,-13.272568405254669A13.272568405254669,13.272568405254669,0,1,1,-2.4381312620939128e-15,13.272568405254669Z" fill="rgb(94, 79, 162)" stroke="none"/></g><g transform="translate(540.3820214353016,210.5225032743976)" id="Lima"><path id="p_776.494841957917" d="M-4.517167996207177e-15,24.590317248217776A24.590317248217776,24.590317248217776,0,1,1,4.517167996207177e-15,-24.590317248217776A24.590317248217776,24.590317248217776,0,1,1,-4.517167996207177e-15,24.590317248217776Z" fill="rgb(94, 79, 162)" stroke="none"/></g><g transform="translate(519.0183970811216,267.95975892297537)" id="Bogotá"><path id="p_811.0977221899549" d="M-4.246995409077936e-15,23.119566185857884A23.119566185857884,23.119566185857884,0,1,1,4.246995409077936e-15,-23.119566185857884A23.119566185857884,23.119566185857884,0,1,1,-4.246995409077936e-15,23.119566185857884Z" fill="rgb(94, 79, 162)" stroke="none"/></g><g transform="translate(517.7562149219887,157.64831457222834)" id="Santiago"><path id="p_695.7542264611632" d="M-3.554481668256279e-15,19.34969696694616A19.34969696694616,19.34969696694616,0,1,1,3.554481668256279e-15,-19.34969696694616A19.34969696694616,19.34969696694616,0,1,1,-3.554481668256279e-15,19.34969696694616Z" fill="rgb(94, 79, 162)" stroke="none"/></g><g transform="translate(477.4259976173466,131.8478804838361)" id="Caracas"><path id="p_625.2292058472954" d="M-2.7472491381714752e-15,14.955327746112687A14.955327746112687,14.955327746112687,0,1,1,2.7472491381714752e-15,-14.955327746112687A14.955327746112687,14.955327746112687,0,1,1,-2.7472491381714752e-15,14.955327746112687Z" fill="rgb(94, 79, 162)" stroke="none"/></g><g transform="translate(473.0282324885135,290.2361121195817)" id="Buenos Aires"><path id="p_778.6741796881408" d="M-2.6470437610528747e-15,14.409835080045664A14.409835080045664,14.409835080045664,0,1,1,2.6470437610528747e-15,-14.409835080045664A14.409835080045664,14.409835080045664,0,1,1,-2.6470437610528747e-15,14.409835080045664Z" fill="rgb(94, 79, 162)" stroke="none"/></g><g transform="translate(223.95751691075867,126.43788038788358)" id="New York City"><path id="p_375.50548851657504" d="M-4.428951905578815e-15,24.11009121793279A24.11009121793279,24.11009121793279,0,1,1,4.428951905578815e-15,-24.11009121793279A24.11009121793279,24.11009121793279,0,1,1,-4.428951905578815e-15,24.11009121793279Z" fill="rgb(137, 207, 165)" stroke="none"/></g><g transform="translate(269.0240396970155,126.43788038788358)" id="Los Angeles"><path id="p_412.89442360294726" d="M-3.0186019253032944e-15,16.432503518048158A16.432503518048158,16.432503518048158,0,1,1,3.0186019253032944e-15,-16.432503518048158A16.432503518048158,16.432503518048158,0,1,1,-3.0186019253032944e-15,16.432503518048158Z" fill="rgb(137, 207, 165)" stroke="none"/></g><g transform="translate(253.03180705939187,157.0709320646475)" id="Chicago"><path id="p_424.7025712392672" d="M-2.4982486303282618e-15,13.59983211522778A13.59983211522778,13.59983211522778,0,1,1,2.4982486303282618e-15,-13.59983211522778A13.59983211522778,13.59983211522778,0,1,1,-2.4982486303282618e-15,13.59983211522778Z" fill="rgb(137, 207, 165)" stroke="none"/></g><g transform="translate(252.84347072622472,97.16089299774058)" id="Houston"><path id="p_363.49868405841784" d="M-2.2951694107663467e-15,12.49432033445253A12.49432033445253,12.49432033445253,0,1,1,2.2951694107663467e-15,-12.49432033445253A12.49432033445253,12.49432033445253,0,1,1,-2.2951694107663467e-15,12.49432033445253Z" fill="rgb(137, 207, 165)" stroke="none"/></g><g transform="translate(227.22179115863142,87.61797309711507)" id="Philadelphia"><path id="p_326.16265308391" d="M-1.8962839142046576e-15,10.322888828163487A10.322888828163487,10.322888828163487,0,1,1,1.8962839142046576e-15,-10.322888828163487A10.322888828163487,10.322888828163487,0,1,1,-1.8962839142046576e-15,10.322888828163487Z" fill="rgb(137, 207, 165)" stroke="none"/></g><g transform="translate(327.9013278721331,123.88030199169808)" id="Mexico City"><path id="p_477.40543377094974" d="M-4.523319395652719e-15,24.62380390711853A24.62380390711853,24.62380390711853,0,1,1,4.523319395652719e-15,-24.62380390711853A24.62380390711853,24.62380390711853,0,1,1,-4.523319395652719e-15,24.62380390711853Z" fill="rgb(137, 207, 165)" stroke="none"/></g><g transform="translate(367.72877856683704,123.88030199169808)" id="Ecatepec de Morelos"><path id="p_503.28879929584457" d="M-1.9618325051160143e-15,10.679718737309503A10.679718737309503,10.679718737309503,0,1,1,1.9618325051160143e-15,-10.679718737309503A10.679718737309503,10.679718737309503,0,1,1,-1.9618325051160143e-15,10.679718737309503Z" fill="rgb(137, 207, 165)" stroke="none"/></g><g transform="translate(287.1778255829967,190.75859718712366)" id="Toronto"><path id="p_492.79854907770243" d="M-2.5464312917934985e-15,13.862126307582036A13.862126307582036,13.862126307582036,0,1,1,2.5464312917934985e-15,-13.862126307582036A13.862126307582036,13.862126307582036,0,1,1,-2.5464312917934985e-15,13.862126307582036Z" fill="rgb(137, 207, 165)" stroke="none"/></g><g transform="translate(316.4808138245052,190.75859718712366)" id="Montreal"><path id="p_519.1563448952795" d="M-2.0054082205673968e-15,10.916933883650591A10.916933883650591,10.916933883650591,0,1,1,2.0054082205673968e-15,-10.916933883650591A10.916933883650591,10.916933883650591,0,1,1,-2.0054082205673968e-15,10.916933883650591Z" fill="rgb(137, 207, 165)" stroke="none"/></g><g transform="translate(298.6379618884305,76.92425690253023)" id="Havana"><path id="p_388.56080394861544" d="M-2.204104336142817e-15,11.99858515765471A11.99858515765471,11.99858515765471,0,1,1,2.204104336142817e-15,-11.99858515765471A11.99858515765471,11.99858515765471,0,1,1,-2.204104336142817e-15,11.99858515765471Z" fill="rgb(137, 207, 165)" stroke="none"/></g></g><g id="labels"><g transform="translate(180.26312378623714,419.0766441982594)"><text text-anchor="middle" dominant-baseline="text-before-edge" transform="translate(0,-5.55224609375)" style="stroke-width: 2px; paint-order: stroke; stroke: white; stroke-linecap: round; stroke-linejoin: round; opacity: 1;"><tspan x="0" y="0" dy="0" style="font-family: Arial, sans-serif; font-size: 10px; fill: black; font-weight: bold;">Shanghai</tspan></text></g><g transform="translate(263.6420716252338,419.0766441982594)"><text text-anchor="middle" dominant-baseline="text-before-edge" transform="translate(0,-5.55224609375)" style="stroke-width: 2px; paint-order: stroke; stroke: white; stroke-linecap: round; stroke-linejoin: round; opacity: 1;"><tspan x="0" y="0" dy="0" style="font-family: Arial, sans-serif; font-size: 10px; fill: black; font-weight: bold;">Beijing</tspan></text></g><g transform="translate(224.10921359154426,482.71277267181046)"><text text-anchor="middle" dominant-baseline="text-before-edge" transform="translate(0,-5.55224609375)" style="stroke-width: 2px; paint-order: stroke; stroke: white; stroke-linecap: round; stroke-linejoin: round; opacity: 1;"><tspan x="0" y="0" dy="0" style="font-family: Arial, sans-serif; font-size: 10px; fill: black; font-weight: bold;">Tianjin</tspan></text></g><g transform="translate(224.04331311307624,358.2380101264253)"><text text-anchor="middle" dominant-baseline="text-before-edge" transform="translate(0,-5.55224609375)" style="stroke-width: 2px; paint-order: stroke; stroke: white; stroke-linecap: round; stroke-linejoin: round; opacity: 1;"><tspan x="0" y="0" dy="0" style="font-family: Arial, sans-serif; font-size: 10px; fill: black; font-weight: bold;">Guangzhou</tspan></text></g><g transform="translate(163.6947254310817,349.20499712522866)"><text text-anchor="middle" dominant-baseline="text-before-edge" transform="translate(0,-5.55224609375)" style="stroke-width: 2px; paint-order: stroke; stroke: white; stroke-linecap: round; stroke-linejoin: round; opacity: 1;"><tspan x="0" y="0" dy="0" style="font-family: Arial, sans-serif; font-size: 10px; fill: black; font-weight: bold;">Shenzhen</tspan></text></g><g transform="translate(349.29060157413767,416.6067092499124)"><text text-anchor="middle" dominant-baseline="text-before-edge" transform="translate(0,-5.55224609375)" style="stroke-width: 2px; paint-order: stroke; stroke: white; stroke-linecap: round; stroke-linejoin: round; opacity: 1;"><tspan x="0" y="0" dy="0" style="font-family: Arial, sans-serif; font-size: 10px; fill: black; font-weight: bold;">Delhi</tspan></text></g><g transform="translate(416.6821972264348,416.6067092499124)"><text text-anchor="middle" dominant-baseline="text-before-edge" transform="translate(0,-5.55224609375)" style="stroke-width: 2px; paint-order: stroke; stroke: white; stroke-linecap: round; stroke-linejoin: round; opacity: 1;"><tspan x="0" y="0" dy="0" style="font-family: Arial, sans-serif; font-size: 10px; fill: black; font-weight: bold;">Mumbai</tspan></text></g><g transform="translate(318.4293101099772,517.667349767543)"><text text-anchor="middle" dominant-baseline="text-before-edge" transform="translate(0,-5.55224609375)" style="stroke-width: 2px; paint-order: stroke; stroke: white; stroke-linecap: round; stroke-linejoin: round; opacity: 1;"><tspan x="0" y="0" dy="0" style="font-family: Arial, sans-serif; font-size: 10px; fill: black; font-weight: bold;">Karachi</tspan></text></g><g transform="translate(316.4235997601064,328.5143227363437)"><text text-anchor="middle" dominant-baseline="text-before-edge" transform="translate(0,-5.55224609375)" style="stroke-width: 2px; paint-order: stroke; stroke: white; stroke-linecap: round; stroke-linejoin: round; opacity: 1;"><tspan x="0" y="0" dy="0" style="font-family: Arial, sans-serif; font-size: 10px; fill: black; font-weight: bold;">Tokyo</tspan></text></g><g transform="translate(259.6173871198781,287.5187213703783)"><text text-anchor="middle" dominant-baseline="text-before-edge" transform="translate(0,-5.55224609375)" style="stroke-width: 2px; paint-order: stroke; stroke: white; stroke-linecap: round; stroke-linejoin: round; opacity: 1;"><tspan x="0" y="0" dy="0" style="font-family: Arial, sans-serif; font-size: 10px; fill: black; font-weight: bold;">Jakarta</tspan></text></g><g transform="translate(526.4546675502146,418.3660926047598)"><text text-anchor="middle" dominant-baseline="text-before-edge" transform="translate(0,-5.55224609375)" style="stroke-width: 2px; paint-order: stroke; stroke: white; stroke-linecap: round; stroke-linejoin: round; opacity: 1;"><tspan x="0" y="0" dy="0" style="font-family: Arial, sans-serif; font-size: 10px; fill: black; font-weight: bold;">Lagos</tspan></text></g><g transform="translate(601.9434737127806,418.3660926047598)"><text text-anchor="middle" dominant-baseline="text-before-edge" transform="translate(0,-5.55224609375)" style="stroke-width: 2px; paint-order: stroke; stroke: white; stroke-linecap: round; stroke-linejoin: round; opacity: 1;"><tspan x="0" y="0" dy="0" style="font-family: Arial, sans-serif; font-size: 10px; fill: black; font-weight: bold;">Cairo</tspan></text></g><g transform="translate(651.0850315462499,418.3660926047598)"><text text-anchor="middle" dominant-baseline="text-before-edge" transform="translate(0,-5.55224609375)" style="stroke-width: 2px; paint-order: stroke; stroke: white; stroke-linecap: round; stroke-linejoin: round; opacity: 1;"><tspan x="0" y="0" dy="0" style="font-family: Arial, sans-serif; font-size: 10px; fill: black; font-weight: bold;">Alexandria</tspan></text></g><g transform="translate(563.7701597270702,480.56816992298036)"><text text-anchor="middle" dominant-baseline="text-before-edge" transform="translate(0,-5.55224609375)" style="stroke-width: 2px; paint-order: stroke; stroke: white; stroke-linecap: round; stroke-linejoin: round; opacity: 1;"><tspan x="0" y="0" dy="0" style="font-family: Arial, sans-serif; font-size: 10px; fill: black; font-weight: bold;">Kinshasa-Brazzaville</tspan></text></g><g transform="translate(564.239733484922,360.73668969694114)"><text text-anchor="middle" dominant-baseline="text-before-edge" transform="translate(0,-5.55224609375)" style="stroke-width: 2px; paint-order: stroke; stroke: white; stroke-linecap: round; stroke-linejoin: round; opacity: 1;"><tspan x="0" y="0" dy="0" style="font-family: Arial, sans-serif; font-size: 10px; fill: black; font-weight: bold;">Mogadishu</tspan></text></g><g transform="translate(617.9062123507347,497.4884588594173)"><text text-anchor="middle" dominant-baseline="text-before-edge" transform="translate(0,-5.55224609375)" style="stroke-width: 2px; paint-order: stroke; stroke: white; stroke-linecap: round; stroke-linejoin: round; opacity: 1;"><tspan x="0" y="0" dy="0" style="font-family: Arial, sans-serif; font-size: 10px; fill: black; font-weight: bold;">Khartoum-Omdurman</tspan></text></g><g transform="translate(612.4909550261827,340.41904338050017)"><text text-anchor="middle" dominant-baseline="text-before-edge" transform="translate(0,-5.55224609375)" style="stroke-width: 2px; paint-order: stroke; stroke: white; stroke-linecap: round; stroke-linejoin: round; opacity: 1;"><tspan x="0" y="0" dy="0" style="font-family: Arial, sans-serif; font-size: 10px; fill: black; font-weight: bold;">Luanda</tspan></text></g><g transform="translate(513.0640004821645,354.3856883446949)"><text text-anchor="middle" dominant-baseline="text-before-edge" transform="translate(0,-5.55224609375)" style="stroke-width: 2px; paint-order: stroke; stroke: white; stroke-linecap: round; stroke-linejoin: round; opacity: 0;"><tspan x="0" y="0" dy="0" style="font-family: Arial, sans-serif; font-size: 10px; fill: black; font-weight: bold;">Dar es Salaam</tspan></text></g><g transform="translate(509.05755734703064,480.8777131888464)"><text text-anchor="middle" dominant-baseline="text-before-edge" transform="translate(0,-5.55224609375)" style="stroke-width: 2px; paint-order: stroke; stroke: white; stroke-linecap: round; stroke-linejoin: round; opacity: 0;"><tspan x="0" y="0" dy="0" style="font-family: Arial, sans-serif; font-size: 10px; fill: black; font-weight: bold;">Abidjan</tspan></text></g><g transform="translate(658.5041144093885,351.71413626813205)"><text text-anchor="middle" dominant-baseline="text-before-edge" transform="translate(0,-5.55224609375)" style="stroke-width: 2px; paint-order: stroke; stroke: white; stroke-linecap: round; stroke-linejoin: round; opacity: 1;"><tspan x="0" y="0" dy="0" style="font-family: Arial, sans-serif; font-size: 10px; fill: black; font-weight: bold;">Greater Johannesburg</tspan></text></g><g transform="translate(412.2836786110967,638.3053113286967)"><text text-anchor="middle" dominant-baseline="text-before-edge" transform="translate(0,-5.55224609375)" style="stroke-width: 2px; paint-order: stroke; stroke: white; stroke-linecap: round; stroke-linejoin: round; opacity: 1;"><tspan x="0" y="0" dy="0" style="font-family: Arial, sans-serif; font-size: 10px; fill: black; font-weight: bold;">Moscow</tspan></text></g><g transform="translate(464.60884316928514,638.3053113286967)"><text text-anchor="middle" dominant-baseline="text-before-edge" transform="translate(0,-5.55224609375)" style="stroke-width: 2px; paint-order: stroke; stroke: white; stroke-linecap: round; stroke-linejoin: round; opacity: 0;"><tspan x="0" y="0" dy="0" style="font-family: Arial, sans-serif; font-size: 10px; fill: black; font-weight: bold;">Saint Petersburg</tspan></text></g><g transform="translate(527.9084151376276,638.3053113286967)"><text text-anchor="middle" dominant-baseline="text-before-edge" transform="translate(0,-5.55224609375)" style="stroke-width: 2px; paint-order: stroke; stroke: white; stroke-linecap: round; stroke-linejoin: round; opacity: 1;"><tspan x="0" y="0" dy="0" style="font-family: Arial, sans-serif; font-size: 10px; fill: black; font-weight: bold;">Istanbul</tspan></text></g><g transform="translate(496.54950079924896,699.4692852197)"><text text-anchor="middle" dominant-baseline="text-before-edge" transform="translate(0,-5.55224609375)" style="stroke-width: 2px; paint-order: stroke; stroke: white; stroke-linecap: round; stroke-linejoin: round; opacity: 1;"><tspan x="0" y="0" dy="0" style="font-family: Arial, sans-serif; font-size: 10px; fill: black; font-weight: bold;">London</tspan></text></g><g transform="translate(494.7792793030729,588.265185225838)"><text text-anchor="middle" dominant-baseline="text-before-edge" transform="translate(0,-5.55224609375)" style="stroke-width: 2px; paint-order: stroke; stroke: white; stroke-linecap: round; stroke-linejoin: round; opacity: 1;"><tspan x="0" y="0" dy="0" style="font-family: Arial, sans-serif; font-size: 10px; fill: black; font-weight: bold;">Berlin</tspan></text></g><g transform="translate(458.2727414259062,564.0583402012044)"><text text-anchor="middle" dominant-baseline="text-before-edge" transform="translate(0,-5.55224609375)" style="stroke-width: 2px; paint-order: stroke; stroke: white; stroke-linecap: round; stroke-linejoin: round; opacity: 1;"><tspan x="0" y="0" dy="0" style="font-family: Arial, sans-serif; font-size: 10px; fill: black; font-weight: bold;">Madrid</tspan></text></g><g transform="translate(446.9492708722684,714.8129405450212)"><text text-anchor="middle" dominant-baseline="text-before-edge" transform="translate(0,-5.55224609375)" style="stroke-width: 2px; paint-order: stroke; stroke: white; stroke-linecap: round; stroke-linejoin: round; opacity: 1;"><tspan x="0" y="0" dy="0" style="font-family: Arial, sans-serif; font-size: 10px; fill: black; font-weight: bold;">Kiev</tspan></text></g><g transform="translate(537.2080451686008,580.6208601587043)"><text text-anchor="middle" dominant-baseline="text-before-edge" transform="translate(0,-5.55224609375)" style="stroke-width: 2px; paint-order: stroke; stroke: white; stroke-linecap: round; stroke-linejoin: round; opacity: 1;"><tspan x="0" y="0" dy="0" style="font-family: Arial, sans-serif; font-size: 10px; fill: black; font-weight: bold;">Rome</tspan></text></g><g transform="translate(546.2009985447164,692.0740012406009)"><text text-anchor="middle" dominant-baseline="text-before-edge" transform="translate(0,-5.55224609375)" style="stroke-width: 2px; paint-order: stroke; stroke: white; stroke-linecap: round; stroke-linejoin: round; opacity: 1;"><tspan x="0" y="0" dy="0" style="font-family: Arial, sans-serif; font-size: 10px; fill: black; font-weight: bold;">Paris</tspan></text></g><g transform="translate(418.5238663431075,564.6441665271108)"><text text-anchor="middle" dominant-baseline="text-before-edge" transform="translate(0,-5.55224609375)" style="stroke-width: 2px; paint-order: stroke; stroke: white; stroke-linecap: round; stroke-linejoin: round; opacity: 1;"><tspan x="0" y="0" dy="0" style="font-family: Arial, sans-serif; font-size: 10px; fill: black; font-weight: bold;">Minsk</tspan></text></g><g transform="translate(426.6536982286227,216.7250153505743)"><text text-anchor="middle" dominant-baseline="text-before-edge" transform="translate(0,-5.55224609375)" style="stroke-width: 2px; paint-order: stroke; stroke: white; stroke-linecap: round; stroke-linejoin: round; opacity: 1;"><tspan x="0" y="0" dy="0" style="font-family: Arial, sans-serif; font-size: 10px; fill: black; font-weight: bold;">São Paulo</tspan></text></g><g transform="translate(480.6854077449437,216.7250153505743)"><text text-anchor="middle" dominant-baseline="text-before-edge" transform="translate(0,-5.55224609375)" style="stroke-width: 2px; paint-order: stroke; stroke: white; stroke-linecap: round; stroke-linejoin: round; opacity: 0;"><tspan x="0" y="0" dy="0" style="font-family: Arial, sans-serif; font-size: 10px; fill: black; font-weight: bold;">Rio de Janeiro</tspan></text></g><g transform="translate(459.7221938591921,250.3208452591767)"><text text-anchor="middle" dominant-baseline="text-before-edge" transform="translate(0,-5.55224609375)" style="stroke-width: 2px; paint-order: stroke; stroke: white; stroke-linecap: round; stroke-linejoin: round; opacity: 1;"><tspan x="0" y="0" dy="0" style="font-family: Arial, sans-serif; font-size: 10px; fill: black; font-weight: bold;">Salvador</tspan></text></g><g transform="translate(459.7200864066127,183.14830210295196)"><text text-anchor="middle" dominant-baseline="text-before-edge" transform="translate(0,-5.55224609375)" style="stroke-width: 2px; paint-order: stroke; stroke: white; stroke-linecap: round; stroke-linejoin: round; opacity: 1;"><tspan x="0" y="0" dy="0" style="font-family: Arial, sans-serif; font-size: 10px; fill: black; font-weight: bold;">Brasília</tspan></text></g><g transform="translate(430.43804134332987,170.55918866534878)"><text text-anchor="middle" dominant-baseline="text-before-edge" transform="translate(0,-5.55224609375)" style="stroke-width: 2px; paint-order: stroke; stroke: white; stroke-linecap: round; stroke-linejoin: round; opacity: 1;"><tspan x="0" y="0" dy="0" style="font-family: Arial, sans-serif; font-size: 10px; fill: black; font-weight: bold;">Fortaleza</tspan></text></g><g transform="translate(540.3820214353016,210.5225032743976)"><text text-anchor="middle" dominant-baseline="text-before-edge" transform="translate(0,-5.55224609375)" style="stroke-width: 2px; paint-order: stroke; stroke: white; stroke-linecap: round; stroke-linejoin: round; opacity: 1;"><tspan x="0" y="0" dy="0" style="font-family: Arial, sans-serif; font-size: 10px; fill: black; font-weight: bold;">Lima</tspan></text></g><g transform="translate(519.0183970811216,267.95975892297537)"><text text-anchor="middle" dominant-baseline="text-before-edge" transform="translate(0,-5.55224609375)" style="stroke-width: 2px; paint-order: stroke; stroke: white; stroke-linecap: round; stroke-linejoin: round; opacity: 1;"><tspan x="0" y="0" dy="0" style="font-family: Arial, sans-serif; font-size: 10px; fill: black; font-weight: bold;">Bogotá</tspan></text></g><g transform="translate(517.7562149219887,157.64831457222834)"><text text-anchor="middle" dominant-baseline="text-before-edge" transform="translate(0,-5.55224609375)" style="stroke-width: 2px; paint-order: stroke; stroke: white; stroke-linecap: round; stroke-linejoin: round; opacity: 1;"><tspan x="0" y="0" dy="0" style="font-family: Arial, sans-serif; font-size: 10px; fill: black; font-weight: bold;">Santiago</tspan></text></g><g transform="translate(477.4259976173466,131.8478804838361)"><text text-anchor="middle" dominant-baseline="text-before-edge" transform="translate(0,-5.55224609375)" style="stroke-width: 2px; paint-order: stroke; stroke: white; stroke-linecap: round; stroke-linejoin: round; opacity: 1;"><tspan x="0" y="0" dy="0" style="font-family: Arial, sans-serif; font-size: 10px; fill: black; font-weight: bold;">Caracas</tspan></text></g><g transform="translate(473.0282324885135,290.2361121195817)"><text text-anchor="middle" dominant-baseline="text-before-edge" transform="translate(0,-5.55224609375)" style="stroke-width: 2px; paint-order: stroke; stroke: white; stroke-linecap: round; stroke-linejoin: round; opacity: 1;"><tspan x="0" y="0" dy="0" style="font-family: Arial, sans-serif; font-size: 10px; fill: black; font-weight: bold;">Buenos Aires</tspan></text></g><g transform="translate(223.95751691075867,126.43788038788358)"><text text-anchor="middle" dominant-baseline="text-before-edge" transform="translate(0,-5.55224609375)" style="stroke-width: 2px; paint-order: stroke; stroke: white; stroke-linecap: round; stroke-linejoin: round; opacity: 1;"><tspan x="0" y="0" dy="0" style="font-family: Arial, sans-serif; font-size: 10px; fill: black; font-weight: bold;">New York City</tspan></text></g><g transform="translate(269.0240396970155,126.43788038788358)"><text text-anchor="middle" dominant-baseline="text-before-edge" transform="translate(0,-5.55224609375)" style="stroke-width: 2px; paint-order: stroke; stroke: white; stroke-linecap: round; stroke-linejoin: round; opacity: 0;"><tspan x="0" y="0" dy="0" style="font-family: Arial, sans-serif; font-size: 10px; fill: black; font-weight: bold;">Los Angeles</tspan></text></g><g transform="translate(253.03180705939187,157.0709320646475)"><text text-anchor="middle" dominant-baseline="text-before-edge" transform="translate(0,-5.55224609375)" style="stroke-width: 2px; paint-order: stroke; stroke: white; stroke-linecap: round; stroke-linejoin: round; opacity: 1;"><tspan x="0" y="0" dy="0" style="font-family: Arial, sans-serif; font-size: 10px; fill: black; font-weight: bold;">Chicago</tspan></text></g><g transform="translate(252.84347072622472,97.16089299774058)"><text text-anchor="middle" dominant-baseline="text-before-edge" transform="translate(0,-5.55224609375)" style="stroke-width: 2px; paint-order: stroke; stroke: white; stroke-linecap: round; stroke-linejoin: round; opacity: 1;"><tspan x="0" y="0" dy="0" style="font-family: Arial, sans-serif; font-size: 10px; fill: black; font-weight: bold;">Houston</tspan></text></g><g transform="translate(227.22179115863142,87.61797309711507)"><text text-anchor="middle" dominant-baseline="text-before-edge" transform="translate(0,-5.55224609375)" style="stroke-width: 2px; paint-order: stroke; stroke: white; stroke-linecap: round; stroke-linejoin: round; opacity: 0;"><tspan x="0" y="0" dy="0" style="font-family: Arial, sans-serif; font-size: 10px; fill: black; font-weight: bold;">Philadelphia</tspan></text></g><g transform="translate(327.9013278721331,123.88030199169808)"><text text-anchor="middle" dominant-baseline="text-before-edge" transform="translate(0,-5.55224609375)" style="stroke-width: 2px; paint-order: stroke; stroke: white; stroke-linecap: round; stroke-linejoin: round; opacity: 1;"><tspan x="0" y="0" dy="0" style="font-family: Arial, sans-serif; font-size: 10px; fill: black; font-weight: bold;">Mexico City</tspan></text></g><g transform="translate(367.72877856683704,123.88030199169808)"><text text-anchor="middle" dominant-baseline="text-before-edge" transform="translate(0,-5.55224609375)" style="stroke-width: 2px; paint-order: stroke; stroke: white; stroke-linecap: round; stroke-linejoin: round; opacity: 0;"><tspan x="0" y="0" dy="0" style="font-family: Arial, sans-serif; font-size: 10px; fill: black; font-weight: bold;">Ecatepec de Morelos</tspan></text></g><g transform="translate(287.1778255829967,190.75859718712366)"><text text-anchor="middle" dominant-baseline="text-before-edge" transform="translate(0,-5.55224609375)" style="stroke-width: 2px; paint-order: stroke; stroke: white; stroke-linecap: round; stroke-linejoin: round; opacity: 1;"><tspan x="0" y="0" dy="0" style="font-family: Arial, sans-serif; font-size: 10px; fill: black; font-weight: bold;">Toronto</tspan></text></g><g transform="translate(316.4808138245052,190.75859718712366)"><text text-anchor="middle" dominant-baseline="text-before-edge" transform="translate(0,-5.55224609375)" style="stroke-width: 2px; paint-order: stroke; stroke: white; stroke-linecap: round; stroke-linejoin: round; opacity: 0;"><tspan x="0" y="0" dy="0" style="font-family: Arial, sans-serif; font-size: 10px; fill: black; font-weight: bold;">Montreal</tspan></text></g><g transform="translate(298.6379618884305,76.92425690253023)"><text text-anchor="middle" dominant-baseline="text-before-edge" transform="translate(0,-5.55224609375)" style="stroke-width: 2px; paint-order: stroke; stroke: white; stroke-linecap: round; stroke-linejoin: round; opacity: 1;"><tspan x="0" y="0" dy="0" style="font-family: Arial, sans-serif; font-size: 10px; fill: black; font-weight: bold;">Havana</tspan></text></g></g></g></svg>