<svg xmlns="http://www.w3.org/2000/svg" width="805" height="805"><rect width="805" height="805" x="0" y="0" fill="#FFFFFF" id="backgorund"/><g transform="translate(402.5,402.5)" id="viz"><path fill="rgb(248, 142, 83)" display="" d="M0.999995672581935,-194.24742600264958A194.25,194.25,0,0,1,90.7708180221572,171.7373608030251L46.28962515909916,86.5204382075709A98.125,98.125,0,0,0,0.999995672581939,-98.11990437039172Z"><title>Asia</title></path><path fill="rgb(158, 1, 66)" display="" d="M88.99782830226816,172.66281897814594A194.25,194.25,0,0,1,-121.30753429331264,151.71534076578013L-60.89097629438259,76.94676491521224A98.125,98.125,0,0,0,44.51663543921009,87.44589638269176Z"><title>Africa</title></path><path fill="rgb(251, 248, 176)" display="" d="M-122.86313982700591,150.45833766145893A194.25,194.25,0,0,1,-194.04603342802633,-8.899405084008997L-98.04339188876332,-4.001116337521226A98.125,98.125,0,0,0,-62.44658182807586,75.68976181089107Z"><title>Europe</title></path><path fill="rgb(137, 207, 165)" display="" d="M-193.9441215620722,-10.89679822315513A194.25,194.25,0,0,1,-154.88148640992145,-117.23816642822982L-78.53574978798271,-58.82730344184894A98.125,98.125,0,0,0,-97.9414800228092,-5.998509476667334Z"><title>North America</title></path><path fill="rgb(94, 79, 162)" display="" d="M-153.6662130058778,-118.82658574760191A194.25,194.25,0,0,1,-0.9999956725821315,-194.24742600264958L-0.9999956725820163,-98.11990437039172A98.125,98.125,0,0,0,-77.3204763839391,-60.415722761221005Z"><title>South America</title></path><path fill="rgb(248, 142, 83)" display="" d="M0.9999956725819725,-292.3732898772643A292.375,292.375,0,0,1,287.8519113321435,-51.22907150663388L193.15610266766782,-34.70997698410883A196.25,196.25,0,0,0,0.9999956725819343,-196.247452234812Z"><title>China</title></path><path fill="rgb(248, 142, 83)" display="" d="M288.195607125962,-49.25883330224291A292.375,292.375,0,0,1,285.7925637056444,61.69077042439326L191.9007927102863,41.0870813901855A196.25,196.25,0,0,0,193.49979846148636,-32.73973877971786Z"><title>Pakistan</title></path><path fill="rgb(248, 142, 83)" display="" d="M285.3638839587887,63.64427984473552A292.375,292.375,0,0,1,224.35232489326472,187.48113222398408L150.8019528879287,125.58994189498988A196.25,196.25,0,0,0,191.47211296343056,43.040590810527775Z"><title>India</title></path><path fill="rgb(248, 142, 83)" display="" d="M223.06461861121085,189.01141909640023A292.375,292.375,0,0,1,177.2097275904397,232.55075375565258L119.20929278001682,155.8948588468787A196.25,196.25,0,0,0,149.5142466058748,127.12022876740606Z"><title>Japan</title></path><path fill="rgb(248, 142, 83)" display="" d="M175.61482730001424,233.75750909304747A292.375,292.375,0,0,1,136.17670596919677,258.7258111908801L91.69629234057695,173.5103814501929A196.25,196.25,0,0,0,117.61439248959138,157.1016141842736Z"><title>Indonesia</title></path><path fill="rgb(158, 1, 66)" display="" d="M134.40371624930768,259.651269366001A292.375,292.375,0,0,1,56.28790243023633,286.9055814462385L38.10453208121636,192.51521273621873A196.25,196.25,0,0,0,89.9233026206879,174.43583962531375Z"><title>Nigeria</title></path><path fill="rgb(158, 1, 66)" display="" d="M54.324019200536405,287.283904113857A292.375,292.375,0,0,1,-17.76834706834848,291.83458751056L-11.598411187620052,195.90696607809252A196.25,196.25,0,0,0,36.1406488515165,192.89353540383715Z"><title>Egypt</title></path><path fill="rgb(158, 1, 66)" display="" d="M-19.76421433288887,291.70621600645336A292.375,292.375,0,0,1,-59.69349954308498,286.2163984423319L-39.745984489157216,192.18303571592284A196.25,196.25,0,0,0,-13.594278452160378,195.77859457398586Z"><title>Democratic Republic of the Congo</title></path><path fill="rgb(158, 1, 66)" display="" d="M-61.649954916810856,285.80137103197245A292.375,292.375,0,0,1,-89.35439394204603,278.38630158154274L-59.66395522158163,186.96062405575432A196.25,196.25,0,0,0,-41.702439862883026,191.7680083055634Z"><title>Somalia</title></path><path fill="rgb(158, 1, 66)" display="" d="M-91.25659389433619,277.7685631885009A292.375,292.375,0,0,1,-112.81508485094344,269.7330110592221L-75.42111335923192,181.17869124059231A196.25,196.25,0,0,0,-61.566155173871714,186.34288566271252Z"><title>Sudan</title></path><path fill="rgb(158, 1, 66)" display="" d="M-114.65754341939724,268.9549931903645A292.375,292.375,0,0,1,-133.73322025193877,259.9972431123962L-89.47285917596561,174.66731225640885A196.25,196.25,0,0,0,-77.26357192768567,180.4006733717348Z"><title>Angola</title></path><path fill="rgb(158, 1, 66)" display="" d="M-135.50859227865834,259.0763633442008A292.375,292.375,0,0,1,-152.13920501942204,249.67339249719478L-101.83904527161323,167.7583719465777A196.25,196.25,0,0,0,-91.24823120268525,173.7464324882134Z"><title>Tanzania</title></path><path fill="rgb(158, 1, 66)" display="" d="M-153.8435265229654,248.62684885582578A292.375,292.375,0,0,1,-168.8079925732334,238.71950542089178L-113.03988776779588,160.4245812631098A196.25,196.25,0,0,0,-103.54336677515663,166.7118283052087Z"><title>Ivory Coast</title></path><path fill="rgb(158, 1, 66)" display="" d="M-170.43699445791154,237.55919587579393A292.375,292.375,0,0,1,-182.9800589284049,228.0382394677644L-122.56455932426152,153.2709734347948A196.25,196.25,0,0,0,-114.66888965247405,159.2642717180119Z"><title>South Africa</title></path><path fill="rgb(251, 248, 176)" display="" d="M-184.53566446209805,226.78123636344336A292.375,292.375,0,0,1,-230.50998077011937,179.85630205905827L-154.52206273783074,120.98344774077941A196.25,196.25,0,0,0,-124.12016485795476,152.01397033047368Z"><title>Turkey</title></path><path fill="rgb(251, 248, 176)" display="" d="M-231.73488764208452,178.27529967583976A292.375,292.375,0,0,1,-272.35739461319946,106.32304653512301L-182.69382604081517,71.673066256219A196.25,196.25,0,0,0,-155.7469696097959,119.40244535756086Z"><title>Russia</title></path><path fill="rgb(251, 248, 176)" display="" d="M-273.07832108174864,104.45750896978822A292.375,292.375,0,0,1,-284.7613892767115,66.28794613047815L-191.0647300295657,44.81441106083139A196.25,196.25,0,0,0,-183.41475250936438,69.80752869088417Z"><title>United Kingdom</title></path><path fill="rgb(251, 248, 176)" display="" d="M-285.20816701454623,64.33849619941931A292.375,292.375,0,0,1,-288.170832682576,49.403560762669656L-193.3722237738938,33.48500519246107A196.25,196.25,0,0,0,-191.51150776740047,42.864961129772496Z"><title>Germany</title></path><path fill="rgb(251, 248, 176)" display="" d="M-288.50203368065047,47.43118369942731A292.375,292.375,0,0,1,-290.36140253690627,34.25487617552714L-194.85962601642606,23.319276333938173A196.25,196.25,0,0,0,-193.7034247719683,31.512628129218662Z"><title>Spain</title></path><path fill="rgb(251, 248, 176)" display="" d="M-290.5889283049386,32.26786902767605A292.375,292.375,0,0,1,-291.6731476980807,20.24637095613953L-195.7558560800091,13.917877366278413A196.25,196.25,0,0,0,-195.08715178445843,21.33226918608702Z"><title>Ukraine</title></path><path fill="rgb(251, 248, 176)" display="" d="M-291.80481814921086,18.25071861341317A292.375,292.375,0,0,1,-292.3057653785272,6.3624013920357365L-196.19609802832113,4.599306302194138A196.25,196.25,0,0,0,-195.8875265311393,11.922225023551986Z"><title>Italy</title></path><path fill="rgb(251, 248, 176)" display="" d="M-292.34244828300814,4.362746485495894A292.375,292.375,0,0,1,-292.3407251503168,-4.476722415665486L-196.23175248664367,-2.6761569499228566A196.25,196.25,0,0,0,-196.23278093280203,2.599651395654229Z"><title>France</title></path><path fill="rgb(251, 248, 176)" display="" d="M-292.30326263829915,-6.476362868577796A292.375,292.375,0,0,1,-292.04442114599226,-13.899521664514937L-196.04346140884905,-9.001318727670206A196.25,196.25,0,0,0,-196.19428997462603,-4.675797402835233Z"><title>Belarus</title></path><path fill="rgb(137, 207, 165)" display="" d="M-291.9425092800381,-15.896914803661263A292.375,292.375,0,0,1,-285.14591336065104,-64.61384308892406L-191.47003111783027,-43.0498511465151A196.25,196.25,0,0,0,-195.94154954289493,-10.99871186681651Z"><title>Mexico</title></path><path fill="rgb(137, 207, 165)" display="" d="M-284.69725357978734,-66.5628607342432A292.375,292.375,0,0,1,-250.9401356630398,-150.0406242936065L-168.60628314889135,-100.42899871409591A196.25,196.25,0,0,0,-191.02137133696658,-44.99886879183431Z"><title>United States</title></path><path fill="rgb(137, 207, 165)" display="" d="M-249.90791764328537,-151.75366000264012A292.375,292.375,0,0,1,-238.86550111729983,-168.60134341392785L-160.522345005754,-112.90101529150958A196.25,196.25,0,0,0,-167.5740651291369,-102.14203442312956Z"><title>Canada</title></path><path fill="rgb(137, 207, 165)" display="" d="M-237.70660173187153,-170.23134881121462A292.375,292.375,0,0,1,-232.81433261218535,-176.86330075892712L-156.46993343700473,-118.45346103098596A196.25,196.25,0,0,0,-159.36344562032568,-114.53102068879637Z"><title>Cuba</title></path><path fill="rgb(94, 79, 162)" display="" d="M-231.59905920814177,-178.45172007829916A292.375,292.375,0,0,1,-134.14019033934312,-259.7875092469321L-90.33052381608995,-174.2253109255679A196.25,196.25,0,0,0,-155.25466003296108,-120.04188035035804Z"><title>Brazil</title></path><path fill="rgb(94, 79, 162)" display="" d="M-132.3599857625838,-260.6990118775455A292.375,292.375,0,0,1,-94.60724990960473,-276.6452762827184L-63.81393973902905,-185.5851384000981A196.25,196.25,0,0,0,-88.55031923933059,-175.13681355618138Z"><title>Peru</title></path><path fill="rgb(94, 79, 162)" display="" d="M-92.71265536435803,-277.2859609866496A292.375,292.375,0,0,1,-57.93107042079414,-286.5783168784774L-39.20710127970092,-192.29369648858298A196.25,196.25,0,0,0,-61.919345193782284,-186.22582310402933Z"><title>Colombia</title></path><path fill="rgb(94, 79, 162)" display="" d="M-55.969387387526474,-286.96788722863226A292.375,292.375,0,0,1,-31.620199677516737,-290.6601169705847L-21.55114866402306,-195.0630936165557A196.25,196.25,0,0,0,-37.24541824643319,-192.68326683873786Z"><title>Chile</title></path><path fill="rgb(94, 79, 162)" display="" d="M-29.631210826853753,-290.86961334923683A292.375,292.375,0,0,1,-15.76367364696797,-291.9497340607658L-10.909285051993262,-195.94654883323247A196.25,196.25,0,0,0,-19.562159813360015,-195.27258999520788Z"><title>Venezuela</title></path><path fill="rgb(94, 79, 162)" display="" d="M-13.766234204334433,-292.05073432681417A292.375,292.375,0,0,1,-0.9999956725822031,-292.3732898772643L-0.9999956725821328,-196.247452234812A196.25,196.25,0,0,0,-8.911845609359657,-196.04754909928084Z"><title>Argentina</title></path><path fill="rgb(248, 142, 83)" display="" d="M0.999995672581989,-390.4987195992515A390.5,390.5,0,0,1,151.59315240623863,-359.8746533774488L114.05027486129828,-271.38381570952663A294.375,294.375,0,0,0,0.9999956725819598,-294.37330149599984Z"><title>Shanghai</title></path><path fill="rgb(248, 142, 83)" display="" d="M153.43429820257782,-359.0935339644567A390.5,390.5,0,0,1,267.487242749766,-284.50101048349154L201.46350098358292,-214.63713191439615A294.375,294.375,0,0,0,115.89142065763743,-270.6026962965346Z"><title>Beijing</title></path><path fill="rgb(248, 142, 83)" display="" d="M268.94083489256093,-283.127316462563A390.5,390.5,0,0,1,329.8574449031239,-209.00793296423603L248.52830283590345,-157.76667364974602A294.375,294.375,0,0,0,202.91709312637786,-213.26343789346754Z"><title>Tianjin</title></path><path fill="rgb(248, 142, 83)" display="" d="M330.9235736874398,-207.31579384584674A390.5,390.5,0,0,1,367.0371981714885,-133.31896023605748L276.60363586211935,-100.73266229409448A294.375,294.375,0,0,0,249.59443162021932,-156.07453453135673Z"><title>Guangzhou</title></path><path fill="rgb(248, 142, 83)" display="" d="M367.71519068523605,-131.4373939916662A390.5,390.5,0,0,1,384.51756487511005,-68.0917932097218L289.82216950850363,-51.57277078443808A294.375,294.375,0,0,0,277.2816283758669,-98.85109604970323Z"><title>Shenzhen</title></path><path fill="rgb(248, 142, 83)" display="" d="M384.8612606689286,-66.12155500533093A390.5,390.5,0,0,1,381.6374541350734,82.72305362654204L287.74609292837897,62.119454516702596A294.375,294.375,0,0,0,290.1658653023221,-49.60253258004717Z"><title>Karachi</title></path><path fill="rgb(248, 142, 83)" display="" d="M381.20877438821765,84.67656304688431A390.5,390.5,0,0,1,344.3390255500159,184.17623484930277L259.69296236491004,138.62253035902A294.375,294.375,0,0,0,287.31741318152325,64.07296393704488Z"><title>Delhi</title></path><path fill="rgb(248, 142, 83)" display="" d="M343.3912323802337,185.93738603192295A390.5,390.5,0,0,1,299.4326782742196,250.65977176549035L225.88262727793833,188.76885155929725A294.375,294.375,0,0,0,258.74516919512786,140.3836815416402Z"><title>Mumbai</title></path><path fill="rgb(248, 142, 83)" display="" d="M298.14497199216567,252.1900586379065A390.5,390.5,0,0,1,236.41667682925055,310.8012305590403L178.41649516050796,234.1456702133107A294.375,294.375,0,0,0,224.59492099588448,190.2991384317134Z"><title>Tokyo</title></path><path fill="rgb(248, 142, 83)" display="" d="M234.82177653882513,312.0079858964352A390.5,390.5,0,0,1,181.58239302031777,345.71387670299674L137.10217352552957,260.498818883264A294.375,294.375,0,0,0,176.82159487008252,235.35242555070556Z"><title>Jakarta</title></path><path fill="rgb(158, 1, 66)" display="" d="M179.80940330042864,346.63933487811767A390.5,390.5,0,0,1,74.84951992092896,383.2594413287251L56.66622893284721,288.86948458348826A294.375,294.375,0,0,0,135.32918380564047,261.42427705838486Z"><title>Lagos</title></path><path fill="rgb(158, 1, 66)" display="" d="M72.88563669122902,383.63776399634355A390.5,390.5,0,0,1,4.255480458144702,390.47681222586107L3.454099657225453,294.354734666453A294.375,294.375,0,0,0,54.70234570314731,289.2478072511067Z"><title>Cairo</title></path><path fill="rgb(158, 1, 66)" display="" d="M2.2555586165408825,390.4934858039598A390.5,390.5,0,0,1,-24.066628825908012,389.75767776524424L-17.896719873735215,293.83047500686695A294.375,294.375,0,0,0,1.4541778156216805,294.37140824455173Z"><title>Alexandria</title></path><path fill="rgb(158, 1, 66)" display="" d="M-26.062496090448423,389.62930626113763A390.5,390.5,0,0,1,-80.05595915392368,382.205825968084L-60.108531160506644,288.1728736483127A294.375,294.375,0,0,0,-19.89258713827558,293.7021035027603Z"><title>Kinshasa-Brazzaville</title></path><path fill="rgb(158, 1, 66)" display="" d="M-82.01241452764957,381.7907985577245A390.5,390.5,0,0,1,-119.6624477341646,371.71379931644765L-89.97213859699674,280.2885208161098A294.375,294.375,0,0,0,-62.064986534232496,287.75784623795323Z"><title>Mogadishu</title></path><path fill="rgb(158, 1, 66)" display="" d="M-121.56464768645475,371.0960609234058A390.5,390.5,0,0,1,-150.98691889294352,360.12942162952436L-113.59311060643564,271.5754883043646A294.375,294.375,0,0,0,-91.87433854928688,279.670782423068Z"><title>Khartoum-Omdurman</title></path><path fill="rgb(158, 1, 66)" display="" d="M-152.82937746139734,359.35140376066676A390.5,390.5,0,0,1,-178.91427725749188,347.10219157105496L-134.6541093549356,261.7726331357597A294.375,294.375,0,0,0,-115.43556917488942,270.797470435507Z"><title>Luanda</title></path><path fill="rgb(158, 1, 66)" display="" d="M-180.68964928421144,346.18131180285957A390.5,390.5,0,0,1,-203.4856994832431,333.2923943113843L-153.18575926942572,251.377731277155A294.375,294.375,0,0,0,-136.42948138165517,260.8517533675643Z"><title>Dar es Salaam</title></path><path fill="rgb(158, 1, 66)" display="" d="M-205.19002098678644,332.2458506700154A390.5,390.5,0,0,1,-225.73617528690625,318.6431062597136L-169.96831388019154,240.34852381848464A294.375,294.375,0,0,0,-154.89008077296904,250.33118763578608Z"><title>Abidjan</title></path><path fill="rgb(158, 1, 66)" display="" d="M-227.36517717158435,317.4827967146158A390.5,390.5,0,0,1,-244.652310696716,304.3608004831725L-184.23707477475253,229.5938607703661A294.375,294.375,0,0,0,-171.59731576486968,239.18821427338682Z"><title>Greater Johannesburg</title></path><path fill="rgb(251, 248, 176)" display="" d="M-246.2079162304091,303.1037973788515A390.5,390.5,0,0,1,-308.07858556430523,239.95381871663773L-232.09099917968987,181.0812213476958A294.375,294.375,0,0,0,-185.79268030844563,228.33685766604503Z"><title>Istanbul</title></path><path fill="rgb(251, 248, 176)" display="" d="M-309.3034924362704,238.37281633341925A390.5,390.5,0,0,1,-350.2947167973733,172.5800144392392L-263.95771861646995,130.31869937882462A294.375,294.375,0,0,0,-233.315906051655,179.50021896447728Z"><title>Moscow</title></path><path fill="rgb(251, 248, 176)" display="" d="M-351.1740083107302,170.7836815593785A390.5,390.5,0,0,1,-363.8861283267923,141.69380936137347L-274.222951089171,107.04398031158105A294.375,294.375,0,0,0,-264.8370101298268,128.52236649896392Z"><title>Saint Petersburg</title></path><path fill="rgb(251, 248, 176)" display="" d="M-364.60705479534147,139.8282717960387A390.5,390.5,0,0,1,-380.4071092790556,88.20816974607645L-286.7108589690124,66.73472839722274A294.375,294.375,0,0,0,-274.9438775577201,105.17844274624628Z"><title>London</title></path><path fill="rgb(251, 248, 176)" display="" d="M-380.8538870168903,86.25871981501764A390.5,390.5,0,0,1,-384.94142490161227,65.65325121207921L-290.14322973946884,49.73476511807225A294.375,294.375,0,0,0,-287.15763670684714,64.78527846616393Z"><title>Berlin</title></path><path fill="rgb(251, 248, 176)" display="" d="M-385.2726258996868,63.6808741488369A390.5,390.5,0,0,1,-387.84978953169167,45.41795636334249L-292.3484298267105,34.482404249949454A294.375,294.375,0,0,0,-290.4744307375433,47.762388054829934Z"><title>Madrid</title></path><path fill="rgb(251, 248, 176)" display="" d="M-388.07731529972403,43.430949215491424A390.5,390.5,0,0,1,-389.58569325946075,26.706508711274346L-293.6688202703951,20.378042741990626A294.375,294.375,0,0,0,-292.5759555947428,32.495397102098394Z"><title>Kiev</title></path><path fill="rgb(251, 248, 176)" display="" d="M-389.7173637105909,24.71085636854801A390.5,390.5,0,0,1,-390.4146884368088,8.162172063215097L-294.3054405552284,6.399084668364974A294.375,294.375,0,0,0,-293.80049072152525,18.382390399264295Z"><title>Rome</title></path><path fill="rgb(251, 248, 176)" display="" d="M-390.4513713412897,6.1625171566752766A390.5,390.5,0,0,1,-390.44893907132325,-6.314742914646659L-294.3403858732439,-4.514185307434245A294.375,294.375,0,0,0,-294.34212345970934,4.399429761825158Z"><title>Paris</title></path><path fill="rgb(251, 248, 176)" display="" d="M-390.41147655930564,-8.314383367558946A390.5,390.5,0,0,1,-390.042375275342,-18.899616122273102L-294.0418345323725,-14.001434563532307A294.375,294.375,0,0,0,-294.3029233612263,-6.513825760346529Z"><title>Minsk</title></path><path fill="rgb(137, 207, 165)" display="" d="M-389.94046340938786,-20.89700926141949A390.5,390.5,0,0,1,-383.0274857247583,-76.02759485456622L-288.78973508001445,-57.07126717898481A294.375,294.375,0,0,0,-293.93992266641834,-15.998827702678607Z"><title>Mexico City</title></path><path fill="rgb(137, 207, 165)" display="" d="M-382.6330792084035,-77.98831127480317A390.5,390.5,0,0,1,-380.7704241592292,-86.62640524459425L-287.0949507628302,-65.06250741777555A294.375,294.375,0,0,0,-288.3953285636597,-59.03198359922176Z"><title>Ecatepec de Morelos</title></path><path fill="rgb(137, 207, 165)" display="" d="M-380.3217643783656,-88.57542288991338A390.5,390.5,0,0,1,-364.7570419296331,-139.43654600836857L-275.0566970723934,-104.88304925308773A294.375,294.375,0,0,0,-286.64629098196656,-67.01152506309467Z"><title>New York City</title></path><path fill="rgb(137, 207, 165)" display="" d="M-364.0381197567123,-141.3028568854769A390.5,390.5,0,0,1,-354.81561792734584,-163.08319127008693L-267.57735049559005,-122.71512590858612A294.375,294.375,0,0,0,-274.3377748994726,-106.74936013019607Z"><title>Los Angeles</title></path><path fill="rgb(137, 207, 165)" display="" d="M-353.97571748335207,-164.89827601326257A390.5,390.5,0,0,1,-347.1198691417016,-178.879977770146L-261.7859375913805,-134.62824185289594A294.375,294.375,0,0,0,-266.73745005159634,-124.53021065176176Z"><title>Chicago</title></path><path fill="rgb(137, 207, 165)" display="" d="M-346.19916480990975,-180.65544078416505A390.5,390.5,0,0,1,-340.07678599190416,-191.9323569110134L-256.48480079324753,-144.4720996838079A294.375,294.375,0,0,0,-260.8652332595886,-136.40370486691495Z"><title>Houston</title></path><path fill="rgb(137, 207, 165)" display="" d="M-339.08932496893414,-193.6715768823928A390.5,390.5,0,0,1,-334.9866819066021,-200.68426182739137L-252.65318873682472,-151.07285277677929A294.375,294.375,0,0,0,-255.49733977027753,-146.21131965518728Z"><title>Philadelphia</title></path><path fill="rgb(137, 207, 165)" display="" d="M-333.9544638868477,-202.39729753642496A390.5,390.5,0,0,1,-325.24119639768753,-216.12129503082488L-245.31637354481728,-162.716064037389A294.375,294.375,0,0,0,-251.62097071707032,-152.78588848581285Z"><title>Toronto</title></path><path fill="rgb(137, 207, 165)" display="" d="M-324.1300438858866,-217.78421579750275A390.5,390.5,0,0,1,-318.8383372221592,-225.46033956642725L-240.49552303767376,-169.7602545469219A294.375,294.375,0,0,0,-244.20522103301633,-164.37898480406682Z"><title>Montreal</title></path><path fill="rgb(137, 207, 165)" display="" d="M-317.67943783673087,-227.090344963714A390.5,390.5,0,0,1,-310.7468340047466,-236.48817128141206L-234.4027680330936,-178.07858648199036A294.375,294.375,0,0,0,-239.33662365224546,-171.39025994420865Z"><title>Havana</title></path><path fill="rgb(94, 79, 162)" display="" d="M-309.53156060070296,-238.07659060078404A390.5,390.5,0,0,1,-258.1665339960186,-292.98513737813147L-194.80119779117842,-220.70145890800586A294.375,294.375,0,0,0,-233.18749462905,-179.66700580136236Z"><title>São Paulo</title></path><path fill="rgb(94, 79, 162)" display="" d="M-256.662595348058,-294.30352044989036A390.5,390.5,0,0,1,-225.35818475631052,-318.9105494701306L-170.08526267443324,-240.26577793345652A294.375,294.375,0,0,0,-193.29725914321781,-222.01984197976475Z"><title>Rio de Janeiro</title></path><path fill="rgb(94, 79, 162)" display="" d="M-223.7218968158328,-320.06056127727743A390.5,390.5,0,0,1,-209.69176449557798,-329.42315325843606L-158.28190010802794,-248.20048493746395A294.375,294.375,0,0,0,-168.44897473395528,-241.41578974060351Z"><title>Salvador</title></path><path fill="rgb(94, 79, 162)" display="" d="M-208.00184067648402,-330.49279005024385A390.5,390.5,0,0,1,-193.57097215209882,-339.1467657815586L-146.1355158970161,-255.54070442595435A294.375,294.375,0,0,0,-156.59197628893378,-249.27012172927186Z"><title>Brasília</title></path><path fill="rgb(94, 79, 162)" display="" d="M-191.83145931133458,-340.13371079398144A390.5,390.5,0,0,1,-178.86117752658677,-347.1295567562676L-135.05170220970365,-261.56773186932196A294.375,294.375,0,0,0,-144.39600305625163,-256.5276494383773Z"><title>Fortaleza</title></path><path fill="rgb(94, 79, 162)" display="" d="M-177.0809729498275,-348.04105938688105A390.5,390.5,0,0,1,-126.04111688186755,-369.59963048570734L-95.24794110804784,-278.5398900331474A294.375,294.375,0,0,0,-133.27149763294415,-262.47923449993556Z"><title>Lima</title></path><path fill="rgb(94, 79, 162)" display="" d="M-124.14652233662086,-370.2403151896386A390.5,390.5,0,0,1,-77.04453214068027,-382.8242286836397L-58.320644719957436,-288.54001979699194A294.375,294.375,0,0,0,-93.3533465628009,-279.1805747370787Z"><title>Bogotá</title></path><path fill="rgb(94, 79, 162)" display="" d="M-75.08284910741261,-383.2137990337946A390.5,390.5,0,0,1,-41.898705247129925,-388.2457321061162L-31.829698179798143,-292.64912598328897A294.375,294.375,0,0,0,-56.35896168668954,-288.9295901471468Z"><title>Santiago</title></path><path fill="rgb(94, 79, 162)" display="" d="M-39.90971639646697,-388.4552284847683A390.5,390.5,0,0,1,-20.719042344936458,-389.94995997474945L-15.864674936838972,-293.94719375110293A294.375,294.375,0,0,0,-29.840709329134928,-292.8586223619412Z"><title>Caracas</title></path><path fill="rgb(94, 79, 162)" display="" d="M-18.721602902302944,-390.05096024079785A390.5,390.5,0,0,1,-0.9999956725822968,-390.4987195992515L-0.9999956725823226,-294.37330149599984A294.375,294.375,0,0,0,-13.867235494205199,-294.0481940171513Z"><title>Buenos Aires</title></path></g><g id="labels" transform="translate(402.5,402.5)" text-anchor="middle"><text transform="rotate(90) translate(49.0625,0) rotate(180)" style="opacity: 1;"><tspan x="0" y="4" style="font-family: Arial, sans-serif; font-size: 10px; fill: black; font-weight: normal;"/></text><text transform="rotate(-13.781740323304561) translate(147.1875,0) rotate(0)" style="opacity: 1;"><tspan x="0" y="4" style="font-family: Arial, sans-serif; font-size: 10px; fill: black; font-weight: normal;">Asia</tspan></text><text transform="rotate(95.68818789812943) translate(147.1875,0) rotate(180)" style="opacity: 1;"><tspan x="0" y="4" style="font-family: Arial, sans-serif; font-size: 10px; fill: black; font-weight: normal;">Africa</tspan></text><text transform="rotate(155.93034695789171) translate(147.1875,0) rotate(180)" style="opacity: 1;"><tspan x="0" y="4" style="font-family: Arial, sans-serif; font-size: 10px; fill: black; font-weight: normal;">Europe</tspan></text><text transform="rotate(200.16992188702687) translate(147.1875,0) rotate(180)" style="opacity: 1;"><tspan x="0" y="4" style="font-family: Arial, sans-serif; font-size: 10px; fill: black; font-weight: normal;">North America</tspan></text><text transform="rotate(243.7095031505691) translate(147.1875,0) rotate(180)" style="opacity: 1;"><tspan x="0" y="4" style="font-family: Arial, sans-serif; font-size: 10px; fill: black; font-weight: normal;">South America</tspan></text><text transform="rotate(-49.94766017395945) translate(245.3125,0) rotate(0)" style="opacity: 1;"><tspan x="0" y="4" style="font-family: Arial, sans-serif; font-size: 10px; fill: black; font-weight: normal;">China</tspan></text><text transform="rotate(1.2407680412207327) translate(245.3125,0) rotate(0)" style="opacity: 1;"><tspan x="0" y="4" style="font-family: Arial, sans-serif; font-size: 10px; fill: black; font-weight: normal;">Pakistan</tspan></text><text transform="rotate(26.228403679139277) translate(245.3125,0) rotate(0)" style="opacity: 1;"><tspan x="0" y="4" style="font-family: Arial, sans-serif; font-size: 10px; fill: black; font-weight: normal;">India</tspan></text><text transform="rotate(46.48378651478296) translate(245.3125,0) rotate(0)" style="opacity: 1;"><tspan x="0" y="4" style="font-family: Arial, sans-serif; font-size: 10px; fill: black; font-weight: normal;">Japan</tspan></text><text transform="rotate(57.66207072751928) translate(245.3125,0) rotate(0)" style="opacity: 1;"><tspan x="0" y="4" style="font-family: Arial, sans-serif; font-size: 10px; fill: black; font-weight: normal;">Indonesia</tspan></text><text transform="rotate(70.76631346846733) translate(245.3125,0) rotate(0)" style="opacity: 1;"><tspan x="0" y="4" style="font-family: Arial, sans-serif; font-size: 10px; fill: black; font-weight: normal;">Nigeria</tspan></text><text transform="rotate(86.38811303597271) translate(245.3125,0) rotate(0)" style="opacity: 1;"><tspan x="0" y="4" style="font-family: Arial, sans-serif; font-size: 10px; fill: black; font-weight: normal;">Egypt</tspan></text><text transform="rotate(97.82842988238158) translate(245.3125,0) rotate(180)" style="opacity: 1;"><tspan x="0" y="4" style="font-family: Arial, sans-serif; font-size: 10px; fill: black; font-weight: normal;">Democratic Republic of the Congo</tspan></text><text transform="rotate(104.9839590175309) translate(245.3125,0) rotate(180)" style="opacity: 1;"><tspan x="0" y="4" style="font-family: Arial, sans-serif; font-size: 10px; fill: black; font-weight: normal;">Somalia</tspan></text><text transform="rotate(110.44206395651432) translate(245.3125,0) rotate(180)" style="opacity: 1;"><tspan x="0" y="4" style="font-family: Arial, sans-serif; font-size: 10px; fill: black; font-weight: normal;">Sudan</tspan></text><text transform="rotate(115.15428791147619) translate(245.3125,0) rotate(180)" style="opacity: 0;"><tspan x="0" y="4" style="font-family: Arial, sans-serif; font-size: 10px; fill: black; font-weight: normal;">Angola</tspan></text><text transform="rotate(119.48387634326335) translate(245.3125,0) rotate(180)" style="opacity: 1;"><tspan x="0" y="4" style="font-family: Arial, sans-serif; font-size: 10px; fill: black; font-weight: normal;">Tanzania</tspan></text><text transform="rotate(123.50686693727289) translate(245.3125,0) rotate(180)" style="opacity: 0;"><tspan x="0" y="4" style="font-family: Arial, sans-serif; font-size: 10px; fill: black; font-weight: normal;">Ivory Coast</tspan></text><text transform="rotate(127.20073114975563) translate(245.3125,0) rotate(180)" style="opacity: 0;"><tspan x="0" y="4" style="font-family: Arial, sans-serif; font-size: 10px; fill: black; font-weight: normal;">South Africa</tspan></text><text transform="rotate(135.58627489268855) translate(245.3125,0) rotate(180)" style="opacity: 1;"><tspan x="0" y="4" style="font-family: Arial, sans-serif; font-size: 10px; fill: black; font-weight: normal;">Turkey</tspan></text><text transform="rotate(150.55197499014616) translate(245.3125,0) rotate(180)" style="opacity: 1;"><tspan x="0" y="4" style="font-family: Arial, sans-serif; font-size: 10px; fill: black; font-weight: normal;">Russia</tspan></text><text transform="rotate(162.98152194118876) translate(245.3125,0) rotate(180)" style="opacity: 1;"><tspan x="0" y="4" style="font-family: Arial, sans-serif; font-size: 10px; fill: black; font-weight: normal;">United Kingdom</tspan></text><text transform="rotate(168.7798125821597) translate(245.3125,0) rotate(180)" style="opacity: 0;"><tspan x="0" y="4" style="font-family: Arial, sans-serif; font-size: 10px; fill: black; font-weight: normal;">Germany</tspan></text><text transform="rotate(171.9677671423804) translate(245.3125,0) rotate(180)" style="opacity: 1;"><tspan x="0" y="4" style="font-family: Arial, sans-serif; font-size: 10px; fill: black; font-weight: normal;">Spain</tspan></text><text transform="rotate(174.84643461794656) translate(245.3125,0) rotate(180)" style="opacity: 0;"><tspan x="0" y="4" style="font-family: Arial, sans-serif; font-size: 10px; fill: black; font-weight: normal;">Ukraine</tspan></text><text transform="rotate(177.587110794336) translate(245.3125,0) rotate(180)" style="opacity: 1;"><tspan x="0" y="4" style="font-family: Arial, sans-serif; font-size: 10px; fill: black; font-weight: normal;">Italy</tspan></text><text transform="rotate(180.01116902277812) translate(245.3125,0) rotate(180)" style="opacity: 0;"><tspan x="0" y="4" style="font-family: Arial, sans-serif; font-size: 10px; fill: black; font-weight: normal;">France</tspan></text><text transform="rotate(181.9970634003285) translate(245.3125,0) rotate(180)" style="opacity: 1;"><tspan x="0" y="4" style="font-family: Arial, sans-serif; font-size: 10px; fill: black; font-weight: normal;">Belarus</tspan></text><text transform="rotate(187.94218549915274) translate(245.3125,0) rotate(180)" style="opacity: 1;"><tspan x="0" y="4" style="font-family: Arial, sans-serif; font-size: 10px; fill: black; font-weight: normal;">Mexico</tspan></text><text transform="rotate(202.0176472618624) translate(245.3125,0) rotate(180)" style="opacity: 1;"><tspan x="0" y="4" style="font-family: Arial, sans-serif; font-size: 10px; fill: black; font-weight: normal;">United States</tspan></text><text transform="rotate(213.24189176994702) translate(245.3125,0) rotate(180)" style="opacity: 1;"><tspan x="0" y="4" style="font-family: Arial, sans-serif; font-size: 10px; fill: black; font-weight: normal;">Canada</tspan></text><text transform="rotate(216.41551442134892) translate(245.3125,0) rotate(180)" style="opacity: 0;"><tspan x="0" y="4" style="font-family: Arial, sans-serif; font-size: 10px; fill: black; font-weight: normal;">Cuba</tspan></text><text transform="rotate(230.1527968734855) translate(245.3125,0) rotate(180)" style="opacity: 1;"><tspan x="0" y="4" style="font-family: Arial, sans-serif; font-size: 10px; fill: black; font-weight: normal;">Brazil</tspan></text><text transform="rotate(247.10143673099952) translate(245.3125,0) rotate(180)" style="opacity: 1;"><tspan x="0" y="4" style="font-family: Arial, sans-serif; font-size: 10px; fill: black; font-weight: normal;">Peru</tspan></text><text transform="rotate(255.042031191141) translate(245.3125,0) rotate(180)" style="opacity: 1;"><tspan x="0" y="4" style="font-family: Arial, sans-serif; font-size: 10px; fill: black; font-weight: normal;">Colombia</tspan></text><text transform="rotate(261.37754569104806) translate(245.3125,0) rotate(180)" style="opacity: 1;"><tspan x="0" y="4" style="font-family: Arial, sans-serif; font-size: 10px; fill: black; font-weight: normal;">Chile</tspan></text><text transform="rotate(265.5463133685848) translate(245.3125,0) rotate(180)" style="opacity: 1;"><tspan x="0" y="4" style="font-family: Arial, sans-serif; font-size: 10px; fill: black; font-weight: normal;">Venezuela</tspan></text><text transform="rotate(268.5526558605943) translate(245.3125,0) rotate(180)" style="opacity: 0;"><tspan x="0" y="4" style="font-family: Arial, sans-serif; font-size: 10px; fill: black; font-weight: normal;">Argentina</tspan></text><text transform="rotate(-78.50528217711992) translate(343.4375,0) rotate(0)" style="opacity: 1;"><tspan x="0" y="4" style="font-family: Arial, sans-serif; font-size: 10px; fill: black; font-weight: normal;">Shanghai</tspan></text><text transform="rotate(-56.8146461508046) translate(343.4375,0) rotate(0)" style="opacity: 1;"><tspan x="0" y="4" style="font-family: Arial, sans-serif; font-size: 10px; fill: black; font-weight: normal;">Beijing</tspan></text><text transform="rotate(-39.41581120205352) translate(343.4375,0) rotate(0)" style="opacity: 1;"><tspan x="0" y="4" style="font-family: Arial, sans-serif; font-size: 10px; fill: black; font-weight: normal;">Tianjin</tspan></text><text transform="rotate(-26.01435810890191) translate(343.4375,0) rotate(0)" style="opacity: 1;"><tspan x="0" y="4" style="font-family: Arial, sans-serif; font-size: 10px; fill: black; font-weight: normal;">Guangzhou</tspan></text><text transform="rotate(-14.8555710544925) translate(343.4375,0) rotate(0)" style="opacity: 1;"><tspan x="0" y="4" style="font-family: Arial, sans-serif; font-size: 10px; fill: black; font-weight: normal;">Shenzhen</tspan></text><text transform="rotate(1.2407680412207327) translate(343.4375,0) rotate(0)" style="opacity: 1;"><tspan x="0" y="4" style="font-family: Arial, sans-serif; font-size: 10px; fill: black; font-weight: normal;">Karachi</tspan></text><text transform="rotate(20.332260466431038) translate(343.4375,0) rotate(0)" style="opacity: 1;"><tspan x="0" y="4" style="font-family: Arial, sans-serif; font-size: 10px; fill: black; font-weight: normal;">Delhi</tspan></text><text transform="rotate(34.18380771520998) translate(343.4375,0) rotate(0)" style="opacity: 1;"><tspan x="0" y="4" style="font-family: Arial, sans-serif; font-size: 10px; fill: black; font-weight: normal;">Mumbai</tspan></text><text transform="rotate(46.48378651478296) translate(343.4375,0) rotate(0)" style="opacity: 1;"><tspan x="0" y="4" style="font-family: Arial, sans-serif; font-size: 10px; fill: black; font-weight: normal;">Tokyo</tspan></text><text transform="rotate(57.66207072751928) translate(343.4375,0) rotate(0)" style="opacity: 1;"><tspan x="0" y="4" style="font-family: Arial, sans-serif; font-size: 10px; fill: black; font-weight: normal;">Jakarta</tspan></text><text transform="rotate(70.76631346846733) translate(343.4375,0) rotate(0)" style="opacity: 1;"><tspan x="0" y="4" style="font-family: Arial, sans-serif; font-size: 10px; fill: black; font-weight: normal;">Lagos</tspan></text><text transform="rotate(84.3092185779661) translate(343.4375,0) rotate(0)" style="opacity: 1;"><tspan x="0" y="4" style="font-family: Arial, sans-serif; font-size: 10px; fill: black; font-weight: normal;">Cairo</tspan></text><text transform="rotate(91.60122403039506) translate(343.4375,0) rotate(180)" style="opacity: 1;"><tspan x="0" y="4" style="font-family: Arial, sans-serif; font-size: 10px; fill: black; font-weight: normal;">Alexandria</tspan></text><text transform="rotate(97.82842988238158) translate(343.4375,0) rotate(180)" style="opacity: 0;"><tspan x="0" y="4" style="font-family: Arial, sans-serif; font-size: 10px; fill: black; font-weight: normal;">Kinshasa-Brazzaville</tspan></text><text transform="rotate(104.9839590175309) translate(343.4375,0) rotate(180)" style="opacity: 1;"><tspan x="0" y="4" style="font-family: Arial, sans-serif; font-size: 10px; fill: black; font-weight: normal;">Mogadishu</tspan></text><text transform="rotate(110.44206395651432) translate(343.4375,0) rotate(180)" style="opacity: 0;"><tspan x="0" y="4" style="font-family: Arial, sans-serif; font-size: 10px; fill: black; font-weight: normal;">Khartoum-Omdurman</tspan></text><text transform="rotate(115.15428791147619) translate(343.4375,0) rotate(180)" style="opacity: 1;"><tspan x="0" y="4" style="font-family: Arial, sans-serif; font-size: 10px; fill: black; font-weight: normal;">Luanda</tspan></text><text transform="rotate(119.48387634326335) translate(343.4375,0) rotate(180)" style="opacity: 0;"><tspan x="0" y="4" style="font-family: Arial, sans-serif; font-size: 10px; fill: black; font-weight: normal;">Dar es Salaam</tspan></text><text transform="rotate(123.50686693727289) translate(343.4375,0) rotate(180)" style="opacity: 1;"><tspan x="0" y="4" style="font-family: Arial, sans-serif; font-size: 10px; fill: black; font-weight: normal;">Abidjan</tspan></text><text transform="rotate(127.20073114975563) translate(343.4375,0) rotate(180)" style="opacity: 0;"><tspan x="0" y="4" style="font-family: Arial, sans-serif; font-size: 10px; fill: black; font-weight: normal;">Greater Johannesburg</tspan></text><text transform="rotate(135.58627489268855) translate(343.4375,0) rotate(180)" style="opacity: 1;"><tspan x="0" y="4" style="font-family: Arial, sans-serif; font-size: 10px; fill: black; font-weight: normal;">Istanbul</tspan></text><text transform="rotate(148.07564538443367) translate(343.4375,0) rotate(180)" style="opacity: 1;"><tspan x="0" y="4" style="font-family: Arial, sans-serif; font-size: 10px; fill: black; font-weight: normal;">Moscow</tspan></text><text transform="rotate(156.3949270320708) translate(343.4375,0) rotate(180)" style="opacity: 1;"><tspan x="0" y="4" style="font-family: Arial, sans-serif; font-size: 10px; fill: black; font-weight: normal;">Saint Petersburg</tspan></text><text transform="rotate(162.98152194118876) translate(343.4375,0) rotate(180)" style="opacity: 1;"><tspan x="0" y="4" style="font-family: Arial, sans-serif; font-size: 10px; fill: black; font-weight: normal;">London</tspan></text><text transform="rotate(168.7798125821597) translate(343.4375,0) rotate(180)" style="opacity: 1;"><tspan x="0" y="4" style="font-family: Arial, sans-serif; font-size: 10px; fill: black; font-weight: normal;">Berlin</tspan></text><text transform="rotate(171.9677671423804) translate(343.4375,0) rotate(180)" style="opacity: 1;"><tspan x="0" y="4" style="font-family: Arial, sans-serif; font-size: 10px; fill: black; font-weight: normal;">Madrid</tspan></text><text transform="rotate(174.84643461794656) translate(343.4375,0) rotate(180)" style="opacity: 1;"><tspan x="0" y="4" style="font-family: Arial, sans-serif; font-size: 10px; fill: black; font-weight: normal;">Kiev</tspan></text><text transform="rotate(177.587110794336) translate(343.4375,0) rotate(180)" style="opacity: 1;"><tspan x="0" y="4" style="font-family: Arial, sans-serif; font-size: 10px; fill: black; font-weight: normal;">Rome</tspan></text><text transform="rotate(180.01116902277812) translate(343.4375,0) rotate(180)" style="opacity: 1;"><tspan x="0" y="4" style="font-family: Arial, sans-serif; font-size: 10px; fill: black; font-weight: normal;">Paris</tspan></text><text transform="rotate(181.9970634003285) translate(343.4375,0) rotate(180)" style="opacity: 1;"><tspan x="0" y="4" style="font-family: Arial, sans-serif; font-size: 10px; fill: black; font-weight: normal;">Minsk</tspan></text><text transform="rotate(187.14717398866276) translate(343.4375,0) rotate(180)" style="opacity: 1;"><tspan x="0" y="4" style="font-family: Arial, sans-serif; font-size: 10px; fill: black; font-weight: normal;">Mexico City</tspan></text><text transform="rotate(192.1685220149002) translate(343.4375,0) rotate(180)" style="opacity: 1;"><tspan x="0" y="4" style="font-family: Arial, sans-serif; font-size: 10px; fill: black; font-weight: normal;">Ecatepec de Morelos</tspan></text><text transform="rotate(197.01536611445152) translate(343.4375,0) rotate(180)" style="opacity: 0;"><tspan x="0" y="4" style="font-family: Arial, sans-serif; font-size: 10px; fill: black; font-weight: normal;">New York City</tspan></text><text transform="rotate(202.94937913582442) translate(343.4375,0) rotate(180)" style="opacity: 1;"><tspan x="0" y="4" style="font-family: Arial, sans-serif; font-size: 10px; fill: black; font-weight: normal;">Los Angeles</tspan></text><text transform="rotate(206.1207613010177) translate(343.4375,0) rotate(180)" style="opacity: 0;"><tspan x="0" y="4" style="font-family: Arial, sans-serif; font-size: 10px; fill: black; font-weight: normal;">Chicago</tspan></text><text transform="rotate(208.49808871157018) translate(343.4375,0) rotate(180)" style="opacity: 1;"><tspan x="0" y="4" style="font-family: Arial, sans-serif; font-size: 10px; fill: black; font-weight: normal;">Houston</tspan></text><text transform="rotate(210.32898769378778) translate(343.4375,0) rotate(180)" style="opacity: 0;"><tspan x="0" y="4" style="font-family: Arial, sans-serif; font-size: 10px; fill: black; font-weight: normal;">Philadelphia</tspan></text><text transform="rotate(212.41117085193991) translate(343.4375,0) rotate(180)" style="opacity: 0;"><tspan x="0" y="4" style="font-family: Arial, sans-serif; font-size: 10px; fill: black; font-weight: normal;">Toronto</tspan></text><text transform="rotate(214.5813016235524) translate(343.4375,0) rotate(180)" style="opacity: 1;"><tspan x="0" y="4" style="font-family: Arial, sans-serif; font-size: 10px; fill: black; font-weight: normal;">Montreal</tspan></text><text transform="rotate(216.41551442134892) translate(343.4375,0) rotate(180)" style="opacity: 0;"><tspan x="0" y="4" style="font-family: Arial, sans-serif; font-size: 10px; fill: black; font-weight: normal;">Havana</tspan></text><text transform="rotate(223.09027255755342) translate(343.4375,0) rotate(180)" style="opacity: 1;"><tspan x="0" y="4" style="font-family: Arial, sans-serif; font-size: 10px; fill: black; font-weight: normal;">São Paulo</tspan></text><text transform="rotate(231.83065946417463) translate(343.4375,0) rotate(180)" style="opacity: 0;"><tspan x="0" y="4" style="font-family: Arial, sans-serif; font-size: 10px; fill: black; font-weight: normal;">Rio de Janeiro</tspan></text><text transform="rotate(236.28401343456648) translate(343.4375,0) rotate(180)" style="opacity: 1;"><tspan x="0" y="4" style="font-family: Arial, sans-serif; font-size: 10px; fill: black; font-weight: normal;">Salvador</tspan></text><text transform="rotate(239.04951503216995) translate(343.4375,0) rotate(180)" style="opacity: 0;"><tspan x="0" y="4" style="font-family: Arial, sans-serif; font-size: 10px; fill: black; font-weight: normal;">Brasília</tspan></text><text transform="rotate(241.65868537771007) translate(343.4375,0) rotate(180)" style="opacity: 0;"><tspan x="0" y="4" style="font-family: Arial, sans-serif; font-size: 10px; fill: black; font-weight: normal;">Fortaleza</tspan></text><text transform="rotate(247.10143673099952) translate(343.4375,0) rotate(180)" style="opacity: 1;"><tspan x="0" y="4" style="font-family: Arial, sans-serif; font-size: 10px; fill: black; font-weight: normal;">Lima</tspan></text><text transform="rotate(255.042031191141) translate(343.4375,0) rotate(180)" style="opacity: 1;"><tspan x="0" y="4" style="font-family: Arial, sans-serif; font-size: 10px; fill: black; font-weight: normal;">Bogotá</tspan></text><text transform="rotate(261.37754569104806) translate(343.4375,0) rotate(180)" style="opacity: 1;"><tspan x="0" y="4" style="font-family: Arial, sans-serif; font-size: 10px; fill: black; font-weight: normal;">Santiago</tspan></text><text transform="rotate(265.5463133685848) translate(343.4375,0) rotate(180)" style="opacity: 1;"><tspan x="0" y="4" style="font-family: Arial, sans-serif; font-size: 10px; fill: black; font-weight: normal;">Caracas</tspan></text><text transform="rotate(268.5526558605943) translate(343.4375,0) rotate(180)" style="opacity: 1;"><tspan x="0" y="4" style="font-family: Arial, sans-serif; font-size: 10px; fill: black; font-weight: normal;">Buenos Aires</tspan></text></g></svg>