<svg xmlns="http://www.w3.org/2000/svg" width="600" height="600"><rect width="600" height="600" x="0" y="0" fill="#FFFFFF" id="backgorund"/><g transform="translate(300,300)" id="viz"><g id="links"><path d="M0,0C-22.89784510752882,6.3048544338167325,-22.89784510752882,6.3048544338167325,-45.79569021505764,12.609708867633465" fill="none" stroke="#ccc"/><path d="M-45.79569021505764,12.609708867633465C-68.69353532258646,18.914563301450197,31.292756955375136,64.01035745980349,41.72367594050018,85.34714327973799" fill="none" stroke="#ccc"/><path d="M-45.79569021505764,12.609708867633465C-68.69353532258646,18.914563301450197,-43.76265577913879,-56.22626129449307,-58.35020770551839,-74.96834839265743" fill="none" stroke="#ccc"/><path d="M-45.79569021505764,12.609708867633465C-68.69353532258646,18.914563301450197,-5.883778364903708,-71.00664512672523,-7.84503781987161,-94.67552683563363" fill="none" stroke="#ccc"/><path d="M41.72367594050018,85.34714327973799C52.154594925625226,106.68392909967248,72.93775963189805,-93.71043549082175,87.52531155827765,-112.4525225889861" fill="none" stroke="#ccc"/><path d="M41.72367594050018,85.34714327973799C52.154594925625226,106.68392909967248,117.13040477907329,19.545607595837126,140.55648573488796,23.454729115004554" fill="none" stroke="#ccc"/><path d="M41.72367594050018,85.34714327973799C52.154594925625226,106.68392909967248,64.95009377703822,99.41351929367525,77.94011253244587,119.2962231524103" fill="none" stroke="#ccc"/><path d="M41.72367594050018,85.34714327973799C52.154594925625226,106.68392909967248,-19.545607595837144,117.13040477907329,-23.45472911500457,140.55648573488796" fill="none" stroke="#ccc"/><path d="M41.72367594050018,85.34714327973799C52.154594925625226,106.68392909967248,-72.93775963189802,93.71043549082178,-87.52531155827762,112.45252258898613" fill="none" stroke="#ccc"/><path d="M41.72367594050018,85.34714327973799C52.154594925625226,106.68392909967248,-99.41351929367526,64.95009377703818,-119.29622315241032,77.94011253244582" fill="none" stroke="#ccc"/><path d="M41.72367594050018,85.34714327973799C52.154594925625226,106.68392909967248,-112.31579745195036,38.55806196805618,-134.77895694234044,46.26967436166741" fill="none" stroke="#ccc"/><path d="M41.72367594050018,85.34714327973799C52.154594925625226,106.68392909967248,-117.13040477907329,19.545607595837115,-140.55648573488796,23.454729115004536" fill="none" stroke="#ccc"/><path d="M41.72367594050018,85.34714327973799C52.154594925625226,106.68392909967248,-118.75,-9.092850659951505e-14,-142.5,-1.0911420791941806e-13" fill="none" stroke="#ccc"/><path d="M-58.35020770551839,-74.96834839265743C-72.93775963189799,-93.7104354908218,-104.43750795577056,-56.518752923152526,-125.32500954692466,-67.82250350778303" fill="none" stroke="#ccc"/><path d="M-58.35020770551839,-74.96834839265743C-72.93775963189799,-93.7104354908218,-56.51875292315246,-104.43750795577058,-67.82250350778295,-125.3250095469247" fill="none" stroke="#ccc"/><path d="M-58.35020770551839,-74.96834839265743C-72.93775963189799,-93.7104354908218,-29.151401597969897,-115.11628158029548,-34.981681917563876,-138.13953789635457" fill="none" stroke="#ccc"/><path d="M-7.84503781987161,-94.67552683563363C-9.806297274839514,-118.34440854454205,-9.806297274839514,-118.34440854454205,-11.767556729807415,-142.01329025345046" fill="none" stroke="#ccc"/><path d="M87.52531155827765,-112.4525225889861C102.11286348465725,-131.19460968715046,13.72881618477526,-165.68217196235886,15.690075639743155,-189.35105367126727" fill="none" stroke="#ccc"/><path d="M87.52531155827765,-112.4525225889861C102.11286348465725,-131.19460968715046,40.81196223715791,-161.16279421241367,46.642242556751896,-184.18605052847278" fill="none" stroke="#ccc"/><path d="M87.52531155827765,-112.4525225889861C102.11286348465725,-131.19460968715046,66.78186434855623,-152.24731555640327,76.32213068406425,-173.99693206446088" fill="none" stroke="#ccc"/><path d="M87.52531155827765,-112.4525225889861C102.11286348465725,-131.19460968715046,90.93013128785353,-139.17892701114533,103.92015004326117,-159.0616308698804" fill="none" stroke="#ccc"/><path d="M87.52531155827765,-112.4525225889861C102.11286348465725,-131.19460968715046,112.59806128277944,-122.31410014940816,128.6834986088908,-139.78754302789505" fill="none" stroke="#ccc"/><path d="M87.52531155827765,-112.4525225889861C102.11286348465725,-131.19460968715046,131.19460968715043,-102.11286348465727,149.93669678531478,-116.70041541103689" fill="none" stroke="#ccc"/><path d="M87.52531155827765,-112.4525225889861C102.11286348465725,-131.19460968715046,146.2125111380788,-79.12625409241348,167.10001272923293,-90.43000467704398" fill="none" stroke="#ccc"/><path d="M87.52531155827765,-112.4525225889861C102.11286348465725,-131.19460968715046,157.2421164327305,-53.98128675527867,179.70527592312058,-61.69289914888991" fill="none" stroke="#ccc"/><path d="M140.55648573488796,23.454729115004554C163.9825666907026,27.36385063417198,163.98256669070258,-27.363850634172014,187.40864764651724,-31.272972153339445" fill="none" stroke="#ccc"/><path d="M140.55648573488796,23.454729115004554C163.9825666907026,27.36385063417198,166.25,0,190,0" fill="none" stroke="#ccc"/><path d="M140.55648573488796,23.454729115004554C163.9825666907026,27.36385063417198,163.9825666907026,27.36385063417198,187.40864764651727,31.272972153339403" fill="none" stroke="#ccc"/><path d="M140.55648573488796,23.454729115004554C163.9825666907026,27.36385063417198,157.24211643273054,53.981286755278596,179.7052759231206,61.69289914888982" fill="none" stroke="#ccc"/><path d="M140.55648573488796,23.454729115004554C163.9825666907026,27.36385063417198,146.2125111380788,79.12625409241348,167.10001272923293,90.43000467704398" fill="none" stroke="#ccc"/><path d="M77.94011253244587,119.2962231524103C90.93013128785351,139.17892701114536,131.19460968715043,102.11286348465727,149.93669678531478,116.70041541103689" fill="none" stroke="#ccc"/><path d="M77.94011253244587,119.2962231524103C90.93013128785351,139.17892701114536,112.59806128277944,122.31410014940815,128.6834986088908,139.78754302789503" fill="none" stroke="#ccc"/><path d="M77.94011253244587,119.2962231524103C90.93013128785351,139.17892701114536,90.93013128785346,139.1789270111454,103.92015004326109,159.06163086988045" fill="none" stroke="#ccc"/><path d="M77.94011253244587,119.2962231524103C90.93013128785351,139.17892701114536,66.78186434855616,152.24731555640332,76.32213068406418,173.99693206446094" fill="none" stroke="#ccc"/><path d="M77.94011253244587,119.2962231524103C90.93013128785351,139.17892701114536,40.81196223715791,161.16279421241367,46.642242556751896,184.18605052847278" fill="none" stroke="#ccc"/><path d="M-23.45472911500457,140.55648573488796C-27.363850634172,163.9825666907026,13.728816184775297,165.68217196235886,15.690075639743197,189.35105367126727" fill="none" stroke="#ccc"/><path d="M-23.45472911500457,140.55648573488796C-27.363850634172,163.9825666907026,-13.728816184775276,165.68217196235886,-15.690075639743172,189.35105367126727" fill="none" stroke="#ccc"/><path d="M-23.45472911500457,140.55648573488796C-27.363850634172,163.9825666907026,-40.811962237157815,161.1627942124137,-46.64224255675179,184.1860505284728" fill="none" stroke="#ccc"/><path d="M-23.45472911500457,140.55648573488796C-27.363850634172,163.9825666907026,-66.78186434855607,152.24731555640335,-76.32213068406408,173.99693206446096" fill="none" stroke="#ccc"/><path d="M-87.52531155827762,112.45252258898613C-102.11286348465723,131.1946096871505,-90.93013128785344,139.1789270111454,-103.92015004326107,159.06163086988045" fill="none" stroke="#ccc"/><path d="M-87.52531155827762,112.45252258898613C-102.11286348465723,131.1946096871505,-112.59806128277943,122.31410014940815,-128.68349860889077,139.78754302789503" fill="none" stroke="#ccc"/><path d="M-119.29622315241032,77.94011253244582C-139.17892701114536,90.93013128785346,-131.1946096871504,102.1128634846573,-149.93669678531475,116.7004154110369" fill="none" stroke="#ccc"/><path d="M-119.29622315241032,77.94011253244582C-139.17892701114536,90.93013128785346,-146.21251113807884,79.12625409241343,-167.10001272923296,90.43000467704393" fill="none" stroke="#ccc"/><path d="M-134.77895694234044,46.26967436166741C-157.2421164327305,53.98128675527865,-157.2421164327305,53.98128675527865,-179.70527592312058,61.692899148889886" fill="none" stroke="#ccc"/><path d="M-140.55648573488796,23.454729115004536C-163.9825666907026,27.36385063417196,-163.9825666907026,27.36385063417196,-187.40864764651727,31.27297215333938" fill="none" stroke="#ccc"/><path d="M-142.5,-1.0911420791941806e-13C-166.25,-1.2729990923932107e-13,-166.25,-1.2729990923932107e-13,-190,-1.454856105592241e-13" fill="none" stroke="#ccc"/><path d="M-125.32500954692466,-67.82250350778303C-146.21251113807878,-79.12625409241353,-163.98256669070258,-27.363850634172064,-187.40864764651724,-31.272972153339502" fill="none" stroke="#ccc"/><path d="M-125.32500954692466,-67.82250350778303C-146.21251113807878,-79.12625409241353,-157.24211643273048,-53.98128675527875,-179.70527592312055,-61.69289914889001" fill="none" stroke="#ccc"/><path d="M-125.32500954692466,-67.82250350778303C-146.21251113807878,-79.12625409241353,-146.21251113807878,-79.12625409241353,-167.10001272923287,-90.43000467704404" fill="none" stroke="#ccc"/><path d="M-125.32500954692466,-67.82250350778303C-146.21251113807878,-79.12625409241353,-131.19460968715035,-102.11286348465738,-149.9366967853147,-116.70041541103701" fill="none" stroke="#ccc"/><path d="M-125.32500954692466,-67.82250350778303C-146.21251113807878,-79.12625409241353,-112.5980612827794,-122.31410014940818,-128.68349860889074,-139.78754302789505" fill="none" stroke="#ccc"/><path d="M-67.82250350778295,-125.3250095469247C-79.12625409241345,-146.21251113807884,-90.93013128785347,-139.17892701114536,-103.92015004326112,-159.06163086988042" fill="none" stroke="#ccc"/><path d="M-67.82250350778295,-125.3250095469247C-79.12625409241345,-146.21251113807884,-66.7818643485561,-152.24731555640332,-76.32213068406412,-173.99693206446094" fill="none" stroke="#ccc"/><path d="M-34.981681917563876,-138.13953789635457C-40.81196223715786,-161.16279421241367,-40.81196223715786,-161.16279421241367,-46.64224255675183,-184.18605052847278" fill="none" stroke="#ccc"/><path d="M-11.767556729807415,-142.01329025345046C-13.728816184775319,-165.68217196235886,-13.728816184775319,-165.68217196235886,-15.69007563974322,-189.35105367126727" fill="none" stroke="#ccc"/></g><g><circle transform="&#10;&#9;        rotate(164.6052631578947)&#10;&#9;        translate(0,0)&#10;&#9;      " fill="#0e8ee5" r="5"/><circle transform="&#10;&#9;        rotate(164.6052631578947)&#10;&#9;        translate(47.5,0)&#10;&#9;      " fill="#0e8ee5" r="5"/><circle transform="&#10;&#9;        rotate(63.94736842105263)&#10;&#9;        translate(95,0)&#10;&#9;      " fill="#0e8ee5" r="5"/><circle transform="&#10;&#9;        rotate(232.1052631578948)&#10;&#9;        translate(95,0)&#10;&#9;      " fill="#0e8ee5" r="5"/><circle transform="&#10;&#9;        rotate(265.2631578947368)&#10;&#9;        translate(95,0)&#10;&#9;      " fill="#0e8ee5" r="5"/><circle transform="&#10;&#9;        rotate(-52.105263157894754)&#10;&#9;        translate(142.5,0)&#10;&#9;      " fill="#0e8ee5" r="5"/><circle transform="&#10;&#9;        rotate(9.4736842105263)&#10;&#9;        translate(142.5,0)&#10;&#9;      " fill="#0e8ee5" r="5"/><circle transform="&#10;&#9;        rotate(56.84210526315789)&#10;&#9;        translate(142.5,0)&#10;&#9;      " fill="#0e8ee5" r="5"/><circle transform="&#10;&#9;        rotate(99.4736842105263)&#10;&#9;        translate(142.5,0)&#10;&#9;      " fill="#0e8ee5" r="5"/><circle transform="&#10;&#9;        rotate(127.89473684210526)&#10;&#9;        translate(142.5,0)&#10;&#9;      " fill="#0e8ee5" r="5"/><circle transform="&#10;&#9;        rotate(146.84210526315792)&#10;&#9;        translate(142.5,0)&#10;&#9;      " fill="#0e8ee5" r="5"/><circle transform="&#10;&#9;        rotate(161.05263157894737)&#10;&#9;        translate(142.5,0)&#10;&#9;      " fill="#0e8ee5" r="5"/><circle transform="&#10;&#9;        rotate(170.5263157894737)&#10;&#9;        translate(142.5,0)&#10;&#9;      " fill="#0e8ee5" r="5"/><circle transform="&#10;&#9;        rotate(180.00000000000006)&#10;&#9;        translate(142.5,0)&#10;&#9;      " fill="#0e8ee5" r="5"/><circle transform="&#10;&#9;        rotate(208.42105263157896)&#10;&#9;        translate(142.5,0)&#10;&#9;      " fill="#0e8ee5" r="5"/><circle transform="&#10;&#9;        rotate(241.57894736842104)&#10;&#9;        translate(142.5,0)&#10;&#9;      " fill="#0e8ee5" r="5"/><circle transform="&#10;&#9;        rotate(255.78947368421052)&#10;&#9;        translate(142.5,0)&#10;&#9;      " fill="#0e8ee5" r="5"/><circle transform="&#10;&#9;        rotate(265.2631578947368)&#10;&#9;        translate(142.5,0)&#10;&#9;      " fill="#0e8ee5" r="5"/><circle transform="&#10;&#9;        rotate(-85.26315789473684)&#10;&#9;        translate(190,0)&#10;&#9;      " fill="#0e8ee5" r="6"/><circle transform="&#10;&#9;        rotate(-75.78947368421052)&#10;&#9;        translate(190,0)&#10;&#9;      " fill="#0e8ee5" r="6"/><circle transform="&#10;&#9;        rotate(-66.31578947368419)&#10;&#9;        translate(190,0)&#10;&#9;      " fill="#0e8ee5" r="6"/><circle transform="&#10;&#9;        rotate(-56.84210526315787)&#10;&#9;        translate(190,0)&#10;&#9;      " fill="#0e8ee5" r="6"/><circle transform="&#10;&#9;        rotate(-47.36842105263159)&#10;&#9;        translate(190,0)&#10;&#9;      " fill="#0e8ee5" r="6"/><circle transform="&#10;&#9;        rotate(-37.89473684210527)&#10;&#9;        translate(190,0)&#10;&#9;      " fill="#0e8ee5" r="6"/><circle transform="&#10;&#9;        rotate(-28.421052631578952)&#10;&#9;        translate(190,0)&#10;&#9;      " fill="#0e8ee5" r="6"/><circle transform="&#10;&#9;        rotate(-18.947368421052644)&#10;&#9;        translate(190,0)&#10;&#9;      " fill="#0e8ee5" r="6"/><circle transform="&#10;&#9;        rotate(-9.473684210526315)&#10;&#9;        translate(190,0)&#10;&#9;      " fill="#0e8ee5" r="6"/><circle transform="&#10;&#9;        rotate(0)&#10;&#9;        translate(190,0)&#10;&#9;      " fill="#0e8ee5" r="6"/><circle transform="&#10;&#9;        rotate(9.4736842105263)&#10;&#9;        translate(190,0)&#10;&#9;      " fill="#0e8ee5" r="6"/><circle transform="&#10;&#9;        rotate(18.94736842105263)&#10;&#9;        translate(190,0)&#10;&#9;      " fill="#0e8ee5" r="6"/><circle transform="&#10;&#9;        rotate(28.42105263157896)&#10;&#9;        translate(190,0)&#10;&#9;      " fill="#0e8ee5" r="6"/><circle transform="&#10;&#9;        rotate(37.894736842105274)&#10;&#9;        translate(190,0)&#10;&#9;      " fill="#0e8ee5" r="6"/><circle transform="&#10;&#9;        rotate(47.36842105263159)&#10;&#9;        translate(190,0)&#10;&#9;      " fill="#0e8ee5" r="6"/><circle transform="&#10;&#9;        rotate(56.84210526315789)&#10;&#9;        translate(190,0)&#10;&#9;      " fill="#0e8ee5" r="6"/><circle transform="&#10;&#9;        rotate(66.31578947368422)&#10;&#9;        translate(190,0)&#10;&#9;      " fill="#0e8ee5" r="6"/><circle transform="&#10;&#9;        rotate(75.78947368421052)&#10;&#9;        translate(190,0)&#10;&#9;      " fill="#0e8ee5" r="6"/><circle transform="&#10;&#9;        rotate(85.26315789473682)&#10;&#9;        translate(190,0)&#10;&#9;      " fill="#0e8ee5" r="6"/><circle transform="&#10;&#9;        rotate(94.73684210526318)&#10;&#9;        translate(190,0)&#10;&#9;      " fill="#0e8ee5" r="6"/><circle transform="&#10;&#9;        rotate(104.21052631578945)&#10;&#9;        translate(190,0)&#10;&#9;      " fill="#0e8ee5" r="6"/><circle transform="&#10;&#9;        rotate(113.68421052631575)&#10;&#9;        translate(190,0)&#10;&#9;      " fill="#0e8ee5" r="6"/><circle transform="&#10;&#9;        rotate(123.15789473684211)&#10;&#9;        translate(190,0)&#10;&#9;      " fill="#0e8ee5" r="6"/><circle transform="&#10;&#9;        rotate(132.6315789473684)&#10;&#9;        translate(190,0)&#10;&#9;      " fill="#0e8ee5" r="6"/><circle transform="&#10;&#9;        rotate(142.10526315789474)&#10;&#9;        translate(190,0)&#10;&#9;      " fill="#0e8ee5" r="6"/><circle transform="&#10;&#9;        rotate(151.57894736842107)&#10;&#9;        translate(190,0)&#10;&#9;      " fill="#0e8ee5" r="6"/><circle transform="&#10;&#9;        rotate(161.05263157894737)&#10;&#9;        translate(190,0)&#10;&#9;      " fill="#0e8ee5" r="6"/><circle transform="&#10;&#9;        rotate(170.5263157894737)&#10;&#9;        translate(190,0)&#10;&#9;      " fill="#0e8ee5" r="6"/><circle transform="&#10;&#9;        rotate(180.00000000000006)&#10;&#9;        translate(190,0)&#10;&#9;      " fill="#0e8ee5" r="6"/><circle transform="&#10;&#9;        rotate(189.47368421052636)&#10;&#9;        translate(190,0)&#10;&#9;      " fill="#0e8ee5" r="6"/><circle transform="&#10;&#9;        rotate(198.94736842105272)&#10;&#9;        translate(190,0)&#10;&#9;      " fill="#0e8ee5" r="6"/><circle transform="&#10;&#9;        rotate(208.42105263157896)&#10;&#9;        translate(190,0)&#10;&#9;      " fill="#0e8ee5" r="6"/><circle transform="&#10;&#9;        rotate(217.89473684210532)&#10;&#9;        translate(190,0)&#10;&#9;      " fill="#0e8ee5" r="6"/><circle transform="&#10;&#9;        rotate(227.36842105263162)&#10;&#9;        translate(190,0)&#10;&#9;      " fill="#0e8ee5" r="6"/><circle transform="&#10;&#9;        rotate(236.84210526315786)&#10;&#9;        translate(190,0)&#10;&#9;      " fill="#0e8ee5" r="6"/><circle transform="&#10;&#9;        rotate(246.31578947368422)&#10;&#9;        translate(190,0)&#10;&#9;      " fill="#0e8ee5" r="6"/><circle transform="&#10;&#9;        rotate(255.78947368421052)&#10;&#9;        translate(190,0)&#10;&#9;      " fill="#0e8ee5" r="6"/><circle transform="&#10;&#9;        rotate(265.2631578947368)&#10;&#9;        translate(190,0)&#10;&#9;      " fill="#0e8ee5" r="6"/></g><g id="labels"><g transform="&#10;&#9;        rotate(164.6052631578947)&#10;&#9;        translate(0,0)&#10;&#9;        rotate(180)&#10;&#9;      "><text x="0" y="0" text-anchor="middle" dominant-baseline="text-before-edge" transform="translate(0,0)" style="stroke-width: 2px; paint-order: stroke; stroke: white; stroke-linecap: round; stroke-linejoin: round;"><tspan x="6" y="0" dy="0" text-anchor="start" style="font-family: Arial, sans-serif; font-size: 10px; fill: black; font-weight: normal;"/></text></g><g transform="&#10;&#9;        rotate(164.6052631578947)&#10;&#9;        translate(47.5,0)&#10;&#9;        rotate(180)&#10;&#9;      "><text x="0" y="0" text-anchor="middle" dominant-baseline="text-before-edge" transform="translate(0,-5.5)" style="stroke-width: 2px; paint-order: stroke; stroke: white; stroke-linecap: round; stroke-linejoin: round;"><tspan x="6" y="0" dy="0" text-anchor="start" style="font-family: Arial, sans-serif; font-size: 10px; fill: black; font-weight: normal;">Felidae</tspan></text></g><g transform="&#10;&#9;        rotate(63.94736842105263)&#10;&#9;        translate(95,0)&#10;&#9;        rotate(0)&#10;&#9;      "><text x="0" y="0" text-anchor="middle" dominant-baseline="text-before-edge" transform="translate(0,-5.5)" style="stroke-width: 2px; paint-order: stroke; stroke: white; stroke-linecap: round; stroke-linejoin: round;"><tspan x="-6" y="0" dy="0" text-anchor="end" style="font-family: Arial, sans-serif; font-size: 10px; fill: black; font-weight: normal;">Felinae</tspan></text></g><g transform="&#10;&#9;        rotate(232.1052631578948)&#10;&#9;        translate(95,0)&#10;&#9;        rotate(180)&#10;&#9;      "><text x="0" y="0" text-anchor="middle" dominant-baseline="text-before-edge" transform="translate(0,-5.5)" style="stroke-width: 2px; paint-order: stroke; stroke: white; stroke-linecap: round; stroke-linejoin: round;"><tspan x="6" y="0" dy="0" text-anchor="start" style="font-family: Arial, sans-serif; font-size: 10px; fill: black; font-weight: normal;">Pantherinae</tspan></text></g><g transform="&#10;&#9;        rotate(265.2631578947368)&#10;&#9;        translate(95,0)&#10;&#9;        rotate(180)&#10;&#9;      "><text x="0" y="0" text-anchor="middle" dominant-baseline="text-before-edge" transform="translate(0,-5.55224609375)" style="stroke-width: 2px; paint-order: stroke; stroke: white; stroke-linecap: round; stroke-linejoin: round;"><tspan x="6" y="0" dy="0" text-anchor="start" style="font-family: Arial, sans-serif; font-size: 10px; fill: black; font-weight: normal;">Acinonychinae</tspan></text></g><g transform="&#10;&#9;        rotate(-52.105263157894754)&#10;&#9;        translate(142.5,0)&#10;&#9;        rotate(0)&#10;&#9;      "><text x="0" y="0" text-anchor="middle" dominant-baseline="text-before-edge" transform="translate(0,-5.5)" style="stroke-width: 2px; paint-order: stroke; stroke: white; stroke-linecap: round; stroke-linejoin: round;"><tspan x="-6" y="0" dy="0" text-anchor="end" style="font-family: Arial, sans-serif; font-size: 10px; fill: black; font-weight: normal;">Leopardus</tspan></text></g><g transform="&#10;&#9;        rotate(9.4736842105263)&#10;&#9;        translate(142.5,0)&#10;&#9;        rotate(0)&#10;&#9;      "><text x="0" y="0" text-anchor="middle" dominant-baseline="text-before-edge" transform="translate(0,-5.5)" style="stroke-width: 2px; paint-order: stroke; stroke: white; stroke-linecap: round; stroke-linejoin: round;"><tspan x="-6" y="0" dy="0" text-anchor="end" style="font-family: Arial, sans-serif; font-size: 10px; fill: black; font-weight: normal;">Felis</tspan></text></g><g transform="&#10;&#9;        rotate(56.84210526315789)&#10;&#9;        translate(142.5,0)&#10;&#9;        rotate(0)&#10;&#9;      "><text x="0" y="0" text-anchor="middle" dominant-baseline="text-before-edge" transform="translate(0,-5.5)" style="stroke-width: 2px; paint-order: stroke; stroke: white; stroke-linecap: round; stroke-linejoin: round;"><tspan x="-6" y="0" dy="0" text-anchor="end" style="font-family: Arial, sans-serif; font-size: 10px; fill: black; font-weight: normal;">Prionailurus</tspan></text></g><g transform="&#10;&#9;        rotate(99.4736842105263)&#10;&#9;        translate(142.5,0)&#10;&#9;        rotate(180)&#10;&#9;      "><text x="0" y="0" text-anchor="middle" dominant-baseline="text-before-edge" transform="translate(0,-5.55224609375)" style="stroke-width: 2px; paint-order: stroke; stroke: white; stroke-linecap: round; stroke-linejoin: round;"><tspan x="6" y="0" dy="0" text-anchor="start" style="font-family: Arial, sans-serif; font-size: 10px; fill: black; font-weight: normal;">Lynx</tspan></text></g><g transform="&#10;&#9;        rotate(127.89473684210526)&#10;&#9;        translate(142.5,0)&#10;&#9;        rotate(180)&#10;&#9;      "><text x="0" y="0" text-anchor="middle" dominant-baseline="text-before-edge" transform="translate(0,-5.5)" style="stroke-width: 2px; paint-order: stroke; stroke: white; stroke-linecap: round; stroke-linejoin: round;"><tspan x="6" y="0" dy="0" text-anchor="start" style="font-family: Arial, sans-serif; font-size: 10px; fill: black; font-weight: normal;">Catopuma</tspan></text></g><g transform="&#10;&#9;        rotate(146.84210526315792)&#10;&#9;        translate(142.5,0)&#10;&#9;        rotate(180)&#10;&#9;      "><text x="0" y="0" text-anchor="middle" dominant-baseline="text-before-edge" transform="translate(0,-5.5)" style="stroke-width: 2px; paint-order: stroke; stroke: white; stroke-linecap: round; stroke-linejoin: round;"><tspan x="6" y="0" dy="0" text-anchor="start" style="font-family: Arial, sans-serif; font-size: 10px; fill: black; font-weight: normal;">Puma</tspan></text></g><g transform="&#10;&#9;        rotate(161.05263157894737)&#10;&#9;        translate(142.5,0)&#10;&#9;        rotate(180)&#10;&#9;      "><text x="0" y="0" text-anchor="middle" dominant-baseline="text-before-edge" transform="translate(0,-5.5)" style="stroke-width: 2px; paint-order: stroke; stroke: white; stroke-linecap: round; stroke-linejoin: round;"><tspan x="6" y="0" dy="0" text-anchor="start" style="font-family: Arial, sans-serif; font-size: 10px; fill: black; font-weight: normal;">Leptailurus</tspan></text></g><g transform="&#10;&#9;        rotate(170.5263157894737)&#10;&#9;        translate(142.5,0)&#10;&#9;        rotate(180)&#10;&#9;      "><text x="0" y="0" text-anchor="middle" dominant-baseline="text-before-edge" transform="translate(0,-5.5)" style="stroke-width: 2px; paint-order: stroke; stroke: white; stroke-linecap: round; stroke-linejoin: round;"><tspan x="6" y="0" dy="0" text-anchor="start" style="font-family: Arial, sans-serif; font-size: 10px; fill: black; font-weight: normal;">Otocolobus</tspan></text></g><g transform="&#10;&#9;        rotate(180.00000000000006)&#10;&#9;        translate(142.5,0)&#10;&#9;        rotate(180)&#10;&#9;      "><text x="0" y="0" text-anchor="middle" dominant-baseline="text-before-edge" transform="translate(0,-5.5)" style="stroke-width: 2px; paint-order: stroke; stroke: white; stroke-linecap: round; stroke-linejoin: round;"><tspan x="6" y="0" dy="0" text-anchor="start" style="font-family: Arial, sans-serif; font-size: 10px; fill: black; font-weight: normal;">Profelis</tspan></text></g><g transform="&#10;&#9;        rotate(208.42105263157896)&#10;&#9;        translate(142.5,0)&#10;&#9;        rotate(180)&#10;&#9;      "><text x="0" y="0" text-anchor="middle" dominant-baseline="text-before-edge" transform="translate(0,-5.5)" style="stroke-width: 2px; paint-order: stroke; stroke: white; stroke-linecap: round; stroke-linejoin: round;"><tspan x="6" y="0" dy="0" text-anchor="start" style="font-family: Arial, sans-serif; font-size: 10px; fill: black; font-weight: normal;">Panthera</tspan></text></g><g transform="&#10;&#9;        rotate(241.57894736842104)&#10;&#9;        translate(142.5,0)&#10;&#9;        rotate(180)&#10;&#9;      "><text x="0" y="0" text-anchor="middle" dominant-baseline="text-before-edge" transform="translate(0,-5.5)" style="stroke-width: 2px; paint-order: stroke; stroke: white; stroke-linecap: round; stroke-linejoin: round;"><tspan x="6" y="0" dy="0" text-anchor="start" style="font-family: Arial, sans-serif; font-size: 10px; fill: black; font-weight: normal;">Neofelis</tspan></text></g><g transform="&#10;&#9;        rotate(255.78947368421052)&#10;&#9;        translate(142.5,0)&#10;&#9;        rotate(180)&#10;&#9;      "><text x="0" y="0" text-anchor="middle" dominant-baseline="text-before-edge" transform="translate(0,-5.5)" style="stroke-width: 2px; paint-order: stroke; stroke: white; stroke-linecap: round; stroke-linejoin: round;"><tspan x="6" y="0" dy="0" text-anchor="start" style="font-family: Arial, sans-serif; font-size: 10px; fill: black; font-weight: normal;">Pardofelis</tspan></text></g><g transform="&#10;&#9;        rotate(265.2631578947368)&#10;&#9;        translate(142.5,0)&#10;&#9;        rotate(180)&#10;&#9;      "><text x="0" y="0" text-anchor="middle" dominant-baseline="text-before-edge" transform="translate(0,-5.55224609375)" style="stroke-width: 2px; paint-order: stroke; stroke: white; stroke-linecap: round; stroke-linejoin: round;"><tspan x="6" y="0" dy="0" text-anchor="start" style="font-family: Arial, sans-serif; font-size: 10px; fill: black; font-weight: normal;">Acinonyx</tspan></text></g><g transform="&#10;&#9;        rotate(-85.26315789473684)&#10;&#9;        translate(190,0)&#10;&#9;        rotate(0)&#10;&#9;      "><text x="0" y="0" text-anchor="middle" dominant-baseline="text-before-edge" transform="translate(0,-5.5)" style="stroke-width: 2px; paint-order: stroke; stroke: white; stroke-linecap: round; stroke-linejoin: round;"><tspan x="11" y="0" dy="0" text-anchor="start" style="font-family: Arial, sans-serif; font-size: 10px; fill: black; font-weight: normal;">Colocolo</tspan></text></g><g transform="&#10;&#9;        rotate(-75.78947368421052)&#10;&#9;        translate(190,0)&#10;&#9;        rotate(0)&#10;&#9;      "><text x="0" y="0" text-anchor="middle" dominant-baseline="text-before-edge" transform="translate(0,-5.55224609375)" style="stroke-width: 2px; paint-order: stroke; stroke: white; stroke-linecap: round; stroke-linejoin: round;"><tspan x="11" y="0" dy="0" text-anchor="start" style="font-family: Arial, sans-serif; font-size: 10px; fill: black; font-weight: normal;">Geoffroy's cat</tspan></text></g><g transform="&#10;&#9;        rotate(-66.31578947368419)&#10;&#9;        translate(190,0)&#10;&#9;        rotate(0)&#10;&#9;      "><text x="0" y="0" text-anchor="middle" dominant-baseline="text-before-edge" transform="translate(0,-5.5)" style="stroke-width: 2px; paint-order: stroke; stroke: white; stroke-linecap: round; stroke-linejoin: round;"><tspan x="11" y="0" dy="0" text-anchor="start" style="font-family: Arial, sans-serif; font-size: 10px; fill: black; font-weight: normal;">Kodkod</tspan></text></g><g transform="&#10;&#9;        rotate(-56.84210526315787)&#10;&#9;        translate(190,0)&#10;&#9;        rotate(0)&#10;&#9;      "><text x="0" y="0" text-anchor="middle" dominant-baseline="text-before-edge" transform="translate(0,-5.5)" style="stroke-width: 2px; paint-order: stroke; stroke: white; stroke-linecap: round; stroke-linejoin: round;"><tspan x="11" y="0" dy="0" text-anchor="start" style="font-family: Arial, sans-serif; font-size: 10px; fill: black; font-weight: normal;">Southern oncilla</tspan></text></g><g transform="&#10;&#9;        rotate(-47.36842105263159)&#10;&#9;        translate(190,0)&#10;&#9;        rotate(0)&#10;&#9;      "><text x="0" y="0" text-anchor="middle" dominant-baseline="text-before-edge" transform="translate(0,-5.5)" style="stroke-width: 2px; paint-order: stroke; stroke: white; stroke-linecap: round; stroke-linejoin: round;"><tspan x="11" y="0" dy="0" text-anchor="start" style="font-family: Arial, sans-serif; font-size: 10px; fill: black; font-weight: normal;">Andean mountain cat</tspan></text></g><g transform="&#10;&#9;        rotate(-37.89473684210527)&#10;&#9;        translate(190,0)&#10;&#9;        rotate(0)&#10;&#9;      "><text x="0" y="0" text-anchor="middle" dominant-baseline="text-before-edge" transform="translate(0,-5.5)" style="stroke-width: 2px; paint-order: stroke; stroke: white; stroke-linecap: round; stroke-linejoin: round;"><tspan x="11" y="0" dy="0" text-anchor="start" style="font-family: Arial, sans-serif; font-size: 10px; fill: black; font-weight: normal;">ocelot</tspan></text></g><g transform="&#10;&#9;        rotate(-28.421052631578952)&#10;&#9;        translate(190,0)&#10;&#9;        rotate(0)&#10;&#9;      "><text x="0" y="0" text-anchor="middle" dominant-baseline="text-before-edge" transform="translate(0,-5.5)" style="stroke-width: 2px; paint-order: stroke; stroke: white; stroke-linecap: round; stroke-linejoin: round;"><tspan x="11" y="0" dy="0" text-anchor="start" style="font-family: Arial, sans-serif; font-size: 10px; fill: black; font-weight: normal;">little spotted cat</tspan></text></g><g transform="&#10;&#9;        rotate(-18.947368421052644)&#10;&#9;        translate(190,0)&#10;&#9;        rotate(0)&#10;&#9;      "><text x="0" y="0" text-anchor="middle" dominant-baseline="text-before-edge" transform="translate(0,-5.55224609375)" style="stroke-width: 2px; paint-order: stroke; stroke: white; stroke-linecap: round; stroke-linejoin: round;"><tspan x="11" y="0" dy="0" text-anchor="start" style="font-family: Arial, sans-serif; font-size: 10px; fill: black; font-weight: normal;">margay</tspan></text></g><g transform="&#10;&#9;        rotate(-9.473684210526315)&#10;&#9;        translate(190,0)&#10;&#9;        rotate(0)&#10;&#9;      "><text x="0" y="0" text-anchor="middle" dominant-baseline="text-before-edge" transform="translate(0,-5.5)" style="stroke-width: 2px; paint-order: stroke; stroke: white; stroke-linecap: round; stroke-linejoin: round;"><tspan x="11" y="0" dy="0" text-anchor="start" style="font-family: Arial, sans-serif; font-size: 10px; fill: black; font-weight: normal;">domestic cat</tspan></text></g><g transform="&#10;&#9;        rotate(0)&#10;&#9;        translate(190,0)&#10;&#9;        rotate(0)&#10;&#9;      "><text x="0" y="0" text-anchor="middle" dominant-baseline="text-before-edge" transform="translate(0,-5.55224609375)" style="stroke-width: 2px; paint-order: stroke; stroke: white; stroke-linecap: round; stroke-linejoin: round;"><tspan x="11" y="0" dy="0" text-anchor="start" style="font-family: Arial, sans-serif; font-size: 10px; fill: black; font-weight: normal;">jungle cat</tspan></text></g><g transform="&#10;&#9;        rotate(9.4736842105263)&#10;&#9;        translate(190,0)&#10;&#9;        rotate(0)&#10;&#9;      "><text x="0" y="0" text-anchor="middle" dominant-baseline="text-before-edge" transform="translate(0,-5.5)" style="stroke-width: 2px; paint-order: stroke; stroke: white; stroke-linecap: round; stroke-linejoin: round;"><tspan x="11" y="0" dy="0" text-anchor="start" style="font-family: Arial, sans-serif; font-size: 10px; fill: black; font-weight: normal;">sand cat</tspan></text></g><g transform="&#10;&#9;        rotate(18.94736842105263)&#10;&#9;        translate(190,0)&#10;&#9;        rotate(0)&#10;&#9;      "><text x="0" y="0" text-anchor="middle" dominant-baseline="text-before-edge" transform="translate(0,-5.5)" style="stroke-width: 2px; paint-order: stroke; stroke: white; stroke-linecap: round; stroke-linejoin: round;"><tspan x="11" y="0" dy="0" text-anchor="start" style="font-family: Arial, sans-serif; font-size: 10px; fill: black; font-weight: normal;">black-footed cat</tspan></text></g><g transform="&#10;&#9;        rotate(28.42105263157896)&#10;&#9;        translate(190,0)&#10;&#9;        rotate(0)&#10;&#9;      "><text x="0" y="0" text-anchor="middle" dominant-baseline="text-before-edge" transform="translate(0,-5.5)" style="stroke-width: 2px; paint-order: stroke; stroke: white; stroke-linecap: round; stroke-linejoin: round;"><tspan x="11" y="0" dy="0" text-anchor="start" style="font-family: Arial, sans-serif; font-size: 10px; fill: black; font-weight: normal;">wild cat</tspan></text></g><g transform="&#10;&#9;        rotate(37.894736842105274)&#10;&#9;        translate(190,0)&#10;&#9;        rotate(0)&#10;&#9;      "><text x="0" y="0" text-anchor="middle" dominant-baseline="text-before-edge" transform="translate(0,-5.5)" style="stroke-width: 2px; paint-order: stroke; stroke: white; stroke-linecap: round; stroke-linejoin: round;"><tspan x="11" y="0" dy="0" text-anchor="start" style="font-family: Arial, sans-serif; font-size: 10px; fill: black; font-weight: normal;">leopard cat</tspan></text></g><g transform="&#10;&#9;        rotate(47.36842105263159)&#10;&#9;        translate(190,0)&#10;&#9;        rotate(0)&#10;&#9;      "><text x="0" y="0" text-anchor="middle" dominant-baseline="text-before-edge" transform="translate(0,-5.5)" style="stroke-width: 2px; paint-order: stroke; stroke: white; stroke-linecap: round; stroke-linejoin: round;"><tspan x="11" y="0" dy="0" text-anchor="start" style="font-family: Arial, sans-serif; font-size: 10px; fill: black; font-weight: normal;">Iriomote cat</tspan></text></g><g transform="&#10;&#9;        rotate(56.84210526315789)&#10;&#9;        translate(190,0)&#10;&#9;        rotate(0)&#10;&#9;      "><text x="0" y="0" text-anchor="middle" dominant-baseline="text-before-edge" transform="translate(0,-5.5)" style="stroke-width: 2px; paint-order: stroke; stroke: white; stroke-linecap: round; stroke-linejoin: round;"><tspan x="11" y="0" dy="0" text-anchor="start" style="font-family: Arial, sans-serif; font-size: 10px; fill: black; font-weight: normal;">flat-headed cat</tspan></text></g><g transform="&#10;&#9;        rotate(66.31578947368422)&#10;&#9;        translate(190,0)&#10;&#9;        rotate(0)&#10;&#9;      "><text x="0" y="0" text-anchor="middle" dominant-baseline="text-before-edge" transform="translate(0,-5.55224609375)" style="stroke-width: 2px; paint-order: stroke; stroke: white; stroke-linecap: round; stroke-linejoin: round;"><tspan x="11" y="0" dy="0" text-anchor="start" style="font-family: Arial, sans-serif; font-size: 10px; fill: black; font-weight: normal;">rusty-spotted cat</tspan></text></g><g transform="&#10;&#9;        rotate(75.78947368421052)&#10;&#9;        translate(190,0)&#10;&#9;        rotate(0)&#10;&#9;      "><text x="0" y="0" text-anchor="middle" dominant-baseline="text-before-edge" transform="translate(0,-5.55224609375)" style="stroke-width: 2px; paint-order: stroke; stroke: white; stroke-linecap: round; stroke-linejoin: round;"><tspan x="11" y="0" dy="0" text-anchor="start" style="font-family: Arial, sans-serif; font-size: 10px; fill: black; font-weight: normal;">fishing cat</tspan></text></g><g transform="&#10;&#9;        rotate(85.26315789473682)&#10;&#9;        translate(190,0)&#10;&#9;        rotate(0)&#10;&#9;      "><text x="0" y="0" text-anchor="middle" dominant-baseline="text-before-edge" transform="translate(0,-5.55224609375)" style="stroke-width: 2px; paint-order: stroke; stroke: white; stroke-linecap: round; stroke-linejoin: round;"><tspan x="11" y="0" dy="0" text-anchor="start" style="font-family: Arial, sans-serif; font-size: 10px; fill: black; font-weight: normal;">Canada lynx</tspan></text></g><g transform="&#10;&#9;        rotate(94.73684210526318)&#10;&#9;        translate(190,0)&#10;&#9;        rotate(180)&#10;&#9;      "><text x="0" y="0" text-anchor="middle" dominant-baseline="text-before-edge" transform="translate(0,-5.55224609375)" style="stroke-width: 2px; paint-order: stroke; stroke: white; stroke-linecap: round; stroke-linejoin: round;"><tspan x="-11" y="0" dy="0" text-anchor="end" style="font-family: Arial, sans-serif; font-size: 10px; fill: black; font-weight: normal;">Eurasian lynx</tspan></text></g><g transform="&#10;&#9;        rotate(104.21052631578945)&#10;&#9;        translate(190,0)&#10;&#9;        rotate(180)&#10;&#9;      "><text x="0" y="0" text-anchor="middle" dominant-baseline="text-before-edge" transform="translate(0,-5.55224609375)" style="stroke-width: 2px; paint-order: stroke; stroke: white; stroke-linecap: round; stroke-linejoin: round;"><tspan x="-11" y="0" dy="0" text-anchor="end" style="font-family: Arial, sans-serif; font-size: 10px; fill: black; font-weight: normal;">Spanish lynx</tspan></text></g><g transform="&#10;&#9;        rotate(113.68421052631575)&#10;&#9;        translate(190,0)&#10;&#9;        rotate(180)&#10;&#9;      "><text x="0" y="0" text-anchor="middle" dominant-baseline="text-before-edge" transform="translate(0,-5.5)" style="stroke-width: 2px; paint-order: stroke; stroke: white; stroke-linecap: round; stroke-linejoin: round;"><tspan x="-11" y="0" dy="0" text-anchor="end" style="font-family: Arial, sans-serif; font-size: 10px; fill: black; font-weight: normal;">bobcat</tspan></text></g><g transform="&#10;&#9;        rotate(123.15789473684211)&#10;&#9;        translate(190,0)&#10;&#9;        rotate(180)&#10;&#9;      "><text x="0" y="0" text-anchor="middle" dominant-baseline="text-before-edge" transform="translate(0,-5.55224609375)" style="stroke-width: 2px; paint-order: stroke; stroke: white; stroke-linecap: round; stroke-linejoin: round;"><tspan x="-11" y="0" dy="0" text-anchor="end" style="font-family: Arial, sans-serif; font-size: 10px; fill: black; font-weight: normal;">bay cat</tspan></text></g><g transform="&#10;&#9;        rotate(132.6315789473684)&#10;&#9;        translate(190,0)&#10;&#9;        rotate(180)&#10;&#9;      "><text x="0" y="0" text-anchor="middle" dominant-baseline="text-before-edge" transform="translate(0,-5.55224609375)" style="stroke-width: 2px; paint-order: stroke; stroke: white; stroke-linecap: round; stroke-linejoin: round;"><tspan x="-11" y="0" dy="0" text-anchor="end" style="font-family: Arial, sans-serif; font-size: 10px; fill: black; font-weight: normal;">Asiatic golden cat</tspan></text></g><g transform="&#10;&#9;        rotate(142.10526315789474)&#10;&#9;        translate(190,0)&#10;&#9;        rotate(180)&#10;&#9;      "><text x="0" y="0" text-anchor="middle" dominant-baseline="text-before-edge" transform="translate(0,-5.5)" style="stroke-width: 2px; paint-order: stroke; stroke: white; stroke-linecap: round; stroke-linejoin: round;"><tspan x="-11" y="0" dy="0" text-anchor="end" style="font-family: Arial, sans-serif; font-size: 10px; fill: black; font-weight: normal;">puma</tspan></text></g><g transform="&#10;&#9;        rotate(151.57894736842107)&#10;&#9;        translate(190,0)&#10;&#9;        rotate(180)&#10;&#9;      "><text x="0" y="0" text-anchor="middle" dominant-baseline="text-before-edge" transform="translate(0,-5.55224609375)" style="stroke-width: 2px; paint-order: stroke; stroke: white; stroke-linecap: round; stroke-linejoin: round;"><tspan x="-11" y="0" dy="0" text-anchor="end" style="font-family: Arial, sans-serif; font-size: 10px; fill: black; font-weight: normal;">jaguarundi</tspan></text></g><g transform="&#10;&#9;        rotate(161.05263157894737)&#10;&#9;        translate(190,0)&#10;&#9;        rotate(180)&#10;&#9;      "><text x="0" y="0" text-anchor="middle" dominant-baseline="text-before-edge" transform="translate(0,-5.5)" style="stroke-width: 2px; paint-order: stroke; stroke: white; stroke-linecap: round; stroke-linejoin: round;"><tspan x="-11" y="0" dy="0" text-anchor="end" style="font-family: Arial, sans-serif; font-size: 10px; fill: black; font-weight: normal;">serval</tspan></text></g><g transform="&#10;&#9;        rotate(170.5263157894737)&#10;&#9;        translate(190,0)&#10;&#9;        rotate(180)&#10;&#9;      "><text x="0" y="0" text-anchor="middle" dominant-baseline="text-before-edge" transform="translate(0,-5.5)" style="stroke-width: 2px; paint-order: stroke; stroke: white; stroke-linecap: round; stroke-linejoin: round;"><tspan x="-11" y="0" dy="0" text-anchor="end" style="font-family: Arial, sans-serif; font-size: 10px; fill: black; font-weight: normal;">Pallas's cat</tspan></text></g><g transform="&#10;&#9;        rotate(180.00000000000006)&#10;&#9;        translate(190,0)&#10;&#9;        rotate(180)&#10;&#9;      "><text x="0" y="0" text-anchor="middle" dominant-baseline="text-before-edge" transform="translate(0,-5.55224609375)" style="stroke-width: 2px; paint-order: stroke; stroke: white; stroke-linecap: round; stroke-linejoin: round;"><tspan x="-11" y="0" dy="0" text-anchor="end" style="font-family: Arial, sans-serif; font-size: 10px; fill: black; font-weight: normal;">African golden cat</tspan></text></g><g transform="&#10;&#9;        rotate(189.47368421052636)&#10;&#9;        translate(190,0)&#10;&#9;        rotate(180)&#10;&#9;      "><text x="0" y="0" text-anchor="middle" dominant-baseline="text-before-edge" transform="translate(0,-5.5)" style="stroke-width: 2px; paint-order: stroke; stroke: white; stroke-linecap: round; stroke-linejoin: round;"><tspan x="-11" y="0" dy="0" text-anchor="end" style="font-family: Arial, sans-serif; font-size: 10px; fill: black; font-weight: normal;">lion</tspan></text></g><g transform="&#10;&#9;        rotate(198.94736842105272)&#10;&#9;        translate(190,0)&#10;&#9;        rotate(180)&#10;&#9;      "><text x="0" y="0" text-anchor="middle" dominant-baseline="text-before-edge" transform="translate(0,-5.55224609375)" style="stroke-width: 2px; paint-order: stroke; stroke: white; stroke-linecap: round; stroke-linejoin: round;"><tspan x="-11" y="0" dy="0" text-anchor="end" style="font-family: Arial, sans-serif; font-size: 10px; fill: black; font-weight: normal;">jaguar</tspan></text></g><g transform="&#10;&#9;        rotate(208.42105263157896)&#10;&#9;        translate(190,0)&#10;&#9;        rotate(180)&#10;&#9;      "><text x="0" y="0" text-anchor="middle" dominant-baseline="text-before-edge" transform="translate(0,-5.5)" style="stroke-width: 2px; paint-order: stroke; stroke: white; stroke-linecap: round; stroke-linejoin: round;"><tspan x="-11" y="0" dy="0" text-anchor="end" style="font-family: Arial, sans-serif; font-size: 10px; fill: black; font-weight: normal;">leopard</tspan></text></g><g transform="&#10;&#9;        rotate(217.89473684210532)&#10;&#9;        translate(190,0)&#10;&#9;        rotate(180)&#10;&#9;      "><text x="0" y="0" text-anchor="middle" dominant-baseline="text-before-edge" transform="translate(0,-5.55224609375)" style="stroke-width: 2px; paint-order: stroke; stroke: white; stroke-linecap: round; stroke-linejoin: round;"><tspan x="-11" y="0" dy="0" text-anchor="end" style="font-family: Arial, sans-serif; font-size: 10px; fill: black; font-weight: normal;">tiger</tspan></text></g><g transform="&#10;&#9;        rotate(227.36842105263162)&#10;&#9;        translate(190,0)&#10;&#9;        rotate(180)&#10;&#9;      "><text x="0" y="0" text-anchor="middle" dominant-baseline="text-before-edge" transform="translate(0,-5.5)" style="stroke-width: 2px; paint-order: stroke; stroke: white; stroke-linecap: round; stroke-linejoin: round;"><tspan x="-11" y="0" dy="0" text-anchor="end" style="font-family: Arial, sans-serif; font-size: 10px; fill: black; font-weight: normal;">snow leopard</tspan></text></g><g transform="&#10;&#9;        rotate(236.84210526315786)&#10;&#9;        translate(190,0)&#10;&#9;        rotate(180)&#10;&#9;      "><text x="0" y="0" text-anchor="middle" dominant-baseline="text-before-edge" transform="translate(0,-5.5)" style="stroke-width: 2px; paint-order: stroke; stroke: white; stroke-linecap: round; stroke-linejoin: round;"><tspan x="-11" y="0" dy="0" text-anchor="end" style="font-family: Arial, sans-serif; font-size: 10px; fill: black; font-weight: normal;">Sunda clouded leopard</tspan></text></g><g transform="&#10;&#9;        rotate(246.31578947368422)&#10;&#9;        translate(190,0)&#10;&#9;        rotate(180)&#10;&#9;      "><text x="0" y="0" text-anchor="middle" dominant-baseline="text-before-edge" transform="translate(0,-5.5)" style="stroke-width: 2px; paint-order: stroke; stroke: white; stroke-linecap: round; stroke-linejoin: round;"><tspan x="-11" y="0" dy="0" text-anchor="end" style="font-family: Arial, sans-serif; font-size: 10px; fill: black; font-weight: normal;">Clouded leopard</tspan></text></g><g transform="&#10;&#9;        rotate(255.78947368421052)&#10;&#9;        translate(190,0)&#10;&#9;        rotate(180)&#10;&#9;      "><text x="0" y="0" text-anchor="middle" dominant-baseline="text-before-edge" transform="translate(0,-5.5)" style="stroke-width: 2px; paint-order: stroke; stroke: white; stroke-linecap: round; stroke-linejoin: round;"><tspan x="-11" y="0" dy="0" text-anchor="end" style="font-family: Arial, sans-serif; font-size: 10px; fill: black; font-weight: normal;">marbled cat</tspan></text></g><g transform="&#10;&#9;        rotate(265.2631578947368)&#10;&#9;        translate(190,0)&#10;&#9;        rotate(180)&#10;&#9;      "><text x="0" y="0" text-anchor="middle" dominant-baseline="text-before-edge" transform="translate(0,-5.5)" style="stroke-width: 2px; paint-order: stroke; stroke: white; stroke-linecap: round; stroke-linejoin: round;"><tspan x="-11" y="0" dy="0" text-anchor="end" style="font-family: Arial, sans-serif; font-size: 10px; fill: black; font-weight: normal;">cheetah</tspan></text></g></g></g></svg>