<svg xmlns="http://www.w3.org/2000/svg" width="805" height="800"><rect width="805" height="800" x="0" y="0" fill="#FFFFFF" id="backgorund"/><g transform="translate(20,20)" id="viz"><g id="nodes"><g transform="translate(383.5,381)"><path id="p_1146.5" d="M-6.980486755139912e-14,380A380,380,0,1,1,6.980486755139912e-14,-380A380,380,0,1,1,-6.980486755139912e-14,380Z" fill="none" stroke="#ccc"/><text fill="black" text-anchor="middle" font-family="'Arial', sans-serif" font-size="8" dominant-baseline="middle"><textPath href="#p_1146.5" startOffset="50%"/></text></g><g transform="translate(383.5,381)" id="Felidae"><path id="p_1141.6663379727863" d="M-6.891693824193101e-14,375.16633797278627A375.16633797278627,375.16633797278627,0,1,1,6.891693824193101e-14,-375.16633797278627A375.16633797278627,375.16633797278627,0,1,1,-6.891693824193101e-14,375.16633797278627Z" fill="none" stroke="#ccc"/><text fill="black" text-anchor="middle" font-family="'Arial', sans-serif" font-size="8" dominant-baseline="middle"><textPath href="#p_1141.6663379727863" startOffset="50%">Felidae</textPath></text></g><g transform="translate(243.20493964681222,381)" id="Felinae"><path id="p_856.2425552391971" d="M-4.22572244428055e-14,230.03761559238484A230.03761559238484,230.03761559238484,0,1,1,4.22572244428055e-14,-230.03761559238484A230.03761559238484,230.03761559238484,0,1,1,-4.22572244428055e-14,230.03761559238484Z" fill="none" stroke="#ccc"/><text fill="black" text-anchor="middle" font-family="'Arial', sans-serif" font-size="8" dominant-baseline="middle"><textPath href="#p_856.2425552391971" startOffset="50%">Felinae</textPath></text></g><g transform="translate(615.9544466059916,381)" id="Pantherinae"><path id="p_1136.8326759455726" d="M-2.532781983492337e-14,137.87822933958094A137.87822933958094,137.87822933958094,0,1,1,2.532781983492337e-14,-137.87822933958094A137.87822933958094,137.87822933958094,0,1,1,-2.532781983492337e-14,137.87822933958094Z" fill="none" stroke="#ccc"/><text fill="black" text-anchor="middle" font-family="'Arial', sans-serif" font-size="8" dominant-baseline="middle"><textPath href="#p_1136.8326759455726" startOffset="50%">Pantherinae</textPath></text></g><g transform="translate(484.26987540828804,496.44092922101584)" id="Acinonychinae"><path id="p_1015.1201125244337" d="M-5.953493276452774e-15,32.409307895129864A32.409307895129864,32.409307895129864,0,1,1,5.953493276452774e-15,-32.409307895129864A32.409307895129864,32.409307895129864,0,1,1,-5.953493276452774e-15,32.409307895129864Z" fill="none" stroke="#ccc"/><text fill="black" text-anchor="middle" font-family="'Arial', sans-serif" font-size="8" dominant-baseline="middle"><textPath href="#p_1015.1201125244337" startOffset="50%">Acinonychinae</textPath></text></g><g transform="translate(197.4034894618031,373.248476361322)" id="Leopardus"><path id="p_666.7915790766615" d="M-1.729316640658697e-14,94.13961325353642A94.13961325353642,94.13961325353642,0,1,1,1.729316640658697e-14,-94.13961325353642A94.13961325353642,94.13961325353642,0,1,1,-1.729316640658697e-14,94.13961325353642Z" fill="none" stroke="#ccc"/><text fill="black" text-anchor="middle" font-family="'Arial', sans-serif" font-size="8" dominant-baseline="middle"><textPath href="#p_666.7915790766615" startOffset="50%">Leopardus</textPath></text></g><g transform="translate(374.27004031908814,373.248476361322)" id="Felis"><path id="p_827.411792256945" d="M-1.430876259148592e-14,77.89327557653486A77.89327557653486,77.89327557653486,0,1,1,1.430876259148592e-14,-77.89327557653486A77.89327557653486,77.89327557653486,0,1,1,-1.430876259148592e-14,77.89327557653486Z" fill="none" stroke="#ccc"/><text fill="black" text-anchor="middle" font-family="'Arial', sans-serif" font-size="8" dominant-baseline="middle"><textPath href="#p_827.411792256945" startOffset="50%">Felis</textPath></text></g><g transform="translate(301.3369369226833,516.3554828671148)" id="Prionailurus"><path id="p_897.585695366333" d="M-1.430876259148592e-14,77.89327557653486A77.89327557653486,77.89327557653486,0,1,1,1.430876259148592e-14,-77.89327557653486A77.89327557653486,77.89327557653486,0,1,1,-1.430876259148592e-14,77.89327557653486Z" fill="none" stroke="#ccc"/><text fill="black" text-anchor="middle" font-family="'Arial', sans-serif" font-size="8" dominant-baseline="middle"><textPath href="#p_897.585695366333" startOffset="50%">Prionailurus</textPath></text></g><g transform="translate(300.7177063349678,238.08642927196323)" id="Lynx"><path id="p_611.9561270607296" d="M-1.3070408788028129e-14,71.15199145379853A71.15199145379853,71.15199145379853,0,1,1,1.3070408788028129e-14,-71.15199145379853A71.15199145379853,71.15199145379853,0,1,1,-1.3070408788028129e-14,71.15199145379853Z" fill="none" stroke="#ccc"/><text fill="black" text-anchor="middle" font-family="'Arial', sans-serif" font-size="8" dominant-baseline="middle"><textPath href="#p_611.9561270607296" startOffset="50%">Lynx</textPath></text></g><g transform="translate(172.82153447250317,223.54555504028502)" id="Catopuma"><path id="p_451.10155023501375" d="M-9.687163279235294e-15,52.73446072222552A52.73446072222552,52.73446072222552,0,1,1,9.687163279235294e-15,-52.73446072222552A52.73446072222552,52.73446072222552,0,1,1,-9.687163279235294e-15,52.73446072222552Z" fill="none" stroke="#ccc"/><text fill="black" text-anchor="middle" font-family="'Arial', sans-serif" font-size="8" dominant-baseline="middle"><textPath href="#p_451.10155023501375" startOffset="50%">Catopuma</textPath></text></g><g transform="translate(165.97967580744617,521.6660666212531)" id="Puma"><path id="p_742.3802031509248" d="M-9.687163279235294e-15,52.73446072222552A52.73446072222552,52.73446072222552,0,1,1,9.687163279235294e-15,-52.73446072222552A52.73446072222552,52.73446072222552,0,1,1,-9.687163279235294e-15,52.73446072222552Z" fill="none" stroke="#ccc"/><text fill="black" text-anchor="middle" font-family="'Arial', sans-serif" font-size="8" dominant-baseline="middle"><textPath href="#p_742.3802031509248" startOffset="50%">Puma</textPath></text></g><g transform="translate(400.420794926843,266.0906583825643)" id="Leptailurus"><path id="p_696.0870991773234" d="M-5.0655639669846726e-15,27.57564586791618A27.57564586791618,27.57564586791618,0,1,1,5.0655639669846726e-15,-27.57564586791618A27.57564586791618,27.57564586791618,0,1,1,-5.0655639669846726e-15,27.57564586791618Z" fill="none" stroke="#ccc"/><text fill="black" text-anchor="middle" font-family="'Arial', sans-serif" font-size="8" dominant-baseline="middle"><textPath href="#p_696.0870991773234" startOffset="50%">Leptailurus</textPath></text></g><g transform="translate(405.16980040146547,479.1345696284507)" id="Otocolobus"><path id="p_913.8800158978323" d="M-5.0655639669846726e-15,27.57564586791618A27.57564586791618,27.57564586791618,0,1,1,5.0655639669846726e-15,-27.57564586791618A27.57564586791618,27.57564586791618,0,1,1,-5.0655639669846726e-15,27.57564586791618Z" fill="none" stroke="#ccc"/><text fill="black" text-anchor="middle" font-family="'Arial', sans-serif" font-size="8" dominant-baseline="middle"><textPath href="#p_913.8800158978323" startOffset="50%">Otocolobus</textPath></text></g><g transform="translate(110.35109426247854,281.39800040201095)" id="Profelis"><path id="p_421.32474053240566" d="M-5.0655639669846726e-15,27.57564586791618A27.57564586791618,27.57564586791618,0,1,1,5.0655639669846726e-15,-27.57564586791618A27.57564586791618,27.57564586791618,0,1,1,-5.0655639669846726e-15,27.57564586791618Z" fill="none" stroke="#ccc"/><text fill="black" text-anchor="middle" font-family="'Arial', sans-serif" font-size="8" dominant-baseline="middle"><textPath href="#p_421.32474053240566" startOffset="50%">Profelis</textPath></text></g><g transform="translate(560.8031548701592,381)" id="Panthera"><path id="p_1021.6964304466941" d="M-1.430876259148592e-14,77.89327557653486A77.89327557653486,77.89327557653486,0,1,1,1.430876259148592e-14,-77.89327557653486A77.89327557653486,77.89327557653486,0,1,1,-1.430876259148592e-14,77.89327557653486Z" fill="none" stroke="#ccc"/><text fill="black" text-anchor="middle" font-family="'Arial', sans-serif" font-size="8" dominant-baseline="middle"><textPath href="#p_1021.6964304466941" startOffset="50%">Panthera</textPath></text></g><g transform="translate(696.2645531961333,381)" id="Neofelis"><path id="p_1131.999013918359" d="M-9.687163279235294e-15,52.73446072222552A52.73446072222552,52.73446072222552,0,1,1,9.687163279235294e-15,-52.73446072222552A52.73446072222552,52.73446072222552,0,1,1,-9.687163279235294e-15,52.73446072222552Z" fill="none" stroke="#ccc"/><text fill="black" text-anchor="middle" font-family="'Arial', sans-serif" font-size="8" dominant-baseline="middle"><textPath href="#p_1131.999013918359" startOffset="50%">Neofelis</textPath></text></g><g transform="translate(646.6836688398895,450.2184747073968)" id="Pardofelis"><path id="p_1126.4777894152026" d="M-5.0655639669846726e-15,27.57564586791618A27.57564586791618,27.57564586791618,0,1,1,5.0655639669846726e-15,-27.57564586791618A27.57564586791618,27.57564586791618,0,1,1,-5.0655639669846726e-15,27.57564586791618Z" fill="none" stroke="#ccc"/><text fill="black" text-anchor="middle" font-family="'Arial', sans-serif" font-size="8" dominant-baseline="middle"><textPath href="#p_1126.4777894152026" startOffset="50%">Pardofelis</textPath></text></g><g transform="translate(484.26987540828804,496.44092922101584)" id="Acinonyx"><path id="p_1010.28645049722" d="M-5.0655639669846726e-15,27.57564586791618A27.57564586791618,27.57564586791618,0,1,1,5.0655639669846726e-15,-27.57564586791618A27.57564586791618,27.57564586791618,0,1,1,-5.0655639669846726e-15,27.57564586791618Z" fill="none" stroke="#ccc"/><text fill="black" text-anchor="middle" font-family="'Arial', sans-serif" font-size="8" dominant-baseline="middle"><textPath href="#p_1010.28645049722" startOffset="50%">Acinonyx</textPath></text></g><g transform="translate(172.24467460749378,373.248476361322)" id="Colocolo"><path id="p_570.2351348095183" d="M-4.177634657516571e-15,22.741983840702495A22.741983840702495,22.741983840702495,0,1,1,4.177634657516571e-15,-22.741983840702495A22.741983840702495,22.741983840702495,0,1,1,-4.177634657516571e-15,22.741983840702495Z" fill="#0e8ee5" stroke="none"/></g><g transform="translate(222.56230431611243,373.248476361322)" id="Geoffroy's cat"><path id="p_620.5527645181369" d="M-4.177634657516571e-15,22.741983840702495A22.741983840702495,22.741983840702495,0,1,1,4.177634657516571e-15,-22.741983840702495A22.741983840702495,22.741983840702495,0,1,1,-4.177634657516571e-15,22.741983840702495Z" fill="#0e8ee5" stroke="none"/></g><g transform="translate(197.4034894618031,416.8248219472043)" id="Kodkod"><path id="p_638.9702952497099" d="M-4.177634657516571e-15,22.741983840702495A22.741983840702495,22.741983840702495,0,1,1,4.177634657516571e-15,-22.741983840702495A22.741983840702495,22.741983840702495,0,1,1,-4.177634657516571e-15,22.741983840702495Z" fill="#0e8ee5" stroke="none"/></g><g transform="translate(197.4034894618031,329.67213077543965)" id="Southern oncilla"><path id="p_551.8176040779452" d="M-4.177634657516571e-15,22.741983840702495A22.741983840702495,22.741983840702495,0,1,1,4.177634657516571e-15,-22.741983840702495A22.741983840702495,22.741983840702495,0,1,1,-4.177634657516571e-15,22.741983840702495Z" fill="#0e8ee5" stroke="none"/></g><g transform="translate(147.08585975318442,329.67213077543965)" id="Andean mountain cat"><path id="p_501.4999743693266" d="M-4.177634657516571e-15,22.741983840702495A22.741983840702495,22.741983840702495,0,1,1,4.177634657516571e-15,-22.741983840702495A22.741983840702495,22.741983840702495,0,1,1,-4.177634657516571e-15,22.741983840702495Z" fill="#0e8ee5" stroke="none"/></g><g transform="translate(247.7211191704218,329.67213077543965)" id="ocelot"><path id="p_602.135233786564" d="M-4.177634657516571e-15,22.741983840702495A22.741983840702495,22.741983840702495,0,1,1,4.177634657516571e-15,-22.741983840702495A22.741983840702495,22.741983840702495,0,1,1,-4.177634657516571e-15,22.741983840702495Z" fill="#0e8ee5" stroke="none"/></g><g transform="translate(247.7211191704218,416.8248219472043)" id="little spotted cat"><path id="p_689.2879249583286" d="M-4.177634657516571e-15,22.741983840702495A22.741983840702495,22.741983840702495,0,1,1,4.177634657516571e-15,-22.741983840702495A22.741983840702495,22.741983840702495,0,1,1,-4.177634657516571e-15,22.741983840702495Z" fill="#0e8ee5" stroke="none"/></g><g transform="translate(147.08585975318442,416.8248219472043)" id="margay"><path id="p_588.6526655410912" d="M-4.177634657516571e-15,22.741983840702495A22.741983840702495,22.741983840702495,0,1,1,4.177634657516571e-15,-22.741983840702495A22.741983840702495,22.741983840702495,0,1,1,-4.177634657516571e-15,22.741983840702495Z" fill="#0e8ee5" stroke="none"/></g><g transform="translate(374.27004031908814,373.248476361322)" id="domestic cat"><path id="p_772.2605005211126" d="M-4.177634657516571e-15,22.741983840702495A22.741983840702495,22.741983840702495,0,1,1,4.177634657516571e-15,-22.741983840702495A22.741983840702495,22.741983840702495,0,1,1,-4.177634657516571e-15,22.741983840702495Z" fill="#0e8ee5" stroke="none"/></g><g transform="translate(424.5876700277068,373.248476361322)" id="jungle cat"><path id="p_822.5781302297312" d="M-4.177634657516571e-15,22.741983840702495A22.741983840702495,22.741983840702495,0,1,1,4.177634657516571e-15,-22.741983840702495A22.741983840702495,22.741983840702495,0,1,1,-4.177634657516571e-15,22.741983840702495Z" fill="#0e8ee5" stroke="none"/></g><g transform="translate(399.4288551733975,416.8248219472043)" id="sand cat"><path id="p_840.9956609613043" d="M-4.177634657516571e-15,22.741983840702495A22.741983840702495,22.741983840702495,0,1,1,4.177634657516571e-15,-22.741983840702495A22.741983840702495,22.741983840702495,0,1,1,-4.177634657516571e-15,22.741983840702495Z" fill="#0e8ee5" stroke="none"/></g><g transform="translate(399.4288551733975,329.67213077543965)" id="black-footed cat"><path id="p_753.8429697895397" d="M-4.177634657516571e-15,22.741983840702495A22.741983840702495,22.741983840702495,0,1,1,4.177634657516571e-15,-22.741983840702495A22.741983840702495,22.741983840702495,0,1,1,-4.177634657516571e-15,22.741983840702495Z" fill="#0e8ee5" stroke="none"/></g><g transform="translate(349.1112254647788,329.67213077543965)" id="wild cat"><path id="p_703.5253400809208" d="M-4.177634657516571e-15,22.741983840702495A22.741983840702495,22.741983840702495,0,1,1,4.177634657516571e-15,-22.741983840702495A22.741983840702495,22.741983840702495,0,1,1,-4.177634657516571e-15,22.741983840702495Z" fill="#0e8ee5" stroke="none"/></g><g transform="translate(301.3369369226833,516.3554828671148)" id="leopard cat"><path id="p_842.4344036305006" d="M-4.177634657516571e-15,22.741983840702495A22.741983840702495,22.741983840702495,0,1,1,4.177634657516571e-15,-22.741983840702495A22.741983840702495,22.741983840702495,0,1,1,-4.177634657516571e-15,22.741983840702495Z" fill="#0e8ee5" stroke="none"/></g><g transform="translate(351.654566631302,516.3554828671148)" id="Iriomote cat"><path id="p_892.7520333391192" d="M-4.177634657516571e-15,22.741983840702495A22.741983840702495,22.741983840702495,0,1,1,4.177634657516571e-15,-22.741983840702495A22.741983840702495,22.741983840702495,0,1,1,-4.177634657516571e-15,22.741983840702495Z" fill="#0e8ee5" stroke="none"/></g><g transform="translate(326.4957517769927,559.9318284529971)" id="flat-headed cat"><path id="p_911.1695640706923" d="M-4.177634657516571e-15,22.741983840702495A22.741983840702495,22.741983840702495,0,1,1,4.177634657516571e-15,-22.741983840702495A22.741983840702495,22.741983840702495,0,1,1,-4.177634657516571e-15,22.741983840702495Z" fill="#0e8ee5" stroke="none"/></g><g transform="translate(326.4957517769927,472.77913728123247)" id="rusty-spotted cat"><path id="p_824.0168728989277" d="M-4.177634657516571e-15,22.741983840702495A22.741983840702495,22.741983840702495,0,1,1,4.177634657516571e-15,-22.741983840702495A22.741983840702495,22.741983840702495,0,1,1,-4.177634657516571e-15,22.741983840702495Z" fill="#0e8ee5" stroke="none"/></g><g transform="translate(276.17812206837397,472.77913728123247)" id="fishing cat"><path id="p_773.6992431903088" d="M-4.177634657516571e-15,22.741983840702495A22.741983840702495,22.741983840702495,0,1,1,4.177634657516571e-15,-22.741983840702495A22.741983840702495,22.741983840702495,0,1,1,-4.177634657516571e-15,22.741983840702495Z" fill="#0e8ee5" stroke="none"/></g><g transform="translate(275.5588914806584,238.08642927196323)" id="Canada lynx"><path id="p_538.3873045933241" d="M-4.177634657516571e-15,22.741983840702495A22.741983840702495,22.741983840702495,0,1,1,4.177634657516571e-15,-22.741983840702495A22.741983840702495,22.741983840702495,0,1,1,-4.177634657516571e-15,22.741983840702495Z" fill="#0e8ee5" stroke="none"/></g><g transform="translate(325.8765211892771,238.08642927196323)" id="Eurasian lynx"><path id="p_588.7049343019428" d="M-4.177634657516571e-15,22.741983840702495A22.741983840702495,22.741983840702495,0,1,1,4.177634657516571e-15,-22.741983840702495A22.741983840702495,22.741983840702495,0,1,1,-4.177634657516571e-15,22.741983840702495Z" fill="#0e8ee5" stroke="none"/></g><g transform="translate(300.7177063349678,281.6627748578456)" id="Spanish lynx"><path id="p_607.1224650335158" d="M-4.177634657516571e-15,22.741983840702495A22.741983840702495,22.741983840702495,0,1,1,4.177634657516571e-15,-22.741983840702495A22.741983840702495,22.741983840702495,0,1,1,-4.177634657516571e-15,22.741983840702495Z" fill="#0e8ee5" stroke="none"/></g><g transform="translate(300.7177063349678,194.51008368608086)" id="bobcat"><path id="p_519.9697738617512" d="M-4.177634657516571e-15,22.741983840702495A22.741983840702495,22.741983840702495,0,1,1,4.177634657516571e-15,-22.741983840702495A22.741983840702495,22.741983840702495,0,1,1,-4.177634657516571e-15,22.741983840702495Z" fill="#0e8ee5" stroke="none"/></g><g transform="translate(147.66271961819385,223.54555504028502)" id="bay cat"><path id="p_395.9502584991814" d="M-4.177634657516571e-15,22.741983840702495A22.741983840702495,22.741983840702495,0,1,1,4.177634657516571e-15,-22.741983840702495A22.741983840702495,22.741983840702495,0,1,1,-4.177634657516571e-15,22.741983840702495Z" fill="#0e8ee5" stroke="none"/></g><g transform="translate(197.9803493268125,223.54555504028502)" id="Asiatic golden cat"><path id="p_446.2678882078" d="M-4.177634657516571e-15,22.741983840702495A22.741983840702495,22.741983840702495,0,1,1,4.177634657516571e-15,-22.741983840702495A22.741983840702495,22.741983840702495,0,1,1,-4.177634657516571e-15,22.741983840702495Z" fill="#0e8ee5" stroke="none"/></g><g transform="translate(140.82086095313684,521.6660666212531)" id="puma"><path id="p_687.2289114150924" d="M-4.177634657516571e-15,22.741983840702495A22.741983840702495,22.741983840702495,0,1,1,4.177634657516571e-15,-22.741983840702495A22.741983840702495,22.741983840702495,0,1,1,-4.177634657516571e-15,22.741983840702495Z" fill="#0e8ee5" stroke="none"/></g><g transform="translate(191.1384906617555,521.6660666212531)" id="jaguarundi"><path id="p_737.546541123711" d="M-4.177634657516571e-15,22.741983840702495A22.741983840702495,22.741983840702495,0,1,1,4.177634657516571e-15,-22.741983840702495A22.741983840702495,22.741983840702495,0,1,1,-4.177634657516571e-15,22.741983840702495Z" fill="#0e8ee5" stroke="none"/></g><g transform="translate(400.420794926843,266.0906583825643)" id="serval"><path id="p_691.2534371501097" d="M-4.177634657516571e-15,22.741983840702495A22.741983840702495,22.741983840702495,0,1,1,4.177634657516571e-15,-22.741983840702495A22.741983840702495,22.741983840702495,0,1,1,-4.177634657516571e-15,22.741983840702495Z" fill="#0e8ee5" stroke="none"/></g><g transform="translate(405.16980040146547,479.1345696284507)" id="Pallas's cat"><path id="p_909.0463538706186" d="M-4.177634657516571e-15,22.741983840702495A22.741983840702495,22.741983840702495,0,1,1,4.177634657516571e-15,-22.741983840702495A22.741983840702495,22.741983840702495,0,1,1,-4.177634657516571e-15,22.741983840702495Z" fill="#0e8ee5" stroke="none"/></g><g transform="translate(110.35109426247854,281.39800040201095)" id="African golden cat"><path id="p_416.491078505192" d="M-4.177634657516571e-15,22.741983840702495A22.741983840702495,22.741983840702495,0,1,1,4.177634657516571e-15,-22.741983840702495A22.741983840702495,22.741983840702495,0,1,1,-4.177634657516571e-15,22.741983840702495Z" fill="#0e8ee5" stroke="none"/></g><g transform="translate(560.8031548701592,381)" id="lion"><path id="p_966.5451387108617" d="M-4.177634657516571e-15,22.741983840702495A22.741983840702495,22.741983840702495,0,1,1,4.177634657516571e-15,-22.741983840702495A22.741983840702495,22.741983840702495,0,1,1,-4.177634657516571e-15,22.741983840702495Z" fill="#0e8ee5" stroke="none"/></g><g transform="translate(611.120784578778,381)" id="jaguar"><path id="p_1016.8627684194804" d="M-4.177634657516571e-15,22.741983840702495A22.741983840702495,22.741983840702495,0,1,1,4.177634657516571e-15,-22.741983840702495A22.741983840702495,22.741983840702495,0,1,1,-4.177634657516571e-15,22.741983840702495Z" fill="#0e8ee5" stroke="none"/></g><g transform="translate(585.9619697244685,424.57634558588234)" id="leopard"><path id="p_1035.2802991510534" d="M-4.177634657516571e-15,22.741983840702495A22.741983840702495,22.741983840702495,0,1,1,4.177634657516571e-15,-22.741983840702495A22.741983840702495,22.741983840702495,0,1,1,-4.177634657516571e-15,22.741983840702495Z" fill="#0e8ee5" stroke="none"/></g><g transform="translate(585.9619697244685,337.42365441411766)" id="tiger"><path id="p_948.1276079792887" d="M-4.177634657516571e-15,22.741983840702495A22.741983840702495,22.741983840702495,0,1,1,4.177634657516571e-15,-22.741983840702495A22.741983840702495,22.741983840702495,0,1,1,-4.177634657516571e-15,22.741983840702495Z" fill="#0e8ee5" stroke="none"/></g><g transform="translate(535.6443400158499,337.42365441411766)" id="snow leopard"><path id="p_897.8099782706701" d="M-4.177634657516571e-15,22.741983840702495A22.741983840702495,22.741983840702495,0,1,1,4.177634657516571e-15,-22.741983840702495A22.741983840702495,22.741983840702495,0,1,1,-4.177634657516571e-15,22.741983840702495Z" fill="#0e8ee5" stroke="none"/></g><g transform="translate(671.105738341824,381)" id="Sunda clouded leopard"><path id="p_1076.8477221825265" d="M-4.177634657516571e-15,22.741983840702495A22.741983840702495,22.741983840702495,0,1,1,4.177634657516571e-15,-22.741983840702495A22.741983840702495,22.741983840702495,0,1,1,-4.177634657516571e-15,22.741983840702495Z" fill="#0e8ee5" stroke="none"/></g><g transform="translate(721.4233680504426,381)" id="Clouded leopard"><path id="p_1127.165351891145" d="M-4.177634657516571e-15,22.741983840702495A22.741983840702495,22.741983840702495,0,1,1,4.177634657516571e-15,-22.741983840702495A22.741983840702495,22.741983840702495,0,1,1,-4.177634657516571e-15,22.741983840702495Z" fill="#0e8ee5" stroke="none"/></g><g transform="translate(646.6836688398895,450.2184747073968)" id="marbled cat"><path id="p_1121.6441273879889" d="M-4.177634657516571e-15,22.741983840702495A22.741983840702495,22.741983840702495,0,1,1,4.177634657516571e-15,-22.741983840702495A22.741983840702495,22.741983840702495,0,1,1,-4.177634657516571e-15,22.741983840702495Z" fill="#0e8ee5" stroke="none"/></g><g transform="translate(484.26987540828804,496.44092922101584)" id="cheetah"><path id="p_1005.4527884700063" d="M-4.177634657516571e-15,22.741983840702495A22.741983840702495,22.741983840702495,0,1,1,4.177634657516571e-15,-22.741983840702495A22.741983840702495,22.741983840702495,0,1,1,-4.177634657516571e-15,22.741983840702495Z" fill="#0e8ee5" stroke="none"/></g></g><g id="labels"><g transform="translate(172.24467460749378,373.248476361322)"><text text-anchor="middle" dominant-baseline="text-before-edge" transform="translate(0,-5.5)" style="stroke-width: 2px; paint-order: stroke; stroke: white; stroke-linecap: round; stroke-linejoin: round; opacity: 1;"><tspan x="0" y="0" dy="0" style="font-family: Arial, sans-serif; font-size: 10px; fill: black; font-weight: normal;">Colocolo</tspan></text></g><g transform="translate(222.56230431611243,373.248476361322)"><text text-anchor="middle" dominant-baseline="text-before-edge" transform="translate(0,-5.5)" style="stroke-width: 2px; paint-order: stroke; stroke: white; stroke-linecap: round; stroke-linejoin: round; opacity: 1;"><tspan x="0" y="0" dy="0" style="font-family: Arial, sans-serif; font-size: 10px; fill: black; font-weight: normal;">Geoffroy's cat</tspan></text></g><g transform="translate(197.4034894618031,416.8248219472043)"><text text-anchor="middle" dominant-baseline="text-before-edge" transform="translate(0,-5.5)" style="stroke-width: 2px; paint-order: stroke; stroke: white; stroke-linecap: round; stroke-linejoin: round; opacity: 1;"><tspan x="0" y="0" dy="0" style="font-family: Arial, sans-serif; font-size: 10px; fill: black; font-weight: normal;">Kodkod</tspan></text></g><g transform="translate(197.4034894618031,329.67213077543965)"><text text-anchor="middle" dominant-baseline="text-before-edge" transform="translate(0,-5.5)" style="stroke-width: 2px; paint-order: stroke; stroke: white; stroke-linecap: round; stroke-linejoin: round; opacity: 1;"><tspan x="0" y="0" dy="0" style="font-family: Arial, sans-serif; font-size: 10px; fill: black; font-weight: normal;">Southern oncilla</tspan></text></g><g transform="translate(147.08585975318442,329.67213077543965)"><text text-anchor="middle" dominant-baseline="text-before-edge" transform="translate(0,-5.5)" style="stroke-width: 2px; paint-order: stroke; stroke: white; stroke-linecap: round; stroke-linejoin: round; opacity: 0;"><tspan x="0" y="0" dy="0" style="font-family: Arial, sans-serif; font-size: 10px; fill: black; font-weight: normal;">Andean mountain cat</tspan></text></g><g transform="translate(247.7211191704218,329.67213077543965)"><text text-anchor="middle" dominant-baseline="text-before-edge" transform="translate(0,-5.5)" style="stroke-width: 2px; paint-order: stroke; stroke: white; stroke-linecap: round; stroke-linejoin: round; opacity: 1;"><tspan x="0" y="0" dy="0" style="font-family: Arial, sans-serif; font-size: 10px; fill: black; font-weight: normal;">ocelot</tspan></text></g><g transform="translate(247.7211191704218,416.8248219472043)"><text text-anchor="middle" dominant-baseline="text-before-edge" transform="translate(0,-5.5)" style="stroke-width: 2px; paint-order: stroke; stroke: white; stroke-linecap: round; stroke-linejoin: round; opacity: 0;"><tspan x="0" y="0" dy="0" style="font-family: Arial, sans-serif; font-size: 10px; fill: black; font-weight: normal;">little spotted cat</tspan></text></g><g transform="translate(147.08585975318442,416.8248219472043)"><text text-anchor="middle" dominant-baseline="text-before-edge" transform="translate(0,-5.5)" style="stroke-width: 2px; paint-order: stroke; stroke: white; stroke-linecap: round; stroke-linejoin: round; opacity: 1;"><tspan x="0" y="0" dy="0" style="font-family: Arial, sans-serif; font-size: 10px; fill: black; font-weight: normal;">margay</tspan></text></g><g transform="translate(374.27004031908814,373.248476361322)"><text text-anchor="middle" dominant-baseline="text-before-edge" transform="translate(0,-5.5)" style="stroke-width: 2px; paint-order: stroke; stroke: white; stroke-linecap: round; stroke-linejoin: round; opacity: 1;"><tspan x="0" y="0" dy="0" style="font-family: Arial, sans-serif; font-size: 10px; fill: black; font-weight: normal;">domestic cat</tspan></text></g><g transform="translate(424.5876700277068,373.248476361322)"><text text-anchor="middle" dominant-baseline="text-before-edge" transform="translate(0,-5.5)" style="stroke-width: 2px; paint-order: stroke; stroke: white; stroke-linecap: round; stroke-linejoin: round; opacity: 1;"><tspan x="0" y="0" dy="0" style="font-family: Arial, sans-serif; font-size: 10px; fill: black; font-weight: normal;">jungle cat</tspan></text></g><g transform="translate(399.4288551733975,416.8248219472043)"><text text-anchor="middle" dominant-baseline="text-before-edge" transform="translate(0,-5.5)" style="stroke-width: 2px; paint-order: stroke; stroke: white; stroke-linecap: round; stroke-linejoin: round; opacity: 1;"><tspan x="0" y="0" dy="0" style="font-family: Arial, sans-serif; font-size: 10px; fill: black; font-weight: normal;">sand cat</tspan></text></g><g transform="translate(399.4288551733975,329.67213077543965)"><text text-anchor="middle" dominant-baseline="text-before-edge" transform="translate(0,-5.5)" style="stroke-width: 2px; paint-order: stroke; stroke: white; stroke-linecap: round; stroke-linejoin: round; opacity: 1;"><tspan x="0" y="0" dy="0" style="font-family: Arial, sans-serif; font-size: 10px; fill: black; font-weight: normal;">black-footed cat</tspan></text></g><g transform="translate(349.1112254647788,329.67213077543965)"><text text-anchor="middle" dominant-baseline="text-before-edge" transform="translate(0,-5.5)" style="stroke-width: 2px; paint-order: stroke; stroke: white; stroke-linecap: round; stroke-linejoin: round; opacity: 0;"><tspan x="0" y="0" dy="0" style="font-family: Arial, sans-serif; font-size: 10px; fill: black; font-weight: normal;">wild cat</tspan></text></g><g transform="translate(301.3369369226833,516.3554828671148)"><text text-anchor="middle" dominant-baseline="text-before-edge" transform="translate(0,-5.5)" style="stroke-width: 2px; paint-order: stroke; stroke: white; stroke-linecap: round; stroke-linejoin: round; opacity: 1;"><tspan x="0" y="0" dy="0" style="font-family: Arial, sans-serif; font-size: 10px; fill: black; font-weight: normal;">leopard cat</tspan></text></g><g transform="translate(351.654566631302,516.3554828671148)"><text text-anchor="middle" dominant-baseline="text-before-edge" transform="translate(0,-5.5)" style="stroke-width: 2px; paint-order: stroke; stroke: white; stroke-linecap: round; stroke-linejoin: round; opacity: 0;"><tspan x="0" y="0" dy="0" style="font-family: Arial, sans-serif; font-size: 10px; fill: black; font-weight: normal;">Iriomote cat</tspan></text></g><g transform="translate(326.4957517769927,559.9318284529971)"><text text-anchor="middle" dominant-baseline="text-before-edge" transform="translate(0,-5.5)" style="stroke-width: 2px; paint-order: stroke; stroke: white; stroke-linecap: round; stroke-linejoin: round; opacity: 1;"><tspan x="0" y="0" dy="0" style="font-family: Arial, sans-serif; font-size: 10px; fill: black; font-weight: normal;">flat-headed cat</tspan></text></g><g transform="translate(326.4957517769927,472.77913728123247)"><text text-anchor="middle" dominant-baseline="text-before-edge" transform="translate(0,-5.5)" style="stroke-width: 2px; paint-order: stroke; stroke: white; stroke-linecap: round; stroke-linejoin: round; opacity: 1;"><tspan x="0" y="0" dy="0" style="font-family: Arial, sans-serif; font-size: 10px; fill: black; font-weight: normal;">rusty-spotted cat</tspan></text></g><g transform="translate(276.17812206837397,472.77913728123247)"><text text-anchor="middle" dominant-baseline="text-before-edge" transform="translate(0,-5.5)" style="stroke-width: 2px; paint-order: stroke; stroke: white; stroke-linecap: round; stroke-linejoin: round; opacity: 0;"><tspan x="0" y="0" dy="0" style="font-family: Arial, sans-serif; font-size: 10px; fill: black; font-weight: normal;">fishing cat</tspan></text></g><g transform="translate(275.5588914806584,238.08642927196323)"><text text-anchor="middle" dominant-baseline="text-before-edge" transform="translate(0,-5.5)" style="stroke-width: 2px; paint-order: stroke; stroke: white; stroke-linecap: round; stroke-linejoin: round; opacity: 1;"><tspan x="0" y="0" dy="0" style="font-family: Arial, sans-serif; font-size: 10px; fill: black; font-weight: normal;">Canada lynx</tspan></text></g><g transform="translate(325.8765211892771,238.08642927196323)"><text text-anchor="middle" dominant-baseline="text-before-edge" transform="translate(0,-5.5)" style="stroke-width: 2px; paint-order: stroke; stroke: white; stroke-linecap: round; stroke-linejoin: round; opacity: 0;"><tspan x="0" y="0" dy="0" style="font-family: Arial, sans-serif; font-size: 10px; fill: black; font-weight: normal;">Eurasian lynx</tspan></text></g><g transform="translate(300.7177063349678,281.6627748578456)"><text text-anchor="middle" dominant-baseline="text-before-edge" transform="translate(0,-5.5)" style="stroke-width: 2px; paint-order: stroke; stroke: white; stroke-linecap: round; stroke-linejoin: round; opacity: 1;"><tspan x="0" y="0" dy="0" style="font-family: Arial, sans-serif; font-size: 10px; fill: black; font-weight: normal;">Spanish lynx</tspan></text></g><g transform="translate(300.7177063349678,194.51008368608086)"><text text-anchor="middle" dominant-baseline="text-before-edge" transform="translate(0,-5.5)" style="stroke-width: 2px; paint-order: stroke; stroke: white; stroke-linecap: round; stroke-linejoin: round; opacity: 1;"><tspan x="0" y="0" dy="0" style="font-family: Arial, sans-serif; font-size: 10px; fill: black; font-weight: normal;">bobcat</tspan></text></g><g transform="translate(147.66271961819385,223.54555504028502)"><text text-anchor="middle" dominant-baseline="text-before-edge" transform="translate(0,-5.5)" style="stroke-width: 2px; paint-order: stroke; stroke: white; stroke-linecap: round; stroke-linejoin: round; opacity: 1;"><tspan x="0" y="0" dy="0" style="font-family: Arial, sans-serif; font-size: 10px; fill: black; font-weight: normal;">bay cat</tspan></text></g><g transform="translate(197.9803493268125,223.54555504028502)"><text text-anchor="middle" dominant-baseline="text-before-edge" transform="translate(0,-5.5)" style="stroke-width: 2px; paint-order: stroke; stroke: white; stroke-linecap: round; stroke-linejoin: round; opacity: 0;"><tspan x="0" y="0" dy="0" style="font-family: Arial, sans-serif; font-size: 10px; fill: black; font-weight: normal;">Asiatic golden cat</tspan></text></g><g transform="translate(140.82086095313684,521.6660666212531)"><text text-anchor="middle" dominant-baseline="text-before-edge" transform="translate(0,-5.5)" style="stroke-width: 2px; paint-order: stroke; stroke: white; stroke-linecap: round; stroke-linejoin: round; opacity: 1;"><tspan x="0" y="0" dy="0" style="font-family: Arial, sans-serif; font-size: 10px; fill: black; font-weight: normal;">puma</tspan></text></g><g transform="translate(191.1384906617555,521.6660666212531)"><text text-anchor="middle" dominant-baseline="text-before-edge" transform="translate(0,-5.5)" style="stroke-width: 2px; paint-order: stroke; stroke: white; stroke-linecap: round; stroke-linejoin: round; opacity: 1;"><tspan x="0" y="0" dy="0" style="font-family: Arial, sans-serif; font-size: 10px; fill: black; font-weight: normal;">jaguarundi</tspan></text></g><g transform="translate(400.420794926843,266.0906583825643)"><text text-anchor="middle" dominant-baseline="text-before-edge" transform="translate(0,-5.5)" style="stroke-width: 2px; paint-order: stroke; stroke: white; stroke-linecap: round; stroke-linejoin: round; opacity: 1;"><tspan x="0" y="0" dy="0" style="font-family: Arial, sans-serif; font-size: 10px; fill: black; font-weight: normal;">serval</tspan></text></g><g transform="translate(405.16980040146547,479.1345696284507)"><text text-anchor="middle" dominant-baseline="text-before-edge" transform="translate(0,-5.5)" style="stroke-width: 2px; paint-order: stroke; stroke: white; stroke-linecap: round; stroke-linejoin: round; opacity: 1;"><tspan x="0" y="0" dy="0" style="font-family: Arial, sans-serif; font-size: 10px; fill: black; font-weight: normal;">Pallas's cat</tspan></text></g><g transform="translate(110.35109426247854,281.39800040201095)"><text text-anchor="middle" dominant-baseline="text-before-edge" transform="translate(0,-5.5)" style="stroke-width: 2px; paint-order: stroke; stroke: white; stroke-linecap: round; stroke-linejoin: round; opacity: 1;"><tspan x="0" y="0" dy="0" style="font-family: Arial, sans-serif; font-size: 10px; fill: black; font-weight: normal;">African golden cat</tspan></text></g><g transform="translate(560.8031548701592,381)"><text text-anchor="middle" dominant-baseline="text-before-edge" transform="translate(0,-5.5)" style="stroke-width: 2px; paint-order: stroke; stroke: white; stroke-linecap: round; stroke-linejoin: round; opacity: 1;"><tspan x="0" y="0" dy="0" style="font-family: Arial, sans-serif; font-size: 10px; fill: black; font-weight: normal;">lion</tspan></text></g><g transform="translate(611.120784578778,381)"><text text-anchor="middle" dominant-baseline="text-before-edge" transform="translate(0,-5.5)" style="stroke-width: 2px; paint-order: stroke; stroke: white; stroke-linecap: round; stroke-linejoin: round; opacity: 1;"><tspan x="0" y="0" dy="0" style="font-family: Arial, sans-serif; font-size: 10px; fill: black; font-weight: normal;">jaguar</tspan></text></g><g transform="translate(585.9619697244685,424.57634558588234)"><text text-anchor="middle" dominant-baseline="text-before-edge" transform="translate(0,-5.5)" style="stroke-width: 2px; paint-order: stroke; stroke: white; stroke-linecap: round; stroke-linejoin: round; opacity: 1;"><tspan x="0" y="0" dy="0" style="font-family: Arial, sans-serif; font-size: 10px; fill: black; font-weight: normal;">leopard</tspan></text></g><g transform="translate(585.9619697244685,337.42365441411766)"><text text-anchor="middle" dominant-baseline="text-before-edge" transform="translate(0,-5.5)" style="stroke-width: 2px; paint-order: stroke; stroke: white; stroke-linecap: round; stroke-linejoin: round; opacity: 1;"><tspan x="0" y="0" dy="0" style="font-family: Arial, sans-serif; font-size: 10px; fill: black; font-weight: normal;">tiger</tspan></text></g><g transform="translate(535.6443400158499,337.42365441411766)"><text text-anchor="middle" dominant-baseline="text-before-edge" transform="translate(0,-5.5)" style="stroke-width: 2px; paint-order: stroke; stroke: white; stroke-linecap: round; stroke-linejoin: round; opacity: 1;"><tspan x="0" y="0" dy="0" style="font-family: Arial, sans-serif; font-size: 10px; fill: black; font-weight: normal;">snow leopard</tspan></text></g><g transform="translate(671.105738341824,381)"><text text-anchor="middle" dominant-baseline="text-before-edge" transform="translate(0,-5.5)" style="stroke-width: 2px; paint-order: stroke; stroke: white; stroke-linecap: round; stroke-linejoin: round; opacity: 0;"><tspan x="0" y="0" dy="0" style="font-family: Arial, sans-serif; font-size: 10px; fill: black; font-weight: normal;">Sunda clouded leopard</tspan></text></g><g transform="translate(721.4233680504426,381)"><text text-anchor="middle" dominant-baseline="text-before-edge" transform="translate(0,-5.5)" style="stroke-width: 2px; paint-order: stroke; stroke: white; stroke-linecap: round; stroke-linejoin: round; opacity: 1;"><tspan x="0" y="0" dy="0" style="font-family: Arial, sans-serif; font-size: 10px; fill: black; font-weight: normal;">Clouded leopard</tspan></text></g><g transform="translate(646.6836688398895,450.2184747073968)"><text text-anchor="middle" dominant-baseline="text-before-edge" transform="translate(0,-5.5)" style="stroke-width: 2px; paint-order: stroke; stroke: white; stroke-linecap: round; stroke-linejoin: round; opacity: 1;"><tspan x="0" y="0" dy="0" style="font-family: Arial, sans-serif; font-size: 10px; fill: black; font-weight: normal;">marbled cat</tspan></text></g><g transform="translate(484.26987540828804,496.44092922101584)"><text text-anchor="middle" dominant-baseline="text-before-edge" transform="translate(0,-5.5)" style="stroke-width: 2px; paint-order: stroke; stroke: white; stroke-linecap: round; stroke-linejoin: round; opacity: 1;"><tspan x="0" y="0" dy="0" style="font-family: Arial, sans-serif; font-size: 10px; fill: black; font-weight: normal;">cheetah</tspan></text></g></g></g></svg>