<svg xmlns="http://www.w3.org/2000/svg" width="805" height="805"><rect width="805" height="805" x="0" y="0" fill="#FFFFFF" id="backgorund"/><g id="viz" transform="translate(402.5,402.5)"><g id="cells"><path d="M127.8482508403155,-68.67618591237425L39.23810346009547,-41.711531086839784L59.73738803982564,125.31330140583607L99.87346352014433,139.33568508790532L223.04984189177952,108.8150188929259L218.63969010597992,-26.703759229912265z" fill="rgb(248, 142, 83)" stroke="#FFFFFF" stroke-width="1" id="Shanghai"/><path d="M59.73738803982564,125.31330140583607L39.23810346009547,-41.71153108683977L-142.39959359939127,13.562023345904223L-146.1256163691964,93.0486408807291L23.6988598840055,148.27630280757722z" fill="rgb(248, 142, 83)" stroke="#FFFFFF" stroke-width="1" id="Beijing"/><path d="M-146.12561636919634,93.04864088072912L-151.8342497923464,214.8299582762146L-7.212273347958927,257.1309650012319L23.6988598840055,148.27630280757722z" fill="rgb(248, 142, 83)" stroke="#FFFFFF" stroke-width="1" id="Tianjin"/><path d="M59.73738803982564,125.31330140583607L23.6988598840055,148.27630280757722L-7.212273347958938,257.13096500123186L135.053838351827,298.7428962976407L147.93704574905587,284.5719972244685L99.87346352014433,139.33568508790532z" fill="rgb(248, 142, 83)" stroke="#FFFFFF" stroke-width="1" id="Guangzhou"/><path d="M225.97601701597532,198.7329393330636L223.04984189177952,108.81501889292592L99.87346352014433,139.33568508790532L147.93704574905584,284.5719972244685z" fill="rgb(248, 142, 83)" stroke="#FFFFFF" stroke-width="1" id="Shenzhen"/><path d="M317.53917029216694,230.70571152479556L373.28968264584785,121.28917029216686L384.5793062076596,50.00929242866651L218.63969010597992,-26.703759229912265L225.97601701597532,198.73293933306357L312.33591015200113,235.90897166496137z" fill="rgb(248, 142, 83)" stroke="#FFFFFF" stroke-width="1" id="Karachi"/><path d="M121.28917029216703,373.28968264584785L147.6774894950673,359.84416244258756L135.053838351827,298.7428962976407L-33.32118773708631,249.49427388200857L-62.081795539147805,382.6672095591898L-9.237055564881302e-14,392.5z" fill="rgb(248, 142, 83)" stroke="#FFFFFF" stroke-width="1" id="Delhi"/><path d="M-121.2891702921668,373.28968264584785L-62.081795539147784,382.6672095591898L-33.32118773708629,249.49427388200849L-151.83424979234638,214.82995827621454L-158.37641126745666,354.3927895174051z" fill="rgb(248, 142, 83)" stroke="#FFFFFF" stroke-width="1" id="Mumbai"/><path d="M-6.49145159735275,-130.78075608676951L-32.036737245476836,-124.77986412703848L-141.04928761204943,-15.24382734309404L-142.39959359939112,13.56202334590417L127.84825084031567,-68.67618591237431z" fill="rgb(248, 142, 83)" stroke="#FFFFFF" stroke-width="1" id="Tokyo"/><path d="M225.97601701597534,198.7329393330636L135.05383835182698,298.7428962976407L147.67748949506733,359.84416244258756L230.7057115247956,317.5391702921669L312.33591015200125,235.90897166496134z" fill="rgb(248, 142, 83)" stroke="#FFFFFF" stroke-width="1" id="Jakarta"/><path d="M356.0880519806767,-155.04927134745145L235.2004734716623,-103.22361552644276L220.96048643020583,-25.630866737499346L384.57930620765956,50.00929242866647L392.5,-2.1316282072803006e-13L373.2896826458479,-121.28917029216693z" fill="rgb(158, 1, 66)" stroke="#FFFFFF" stroke-width="1" id="Lagos"/><path d="M317.5391702921669,-230.70571152479573L269.8971792600969,-278.34770255686567L233.3883839477312,-261.3582479483582L229.5797985476781,-107.02374369387152L235.20047347166226,-103.22361552644276L356.0880519806767,-155.04927134745142z" fill="rgb(158, 1, 66)" stroke="#FFFFFF" stroke-width="1" id="Cairo"/><path d="M202.9300378737453,-125.04159876677473L229.5797985476781,-107.02374369387155L233.3883839477312,-261.3582479483582L201.21634499243476,-246.38691321058852L177.24107431539196,-201.8600132455726z" fill="rgb(158, 1, 66)" stroke="#FFFFFF" stroke-width="1" id="Alexandria"/><path d="M112.69794555941674,-80.81493299955623L112.84827105914013,-202.63151038006365L41.901748617014704,-219.41500192861986L-6.4914515973529205,-130.78075608676943L110.24429458689714,-76.8144065325566z" fill="rgb(158, 1, 66)" stroke="#FFFFFF" stroke-width="1" id="Kinshasa-Brazzaville"/><path d="M202.9300378737453,-125.04159876677471L177.24107431539196,-201.86001324557253L114.93457728192155,-203.95545904139692L112.84827105914012,-202.63151038006365L112.69794555941675,-80.81493299955618z" fill="rgb(158, 1, 66)" stroke="#FFFFFF" stroke-width="1" id="Mogadishu"/><path d="M235.20047347166226,-103.22361552644276L202.93003787374528,-125.04159876677473L112.69794555941675,-80.8149329995562L110.2442945868972,-76.81440653255665L220.96048643020578,-25.63086673749924z" fill="rgb(158, 1, 66)" stroke="#FFFFFF" stroke-width="1" id="Khartoum-Omdurman"/><path d="M201.21634499243476,-246.38691321058852L166.5024684774163,-291.51492331140645L116.71373266954342,-281.8590343762705L114.93457728192156,-203.95545904139692L177.24107431539196,-201.86001324557256z" fill="rgb(158, 1, 66)" stroke="#FFFFFF" stroke-width="1" id="Luanda"/><path d="M124.90853140703528,-371.4455260469118L86.67450303228915,-301.41824420814214L116.7137326695434,-281.8590343762705L166.5024684774163,-291.51492331140645L187.05259432751336,-339.7815444539451z" fill="rgb(158, 1, 66)" stroke="#FFFFFF" stroke-width="1" id="Dar es Salaam"/><path d="M269.8971792600969,-278.34770255686567L230.70571152479562,-317.5391702921669L187.05259432751336,-339.7815444539451L166.5024684774163,-291.51492331140645L201.21634499243476,-246.38691321058852z" fill="rgb(158, 1, 66)" stroke="#FFFFFF" stroke-width="1" id="Abidjan"/><path d="M86.67450303228911,-301.41824420814214L41.901748617014725,-219.41500192861992L112.8482710591401,-202.63151038006365L114.93457728192158,-203.95545904139692L116.71373266954342,-281.8590343762704z" fill="rgb(158, 1, 66)" stroke="#FFFFFF" stroke-width="1" id="Greater Johannesburg"/><path d="M-189.3357677340017,-265.55148429034546L-246.3888061708604,-301.8560756461022L-317.5391702921669,-230.7057115247957L-341.876014985749,-182.94196445832424L-309.097216609704,-143.97081567315442L-248.62751075202038,-128.6481796418567L-172.61818972112252,-220.16795870151805z" fill="rgb(251, 248, 176)" stroke="#FFFFFF" stroke-width="1" id="Istanbul"/><path d="M-101.3231036557824,-215.9032982639329L-172.61818972112258,-220.16795870151802L-248.6275107520204,-128.64817964185667L-234.66731220266988,-88.7308158027748L-87.97725418192613,-102.70810006920061z" fill="rgb(251, 248, 176)" stroke="#FFFFFF" stroke-width="1" id="Moscow"/><path d="M-227.97643960317225,-69.59913977317294L-123.48413923475852,-32.89332487618132L-84.3787241615369,-72.18652707636846L-87.97725418192613,-102.7081000692006L-234.6673122026699,-88.7308158027748z" fill="rgb(251, 248, 176)" stroke="#FFFFFF" stroke-width="1" id="Saint Petersburg"/><path d="M-246.41429102015957,-27.638605527055503L-227.9764396031722,-69.59913977317295L-248.62751075202033,-128.6481796418567L-309.097216609704,-143.97081567315442L-351.3476317158817,-100.63756924797903L-340.67418657369956,-38.72701685186907z" fill="rgb(251, 248, 176)" stroke="#FFFFFF" stroke-width="1" id="London"/><path d="M-32.036737245476886,-124.77986412703845L-98.35460065991259,-217.97146895158946L-101.3231036557824,-215.90329826393287L-84.37872416153688,-72.18652707636849z" fill="rgb(251, 248, 176)" stroke="#FFFFFF" stroke-width="1" id="Berlin"/><path d="M-154.37797660053894,-296.69698938896323L-189.33576773400176,-265.5514842903455L-172.61818972112255,-220.167958701518L-101.32310365578246,-215.90329826393287L-98.35460065991258,-217.97146895158951z" fill="rgb(251, 248, 176)" stroke="#FFFFFF" stroke-width="1" id="Madrid"/><path d="M-227.97643960317222,-69.59913977317291L-246.41429102015957,-27.638605527055482L-141.04928761204948,-15.243827343093969L-123.48413923475854,-32.893324876181296z" fill="rgb(251, 248, 176)" stroke="#FFFFFF" stroke-width="1" id="Kiev"/><path d="M-154.37797660053894,-296.69698938896323L-185.57424255930394,-340.534802303153L-230.7057115247958,-317.5391702921669L-246.38880617086036,-301.8560756461023L-189.33576773400176,-265.5514842903455z" fill="rgb(251, 248, 176)" stroke="#FFFFFF" stroke-width="1" id="Rome"/><path d="M-341.876014985749,-182.94196445832424L-373.2896826458478,-121.2891702921669L-375.4944077785086,-107.3690836463874L-351.3476317158817,-100.63756924797904L-309.097216609704,-143.97081567315442z" fill="rgb(251, 248, 176)" stroke="#FFFFFF" stroke-width="1" id="Paris"/><path d="M-375.4944077785086,-107.3690836463874L-385.530489306554,-44.0037586972887L-340.67418657369956,-38.72701685186908L-351.3476317158817,-100.63756924797906z" fill="rgb(251, 248, 176)" stroke="#FFFFFF" stroke-width="1" id="Minsk"/><path d="M-121.28917029216686,-373.2896826458478L-167.36298384752595,-349.813902084131L-103.81224888236014,-250.72785646513094L-19.89922945057957,-341.01265017008564L-34.2845635689179,-387.06985858736596z" fill="rgb(137, 207, 165)" stroke="#FFFFFF" stroke-width="1" id="Mexico City"/><path d="M-103.81224888236015,-250.72785646513097L-167.36298384752595,-349.813902084131L-185.57424255930388,-340.534802303153L-113.92331111504669,-239.84903010424415z" fill="rgb(137, 207, 165)" stroke="#FFFFFF" stroke-width="1" id="Ecatepec de Morelos"/><path d="M-17.255196916322603,-262.94218267657453L-83.45728187702893,-197.03736502420554L-32.03673724547684,-124.77986412703845L-6.491451597352864,-130.78075608676946L50.84660144480324,-235.79788797553164L14.174165998676736,-264.58919041314294z" fill="rgb(137, 207, 165)" stroke="#FFFFFF" stroke-width="1" id="New York City"/><path d="M-83.45728187702892,-197.03736502420554L-17.255196916322603,-262.94218267657453L-52.087461640286726,-306.3802662724058L-113.92331111504663,-239.84903010424415z" fill="rgb(137, 207, 165)" stroke="#FFFFFF" stroke-width="1" id="Los Angeles"/><path d="M14.174165998676736,-264.58919041314294L50.84660144480324,-235.79788797553164L85.79012959122352,-299.79847588027405L65.39731056492985,-319.55370628057415L50.16721024607344,-323.3853021239055L15.07820697559174,-274.21609752806955z" fill="rgb(137, 207, 165)" stroke="#FFFFFF" stroke-width="1" id="Chicago"/><path d="M-19.899229450579575,-341.01265017008564L-34.61360895270309,-325.1809624672535L15.07820697559174,-274.21609752806955L50.16721024607343,-323.3853021239055z" fill="rgb(137, 207, 165)" stroke="#FFFFFF" stroke-width="1" id="Houston"/><path d="M-52.08746164028672,-306.3802662724058L-17.255196916322603,-262.94218267657453L14.174165998676736,-264.58919041314294L15.07820697559174,-274.21609752806955L-34.61360895270308,-325.1809624672535z" fill="rgb(137, 207, 165)" stroke="#FFFFFF" stroke-width="1" id="Philadelphia"/><path d="M-19.899229450579575,-341.01265017008564L29.663276406195344,-328.54369149942056L42.36216221889508,-385.7904926460231L-9.237055564881302e-14,-392.5L-34.284563568917896,-387.06985858736596z" fill="rgb(137, 207, 165)" stroke="#FFFFFF" stroke-width="1" id="Toronto"/><path d="M77.12574384364116,-380.28448222671136L42.362162218895065,-385.7904926460231L29.663276406195333,-328.54369149942056L65.3973105649298,-319.5537062805742z" fill="rgb(137, 207, 165)" stroke="#FFFFFF" stroke-width="1" id="Montreal"/><path d="M121.28917029216682,-373.28968264584785L77.12574384364117,-380.28448222671136L65.39731056492982,-319.5537062805742L85.79012959122356,-299.7984758802741L124.9085314070353,-371.4455260469118z" fill="rgb(137, 207, 165)" stroke="#FFFFFF" stroke-width="1" id="Havana"/><path d="M-251.1067701018426,60.78129907711007L-250.4873270610727,-28.11774353900865L-385.53048930655393,-44.00375869728864L-392.5,1.2789769243681803e-13L-383.89311185339494,54.3417530722667L-317.5314670726904,84.2817138653356L-263.7175523335633,74.15815351744362z" fill="rgb(94, 79, 162)" stroke="#FFFFFF" stroke-width="1" id="São Paulo"/><path d="M-345.2810256963268,176.25925466638665L-231.85683395685237,152.49441357707755L-263.7175523335633,74.15815351744362L-317.5314670726904,84.2817138653356L-358.1469290528549,151.00849757605067z" fill="rgb(94, 79, 162)" stroke="#FFFFFF" stroke-width="1" id="Rio de Janeiro"/><path d="M-218.56413053217506,149.70930239673638L-205.39570366772602,135.47246227797848L-207.84772816156124,61.1241745755331L-251.1067701018426,60.78129907711007L-263.7175523335633,74.15815351744362L-231.85683395685237,152.49441357707755z" fill="rgb(94, 79, 162)" stroke="#FFFFFF" stroke-width="1" id="Salvador"/><path d="M-250.4873270610727,-28.117743539008643L-251.1067701018426,60.78129907711007L-207.8477281615612,61.1241745755331L-210.63633899679976,-23.42980977076146z" fill="rgb(94, 79, 162)" stroke="#FFFFFF" stroke-width="1" id="Brasília"/><path d="M-373.2896826458479,121.2891702921668L-358.1469290528549,151.00849757605067L-317.5314670726904,84.2817138653356L-383.89311185339494,54.3417530722667z" fill="rgb(94, 79, 162)" stroke="#FFFFFF" stroke-width="1" id="Fortaleza"/><path d="M-218.56413053217506,149.70930239673638L-345.28102569632694,176.25925466638665L-317.5391702921671,230.7057115247956L-263.0985536077795,285.14632820918314L-200.06428545601068,194.67197877412252z" fill="rgb(94, 79, 162)" stroke="#FFFFFF" stroke-width="1" id="Lima"/><path d="M-210.63633899679976,-23.429809770761384L-205.39570366772602,135.47246227797845L-148.17189419671632,136.7015418678531L-141.04928761204937,-15.243827343093955z" fill="rgb(94, 79, 162)" stroke="#FFFFFF" stroke-width="1" id="Bogotá"/><path d="M-200.06428545601068,194.67197877412255L-263.0985536077795,285.14632820918314L-251.3146658804771,296.9302159364855L-154.77598162829128,277.58542913072887L-151.47593348953748,207.18605680876408z" fill="rgb(94, 79, 162)" stroke="#FFFFFF" stroke-width="1" id="Santiago"/><path d="M-251.31466588047707,296.9302159364856L-230.70571152479582,317.53917029216683L-158.37641126745666,354.3927895174051L-154.77598162829128,277.5854291307289z" fill="rgb(94, 79, 162)" stroke="#FFFFFF" stroke-width="1" id="Caracas"/><path d="M-205.39570366772602,135.47246227797845L-218.56413053217506,149.70930239673638L-200.06428545601068,194.67197877412255L-151.47593348953748,207.18605680876408L-148.17189419671615,136.7015418678531z" fill="rgb(94, 79, 162)" stroke="#FFFFFF" stroke-width="1" id="Buenos Aires"/><path d="M218.63969010597992,-26.703759229912265L127.84825084031547,-68.67618591237425L-142.3995935993912,13.562023345904208L-151.83424979234644,214.8299582762146L135.053838351827,298.7428962976407L225.97601701597532,198.7329393330636z" fill="none" stroke="#FFFFFF" stroke-width="2" id="China"/><path d="M218.63969010597992,-26.70375922991228L225.97601701597532,198.7329393330636L312.3359101520012,235.90897166496137L317.5391702921669,230.70571152479567L373.28968264584785,121.28917029216677L384.5793062076596,50.00929242866653z" fill="none" stroke="#FFFFFF" stroke-width="2" id="Pakistan"/><path d="M-151.83424979234636,214.82995827621463L-158.37641126745663,354.3927895174051L-121.28917029216683,373.28968264584785L-8.526512829121202e-14,392.5L121.28917029216701,373.28968264584785L147.6774894950673,359.84416244258756L135.053838351827,298.7428962976407z" fill="none" stroke="#FFFFFF" stroke-width="2" id="India"/><path d="M-141.04928761204945,-15.24382734309404L-142.39959359939115,13.562023345904182L127.84825084031564,-68.6761859123743L-6.491451597352807,-130.7807560867695L-32.03673724547687,-124.77986412703846z" fill="none" stroke="#FFFFFF" stroke-width="2" id="Japan"/><path d="M230.70571152479562,317.5391702921669L312.33591015200125,235.90897166496134L225.97601701597532,198.7329393330636L135.053838351827,298.7428962976407L147.67748949506733,359.84416244258756z" fill="none" stroke="#FFFFFF" stroke-width="2" id="Indonesia"/><path d="M384.5793062076596,50.00929242866653L392.5,-5.684341886080802e-14L373.28968264584785,-121.28917029216703L356.0880519806767,-155.04927134745145L235.20047347166226,-103.22361552644276L220.9604864302058,-25.630866737499318z" fill="none" stroke="#FFFFFF" stroke-width="2" id="Nigeria"/><path d="M177.24107431539196,-201.86001324557256L202.9300378737453,-125.04159876677471L235.20047347166226,-103.22361552644276L356.0880519806767,-155.04927134745142L317.53917029216694,-230.70571152479567L269.8971792600969,-278.34770255686567L201.21634499243476,-246.38691321058852z" fill="none" stroke="#FFFFFF" stroke-width="2" id="Egypt"/><path d="M41.901748617014746,-219.41500192861986L-6.4914515973529205,-130.78075608676943L110.24429458689717,-76.8144065325566L112.69794555941674,-80.81493299955619L112.84827105914012,-202.63151038006365z" fill="none" stroke="#FFFFFF" stroke-width="2" id="Democratic Republic of the Congo"/><path d="M177.24107431539196,-201.86001324557256L114.93457728192156,-203.95545904139692L112.84827105914012,-202.63151038006365L112.69794555941674,-80.81493299955619L202.9300378737453,-125.04159876677471z" fill="none" stroke="#FFFFFF" stroke-width="2" id="Somalia"/><path d="M112.69794555941674,-80.81493299955619L110.2442945868972,-76.81440653255665L220.96048643020578,-25.63086673749922L235.20047347166226,-103.22361552644276L202.9300378737453,-125.04159876677471z" fill="none" stroke="#FFFFFF" stroke-width="2" id="Sudan"/><path d="M116.7137326695434,-281.8590343762705L114.93457728192156,-203.95545904139692L177.24107431539196,-201.86001324557256L201.21634499243476,-246.38691321058852L166.5024684774163,-291.51492331140645z" fill="none" stroke="#FFFFFF" stroke-width="2" id="Angola"/><path d="M86.67450303228915,-301.41824420814214L116.7137326695434,-281.8590343762705L166.5024684774163,-291.51492331140645L187.05259432751336,-339.7815444539451L124.90853140703527,-371.4455260469118z" fill="none" stroke="#FFFFFF" stroke-width="2" id="Tanzania"/><path d="M230.70571152479562,-317.5391702921669L187.05259432751336,-339.7815444539451L166.5024684774163,-291.51492331140645L201.21634499243476,-246.38691321058852L269.8971792600969,-278.34770255686567z" fill="none" stroke="#FFFFFF" stroke-width="2" id="Ivory Coast"/><path d="M116.7137326695434,-281.8590343762705L86.67450303228912,-301.41824420814214L41.90174861701473,-219.4150019286199L112.84827105914012,-202.63151038006365L114.93457728192156,-203.95545904139692z" fill="none" stroke="#FFFFFF" stroke-width="2" id="South Africa"/><path d="M-248.62751075202036,-128.6481796418567L-172.61818972112255,-220.16795870151802L-189.33576773400176,-265.5514842903455L-246.3888061708604,-301.8560756461022L-317.5391702921669,-230.70571152479567L-341.876014985749,-182.94196445832424L-309.097216609704,-143.97081567315442z" fill="none" stroke="#FFFFFF" stroke-width="2" id="Turkey"/><path d="M-248.62751075202036,-128.6481796418567L-227.97643960317222,-69.59913977317292L-123.48413923475853,-32.893324876181296L-84.3787241615369,-72.18652707636846L-101.3231036557824,-215.9032982639329L-172.61818972112255,-220.16795870151802z" fill="none" stroke="#FFFFFF" stroke-width="2" id="Russia"/><path d="M-248.62751075202036,-128.6481796418567L-309.097216609704,-143.97081567315442L-351.3476317158817,-100.63756924797904L-340.67418657369956,-38.72701685186906L-246.41429102015957,-27.638605527055503L-227.97643960317222,-69.59913977317292z" fill="none" stroke="#FFFFFF" stroke-width="2" id="United Kingdom"/><path d="M-98.35460065991259,-217.9714689515895L-101.3231036557824,-215.9032982639329L-84.3787241615369,-72.18652707636846L-32.03673724547688,-124.77986412703845z" fill="none" stroke="#FFFFFF" stroke-width="2" id="Germany"/><path d="M-101.3231036557824,-215.9032982639329L-98.35460065991258,-217.97146895158951L-154.37797660053894,-296.69698938896323L-189.33576773400176,-265.5514842903455L-172.61818972112255,-220.16795870151802z" fill="none" stroke="#FFFFFF" stroke-width="2" id="Spain"/><path d="M-141.04928761204948,-15.243827343093983L-123.48413923475854,-32.8933248761813L-227.97643960317222,-69.59913977317292L-246.41429102015957,-27.63860552705549z" fill="none" stroke="#FFFFFF" stroke-width="2" id="Ukraine"/><path d="M-185.57424255930394,-340.534802303153L-230.7057115247958,-317.5391702921669L-246.38880617086036,-301.8560756461023L-189.33576773400176,-265.5514842903455L-154.37797660053894,-296.69698938896323z" fill="none" stroke="#FFFFFF" stroke-width="2" id="Italy"/><path d="M-309.097216609704,-143.97081567315442L-341.876014985749,-182.94196445832424L-373.2896826458478,-121.28917029216693L-375.4944077785086,-107.3690836463874L-351.3476317158817,-100.63756924797904z" fill="none" stroke="#FFFFFF" stroke-width="2" id="France"/><path d="M-340.67418657369956,-38.72701685186907L-351.3476317158817,-100.63756924797904L-375.4944077785086,-107.3690836463874L-385.530489306554,-44.003758697288696z" fill="none" stroke="#FFFFFF" stroke-width="2" id="Belarus"/><path d="M-113.92331111504666,-239.84903010424415L-19.899229450579572,-341.01265017008564L-34.2845635689179,-387.06985858736596L-121.28917029216689,-373.2896826458478L-185.57424255930388,-340.534802303153z" fill="none" stroke="#FFFFFF" stroke-width="2" id="Mexico"/><path d="M-19.899229450579572,-341.01265017008564L-113.92331111504663,-239.84903010424415L-32.03673724547684,-124.77986412703845L-6.491451597352864,-130.78075608676946L85.79012959122356,-299.79847588027405L65.39731056492981,-319.5537062805742z" fill="none" stroke="#FFFFFF" stroke-width="2" id="United States"/><path d="M-8.526512829121202e-14,-392.5L-34.284563568917896,-387.06985858736596L-19.899229450579572,-341.01265017008564L65.39731056492981,-319.5537062805742L77.12574384364116,-380.28448222671136z" fill="none" stroke="#FFFFFF" stroke-width="2" id="Canada"/><path d="M124.90853140703528,-371.4455260469118L121.2891702921668,-373.28968264584785L77.12574384364116,-380.28448222671136L65.39731056492981,-319.5537062805742L85.79012959122355,-299.7984758802741z" fill="none" stroke="#FFFFFF" stroke-width="2" id="Cuba"/><path d="M-210.63633899679976,-23.429809770761466L-385.53048930655393,-44.003758697288646L-392.5,1.1368683772161603e-13L-373.28968264584785,121.28917029216687L-345.2810256963268,176.25925466638665L-218.56413053217506,149.70930239673638L-205.39570366772602,135.47246227797845z" fill="none" stroke="#FFFFFF" stroke-width="2" id="Brazil"/><path d="M-317.539170292167,230.70571152479567L-263.0985536077795,285.14632820918314L-200.06428545601068,194.67197877412255L-218.56413053217506,149.70930239673638L-345.2810256963269,176.25925466638665z" fill="none" stroke="#FFFFFF" stroke-width="2" id="Peru"/><path d="M-141.0492876120494,-15.243827343093955L-210.63633899679976,-23.42980977076138L-205.39570366772602,135.47246227797845L-148.17189419671632,136.7015418678531z" fill="none" stroke="#FFFFFF" stroke-width="2" id="Colombia"/><path d="M-251.31466588047707,296.9302159364856L-154.77598162829128,277.5854291307289L-151.47593348953748,207.18605680876408L-200.06428545601068,194.67197877412255L-263.0985536077795,285.14632820918314z" fill="none" stroke="#FFFFFF" stroke-width="2" id="Chile"/><path d="M-154.77598162829128,277.5854291307289L-251.31466588047707,296.9302159364856L-230.7057115247958,317.53917029216683L-158.37641126745666,354.3927895174051z" fill="none" stroke="#FFFFFF" stroke-width="2" id="Venezuela"/><path d="M-151.47593348953748,207.18605680876408L-148.17189419671615,136.7015418678531L-205.39570366772602,135.47246227797845L-218.56413053217506,149.70930239673638L-200.06428545601068,194.67197877412255z" fill="none" stroke="#FFFFFF" stroke-width="2" id="Argentina"/><path d="M-121.2891702921669,373.28968264584785L-4.263256414560601e-14,392.5L121.28917029216696,373.28968264584785L230.70571152479562,317.53917029216694L317.5391702921669,230.70571152479567L373.28968264584785,121.28917029216679L384.5793062076596,50.00929242866653L-6.491451597352932,-130.78075608676946L-32.03673724547687,-124.77986412703846L-141.04928761204945,-15.243827343093994L-158.37641126745666,354.3927895174051z" fill="none" stroke="#FFFFFF" stroke-width="3" id="Asia"/><path d="M392.5,7.105427357601002e-15L373.28968264584785,-121.28917029216703L317.53917029216694,-230.7057115247957L230.70571152479562,-317.5391702921669L124.90853140703527,-371.4455260469118L-6.491451597352932,-130.78075608676946L384.5793062076596,50.009292428666555z" fill="none" stroke="#FFFFFF" stroke-width="3" id="Africa"/><path d="M-230.70571152479582,-317.53917029216683L-317.5391702921669,-230.70571152479567L-373.2896826458478,-121.289170292167L-385.530489306554,-44.00375869728869L-141.04928761204945,-15.243827343093994L-32.03673724547687,-124.77986412703846L-185.57424255930394,-340.53480230315296z" fill="none" stroke="#FFFFFF" stroke-width="3" id="Europe"/><path d="M-6.491451597352932,-130.78075608676946L124.90853140703528,-371.4455260469118L121.28917029216682,-373.28968264584785L-2.842170943040401e-14,-392.5L-121.28917029216689,-373.2896826458478L-185.57424255930388,-340.534802303153L-32.03673724547687,-124.77986412703846z" fill="none" stroke="#FFFFFF" stroke-width="3" id="North America"/><path d="M-392.5,2.8421709430404007e-13L-373.28968264584785,121.28917029216682L-317.53917029216694,230.70571152479573L-230.7057115247957,317.5391702921669L-158.37641126745666,354.3927895174051L-141.04928761204945,-15.243827343093994L-385.53048930655393,-44.00375869728867z" fill="none" stroke="#FFFFFF" stroke-width="3" id="South America"/><path d="M373.28968264584785,-121.28917029216697L317.5391702921669,-230.7057115247958L230.70571152479565,-317.5391702921669L121.28917029216677,-373.28968264584785L-1.1368683772161603e-13,-392.5L-121.28917029216692,-373.2896826458478L-230.7057115247958,-317.5391702921669L-317.5391702921669,-230.70571152479567L-373.2896826458478,-121.28917029216697L-392.5,1.1368683772161603e-13L-373.2896826458478,121.28917029216689L-317.5391702921669,230.7057115247958L-230.70571152479567,317.5391702921669L-121.28917029216686,373.28968264584785L0,392.5L121.28917029216689,373.28968264584785L230.70571152479567,317.5391702921669L317.5391702921669,230.70571152479567L373.28968264584785,121.28917029216689L392.5,0z" fill="none" stroke="#FFFFFF" stroke-width="4"/></g><g id="labels"><text text-anchor="middle" dominant-baseline="text-before-edge" transform="translate(131.5806405196286,29.113335858534718)"><tspan x="3" y="0.2em" style="font-family: Arial, sans-serif; font-size: 10px; fill: black; font-weight: normal;">Shanghai</tspan></text><text text-anchor="middle" dominant-baseline="text-before-edge" transform="translate(-33.38700602471317,49.36013798066283)"><tspan x="3" y="0.2em" style="font-family: Arial, sans-serif; font-size: 10px; fill: black; font-weight: normal;">Beijing</tspan></text><text text-anchor="middle" dominant-baseline="text-before-edge" transform="translate(-72.41343956110788,169.366008302084)"><tspan x="3" y="0.2em" style="font-family: Arial, sans-serif; font-size: 10px; fill: black; font-weight: normal;">Tianjin</tspan></text><text text-anchor="middle" dominant-baseline="text-before-edge" transform="translate(68.59134888556875,209.40671684120113)"><tspan x="3" y="0.2em" style="font-family: Arial, sans-serif; font-size: 10px; fill: black; font-weight: normal;">Guangzhou</tspan></text><text text-anchor="middle" dominant-baseline="text-before-edge" transform="translate(168.09461948676764,176.4777367656848)"><tspan x="3" y="0.2em" style="font-family: Arial, sans-serif; font-size: 10px; fill: black; font-weight: normal;">Shenzhen</tspan></text><text text-anchor="middle" dominant-baseline="text-before-edge" transform="translate(290.76741907587444,100.07861229425309)"><tspan x="3" y="0.2em" style="font-family: Arial, sans-serif; font-size: 10px; fill: black; font-weight: normal;">Karachi</tspan></text><text text-anchor="middle" dominant-baseline="text-before-edge" transform="translate(36.91580303244578,324.0955946673007)"><tspan x="3" y="0.2em" style="font-family: Arial, sans-serif; font-size: 10px; fill: black; font-weight: normal;">Delhi</tspan></text><text text-anchor="middle" dominant-baseline="text-before-edge" transform="translate(-100.2394532390233,294.47494754740046)"><tspan x="3" y="0.2em" style="font-family: Arial, sans-serif; font-size: 10px; fill: black; font-weight: normal;">Mumbai</tspan></text><text text-anchor="middle" dominant-baseline="text-before-edge" transform="translate(-20.27224232876077,-67.35173394510275)"><tspan x="3" y="0.2em" style="font-family: Arial, sans-serif; font-size: 10px; fill: black; font-weight: normal;">Tokyo</tspan></text><text text-anchor="middle" dominant-baseline="text-before-edge" transform="translate(213.91676106500103,269.45373234971)"><tspan x="3" y="0.2em" style="font-family: Arial, sans-serif; font-size: 10px; fill: black; font-weight: normal;">Jakarta</tspan></text><text text-anchor="middle" dominant-baseline="text-before-edge" transform="translate(316.518748926311,-60.00590211266378)"><tspan x="3" y="0.2em" style="font-family: Arial, sans-serif; font-size: 10px; fill: black; font-weight: normal;">Lagos</tspan></text><text text-anchor="middle" dominant-baseline="text-before-edge" transform="translate(285.97534789205383,-193.11770042131405)"><tspan x="3" y="0.2em" style="font-family: Arial, sans-serif; font-size: 10px; fill: black; font-weight: normal;">Cairo</tspan></text><text text-anchor="middle" dominant-baseline="text-before-edge" transform="translate(218.8684056295433,-194.77373010681953)"><tspan x="3" y="0.2em" style="font-family: Arial, sans-serif; font-size: 10px; fill: black; font-weight: normal;">Alexandria</tspan></text><text text-anchor="middle" dominant-baseline="text-before-edge" transform="translate(65.45603227556899,-157.25593577333441)"><tspan x="3" y="0.2em" style="font-family: Arial, sans-serif; font-size: 10px; fill: black; font-weight: normal;">Kinshasa-Brazzaville</tspan></text><text text-anchor="middle" dominant-baseline="text-before-edge" transform="translate(149.40823338022855,-154.5019103058747)"><tspan x="3" y="0.2em" style="font-family: Arial, sans-serif; font-size: 10px; fill: black; font-weight: normal;">Mogadishu</tspan></text><text text-anchor="middle" dominant-baseline="text-before-edge" transform="translate(186.26698271513973,-83.61846583346428)"><tspan x="3" y="0.2em" style="font-family: Arial, sans-serif; font-size: 10px; fill: black; font-weight: normal;">Khartoum-Omdurman</tspan></text><text text-anchor="middle" dominant-baseline="text-before-edge" transform="translate(152.698840375863,-249.62276187795985)"><tspan x="3" y="0.2em" style="font-family: Arial, sans-serif; font-size: 10px; fill: black; font-weight: normal;">Luanda</tspan></text><text text-anchor="middle" dominant-baseline="text-before-edge" transform="translate(136.93377058365422,-327.83286244868464)"><tspan x="3" y="0.2em" style="font-family: Arial, sans-serif; font-size: 10px; fill: black; font-weight: normal;">Dar es Salaam</tspan></text><text text-anchor="middle" dominant-baseline="text-before-edge" transform="translate(211.48691495329547,-296.762972145195)"><tspan x="3" y="0.2em" style="font-family: Arial, sans-serif; font-size: 10px; fill: black; font-weight: normal;">Abidjan</tspan></text><text text-anchor="middle" dominant-baseline="text-before-edge" transform="translate(87.74079236942508,-252.06824615108607)"><tspan x="3" y="0.2em" style="font-family: Arial, sans-serif; font-size: 10px; fill: black; font-weight: normal;">Greater Johannesburg</tspan></text><text text-anchor="middle" dominant-baseline="text-before-edge" transform="translate(-255.78428381442637,-216.79941430822825)"><tspan x="3" y="0.2em" style="font-family: Arial, sans-serif; font-size: 10px; fill: black; font-weight: normal;">Istanbul</tspan></text><text text-anchor="middle" dominant-baseline="text-before-edge" transform="translate(-159.99443389940615,-156.15576858135384)"><tspan x="3" y="0.2em" style="font-family: Arial, sans-serif; font-size: 10px; fill: black; font-weight: normal;">Moscow</tspan></text><text text-anchor="middle" dominant-baseline="text-before-edge" transform="translate(-152.66075761114428,-79.18964413795509)"><tspan x="3" y="0.2em" style="font-family: Arial, sans-serif; font-size: 10px; fill: black; font-weight: normal;">Saint Petersburg</tspan></text><text text-anchor="middle" dominant-baseline="text-before-edge" transform="translate(-289.7680044090857,-88.15858274587859)"><tspan x="3" y="0.2em" style="font-family: Arial, sans-serif; font-size: 10px; fill: black; font-weight: normal;">London</tspan></text><text text-anchor="middle" dominant-baseline="text-before-edge" transform="translate(-72.79790152723434,-145.45343624531793)"><tspan x="3" y="0.2em" style="font-family: Arial, sans-serif; font-size: 10px; fill: black; font-weight: normal;">Berlin</tspan></text><text text-anchor="middle" dominant-baseline="text-before-edge" transform="translate(-149.42664092227454,-254.1404630580916)"><tspan x="3" y="0.2em" style="font-family: Arial, sans-serif; font-size: 10px; fill: black; font-weight: normal;">Madrid</tspan></text><text text-anchor="middle" dominant-baseline="text-before-edge" transform="translate(-190.85969657094836,-43.65680857479399)"><tspan x="3" y="0.2em" style="font-family: Arial, sans-serif; font-size: 10px; fill: black; font-weight: normal;">Kiev</tspan></text><text text-anchor="middle" dominant-baseline="text-before-edge" transform="translate(-197.18829329044598,-308.4350073010648)"><tspan x="3" y="0.2em" style="font-family: Arial, sans-serif; font-size: 10px; fill: black; font-weight: normal;">Rome</tspan></text><text text-anchor="middle" dominant-baseline="text-before-edge" transform="translate(-344.1209688444703,-143.1557410737795)"><tspan x="3" y="0.2em" style="font-family: Arial, sans-serif; font-size: 10px; fill: black; font-weight: normal;">Paris</tspan></text><text text-anchor="middle" dominant-baseline="text-before-edge" transform="translate(-363.4781243264739,-75.13995182686732)"><tspan x="3" y="0.2em" style="font-family: Arial, sans-serif; font-size: 10px; fill: black; font-weight: normal;">Minsk</tspan></text><text text-anchor="middle" dominant-baseline="text-before-edge" transform="translate(-88.01886049258039,-338.62838398497775)"><tspan x="3" y="0.2em" style="font-family: Arial, sans-serif; font-size: 10px; fill: black; font-weight: normal;">Mexico City</tspan></text><text text-anchor="middle" dominant-baseline="text-before-edge" transform="translate(-141.67783854836884,-304.2131696970118)"><tspan x="3" y="0.2em" style="font-family: Arial, sans-serif; font-size: 10px; fill: black; font-weight: normal;">Ecatepec de Morelos</tspan></text><text text-anchor="middle" dominant-baseline="text-before-edge" transform="translate(-15.654123884600876,-205.42138909606734)"><tspan x="3" y="0.2em" style="font-family: Arial, sans-serif; font-size: 10px; fill: black; font-weight: normal;">New York City</tspan></text><text text-anchor="middle" dominant-baseline="text-before-edge" transform="translate(-66.68347422200527,-256.6809101275327)"><tspan x="3" y="0.2em" style="font-family: Arial, sans-serif; font-size: 10px; fill: black; font-weight: normal;">Los Angeles</tspan></text><text text-anchor="middle" dominant-baseline="text-before-edge" transform="translate(48.709610197695056,-287.40360884174964)"><tspan x="3" y="0.2em" style="font-family: Arial, sans-serif; font-size: 10px; fill: black; font-weight: normal;">Chicago</tspan></text><text text-anchor="middle" dominant-baseline="text-before-edge" transform="translate(5.032649468854495,-318.5731392512121)"><tspan x="3" y="0.2em" style="font-family: Arial, sans-serif; font-size: 10px; fill: black; font-weight: normal;">Houston</tspan></text><text text-anchor="middle" dominant-baseline="text-before-edge" transform="translate(-20.289829354719902,-293.8831894583352)"><tspan x="3" y="0.2em" style="font-family: Arial, sans-serif; font-size: 10px; fill: black; font-weight: normal;">Philadelphia</tspan></text><text text-anchor="middle" dominant-baseline="text-before-edge" transform="translate(3.3991050696390523,-370.05799669422566)"><tspan x="3" y="0.2em" style="font-family: Arial, sans-serif; font-size: 10px; fill: black; font-weight: normal;">Toronto</tspan></text><text text-anchor="middle" dominant-baseline="text-before-edge" transform="translate(51.6452615254285,-359.3556968370732)"><tspan x="3" y="0.2em" style="font-family: Arial, sans-serif; font-size: 10px; fill: black; font-weight: normal;">Montreal</tspan></text><text text-anchor="middle" dominant-baseline="text-before-edge" transform="translate(90.55965574485816,-351.5192617884793)"><tspan x="3" y="0.2em" style="font-family: Arial, sans-serif; font-size: 10px; fill: black; font-weight: normal;">Havana</tspan></text><text text-anchor="middle" dominant-baseline="text-before-edge" transform="translate(-320.7121859113919,11.783047885252639)"><tspan x="3" y="0.2em" style="font-family: Arial, sans-serif; font-size: 10px; fill: black; font-weight: normal;">São Paulo</tspan></text><text text-anchor="middle" dominant-baseline="text-before-edge" transform="translate(-299.80544871436854,122.91720764044419)"><tspan x="3" y="0.2em" style="font-family: Arial, sans-serif; font-size: 10px; fill: black; font-weight: normal;">Rio de Janeiro</tspan></text><text text-anchor="middle" dominant-baseline="text-before-edge" transform="translate(-232.05577678253107,95.36223864024407)"><tspan x="3" y="0.2em" style="font-family: Arial, sans-serif; font-size: 10px; fill: black; font-weight: normal;">Salvador</tspan></text><text text-anchor="middle" dominant-baseline="text-before-edge" transform="translate(-231.3982524283068,12.405381859970316)"><tspan x="3" y="0.2em" style="font-family: Arial, sans-serif; font-size: 10px; fill: black; font-weight: normal;">Brasília</tspan></text><text text-anchor="middle" dominant-baseline="text-before-edge" transform="translate(-355.5449402695404,88.98952412032212)"><tspan x="3" y="0.2em" style="font-family: Arial, sans-serif; font-size: 10px; fill: black; font-weight: normal;">Fortaleza</tspan></text><text text-anchor="middle" dominant-baseline="text-before-edge" transform="translate(-267.888822108686,201.20259976467415)"><tspan x="3" y="0.2em" style="font-family: Arial, sans-serif; font-size: 10px; fill: black; font-weight: normal;">Lima</tspan></text><text text-anchor="middle" dominant-baseline="text-before-edge" transform="translate(-176.50318025465853,50.27467446565752)"><tspan x="3" y="0.2em" style="font-family: Arial, sans-serif; font-size: 10px; fill: black; font-weight: normal;">Bogotá</tspan></text><text text-anchor="middle" dominant-baseline="text-before-edge" transform="translate(-198.52586720021807,243.8476222162264)"><tspan x="3" y="0.2em" style="font-family: Arial, sans-serif; font-size: 10px; fill: black; font-weight: normal;">Santiago</tspan></text><text text-anchor="middle" dominant-baseline="text-before-edge" transform="translate(-190.44688224418016,305.2895115294458)"><tspan x="3" y="0.2em" style="font-family: Arial, sans-serif; font-size: 10px; fill: black; font-weight: normal;">Caracas</tspan></text><text text-anchor="middle" dominant-baseline="text-before-edge" transform="translate(-179.06219798513155,161.30136348495247)"><tspan x="3" y="0.2em" style="font-family: Arial, sans-serif; font-size: 10px; fill: black; font-weight: normal;">Buenos Aires</tspan></text></g></g></svg>