<svg xmlns="http://www.w3.org/2000/svg" width="805" height="600"><rect width="805" height="600" x="0" y="0" fill="#FFFFFF" id="backgorund"/><g transform="translate(10,10)" id="viz"><g id="links"><path d="M0,265.19736842105266C80.625,265.19736842105266,80.625,265.19736842105266,161.25,265.19736842105266" fill="none" stroke="#ccc"/><path d="M161.25,265.19736842105266C241.875,265.19736842105266,241.875,7.631578947368423,322.5,7.631578947368423" fill="none" stroke="#ccc"/><path d="M161.25,265.19736842105266C241.875,265.19736842105266,241.875,236.5789473684211,322.5,236.5789473684211" fill="none" stroke="#ccc"/><path d="M161.25,265.19736842105266C241.875,265.19736842105266,241.875,522.7631578947369,322.5,522.7631578947369" fill="none" stroke="#ccc"/><path d="M322.5,7.631578947368423C403.125,7.631578947368423,403.125,7.631578947368423,483.75,7.631578947368423" fill="none" stroke="#ccc"/><path d="M322.5,236.5789473684211C403.125,236.5789473684211,403.125,30.526315789473692,483.75,30.526315789473692" fill="none" stroke="#ccc"/><path d="M322.5,236.5789473684211C403.125,236.5789473684211,403.125,83.94736842105266,483.75,83.94736842105266" fill="none" stroke="#ccc"/><path d="M322.5,236.5789473684211C403.125,236.5789473684211,403.125,183.15789473684208,483.75,183.15789473684208" fill="none" stroke="#ccc"/><path d="M322.5,236.5789473684211C403.125,236.5789473684211,403.125,251.8421052631579,483.75,251.8421052631579" fill="none" stroke="#ccc"/><path d="M322.5,236.5789473684211C403.125,236.5789473684211,403.125,290,483.75,290" fill="none" stroke="#ccc"/><path d="M322.5,236.5789473684211C403.125,236.5789473684211,403.125,328.15789473684214,483.75,328.15789473684214" fill="none" stroke="#ccc"/><path d="M322.5,236.5789473684211C403.125,236.5789473684211,403.125,373.94736842105266,483.75,373.94736842105266" fill="none" stroke="#ccc"/><path d="M322.5,236.5789473684211C403.125,236.5789473684211,403.125,419.7368421052632,483.75,419.7368421052632" fill="none" stroke="#ccc"/><path d="M322.5,236.5789473684211C403.125,236.5789473684211,403.125,442.6315789473685,483.75,442.6315789473685" fill="none" stroke="#ccc"/><path d="M322.5,522.7631578947369C403.125,522.7631578947369,403.125,473.15789473684214,483.75,473.15789473684214" fill="none" stroke="#ccc"/><path d="M322.5,522.7631578947369C403.125,522.7631578947369,403.125,526.5789473684212,483.75,526.5789473684212" fill="none" stroke="#ccc"/><path d="M322.5,522.7631578947369C403.125,522.7631578947369,403.125,572.3684210526316,483.75,572.3684210526316" fill="none" stroke="#ccc"/><path d="M483.75,7.631578947368423C564.375,7.631578947368423,564.375,7.631578947368423,645,7.631578947368423" fill="none" stroke="#ccc"/><path d="M483.75,30.526315789473692C564.375,30.526315789473692,564.375,22.894736842105267,645,22.894736842105267" fill="none" stroke="#ccc"/><path d="M483.75,30.526315789473692C564.375,30.526315789473692,564.375,38.15789473684212,645,38.15789473684212" fill="none" stroke="#ccc"/><path d="M483.75,83.94736842105266C564.375,83.94736842105266,564.375,53.42105263157896,645,53.42105263157896" fill="none" stroke="#ccc"/><path d="M483.75,83.94736842105266C564.375,83.94736842105266,564.375,68.68421052631581,645,68.68421052631581" fill="none" stroke="#ccc"/><path d="M483.75,83.94736842105266C564.375,83.94736842105266,564.375,83.94736842105266,645,83.94736842105266" fill="none" stroke="#ccc"/><path d="M483.75,83.94736842105266C564.375,83.94736842105266,564.375,99.2105263157895,645,99.2105263157895" fill="none" stroke="#ccc"/><path d="M483.75,83.94736842105266C564.375,83.94736842105266,564.375,114.47368421052634,645,114.47368421052634" fill="none" stroke="#ccc"/><path d="M483.75,183.15789473684208C564.375,183.15789473684208,564.375,129.73684210526315,645,129.73684210526315" fill="none" stroke="#ccc"/><path d="M483.75,183.15789473684208C564.375,183.15789473684208,564.375,145,645,145" fill="none" stroke="#ccc"/><path d="M483.75,183.15789473684208C564.375,183.15789473684208,564.375,160.26315789473685,645,160.26315789473685" fill="none" stroke="#ccc"/><path d="M483.75,183.15789473684208C564.375,183.15789473684208,564.375,175.52631578947367,645,175.52631578947367" fill="none" stroke="#ccc"/><path d="M483.75,183.15789473684208C564.375,183.15789473684208,564.375,190.78947368421052,645,190.78947368421052" fill="none" stroke="#ccc"/><path d="M483.75,183.15789473684208C564.375,183.15789473684208,564.375,206.05263157894737,645,206.05263157894737" fill="none" stroke="#ccc"/><path d="M483.75,183.15789473684208C564.375,183.15789473684208,564.375,221.31578947368422,645,221.31578947368422" fill="none" stroke="#ccc"/><path d="M483.75,183.15789473684208C564.375,183.15789473684208,564.375,236.57894736842104,645,236.57894736842104" fill="none" stroke="#ccc"/><path d="M483.75,251.8421052631579C564.375,251.8421052631579,564.375,251.8421052631579,645,251.8421052631579" fill="none" stroke="#ccc"/><path d="M483.75,290C564.375,290,564.375,267.10526315789474,645,267.10526315789474" fill="none" stroke="#ccc"/><path d="M483.75,290C564.375,290,564.375,282.36842105263156,645,282.36842105263156" fill="none" stroke="#ccc"/><path d="M483.75,290C564.375,290,564.375,297.63157894736844,645,297.63157894736844" fill="none" stroke="#ccc"/><path d="M483.75,290C564.375,290,564.375,312.89473684210526,645,312.89473684210526" fill="none" stroke="#ccc"/><path d="M483.75,328.15789473684214C564.375,328.15789473684214,564.375,328.15789473684214,645,328.15789473684214" fill="none" stroke="#ccc"/><path d="M483.75,373.94736842105266C564.375,373.94736842105266,564.375,343.42105263157896,645,343.42105263157896" fill="none" stroke="#ccc"/><path d="M483.75,373.94736842105266C564.375,373.94736842105266,564.375,358.68421052631584,645,358.68421052631584" fill="none" stroke="#ccc"/><path d="M483.75,373.94736842105266C564.375,373.94736842105266,564.375,373.94736842105266,645,373.94736842105266" fill="none" stroke="#ccc"/><path d="M483.75,373.94736842105266C564.375,373.94736842105266,564.375,389.21052631578954,645,389.21052631578954" fill="none" stroke="#ccc"/><path d="M483.75,373.94736842105266C564.375,373.94736842105266,564.375,404.47368421052636,645,404.47368421052636" fill="none" stroke="#ccc"/><path d="M483.75,419.7368421052632C564.375,419.7368421052632,564.375,419.7368421052632,645,419.7368421052632" fill="none" stroke="#ccc"/><path d="M483.75,442.6315789473685C564.375,442.6315789473685,564.375,435.00000000000006,645,435.00000000000006" fill="none" stroke="#ccc"/><path d="M483.75,442.6315789473685C564.375,442.6315789473685,564.375,450.2631578947369,645,450.2631578947369" fill="none" stroke="#ccc"/><path d="M483.75,473.15789473684214C564.375,473.15789473684214,564.375,465.52631578947376,645,465.52631578947376" fill="none" stroke="#ccc"/><path d="M483.75,473.15789473684214C564.375,473.15789473684214,564.375,480.7894736842106,645,480.7894736842106" fill="none" stroke="#ccc"/><path d="M483.75,526.5789473684212C564.375,526.5789473684212,564.375,496.05263157894746,645,496.05263157894746" fill="none" stroke="#ccc"/><path d="M483.75,526.5789473684212C564.375,526.5789473684212,564.375,511.3157894736843,645,511.3157894736843" fill="none" stroke="#ccc"/><path d="M483.75,526.5789473684212C564.375,526.5789473684212,564.375,526.5789473684212,645,526.5789473684212" fill="none" stroke="#ccc"/><path d="M483.75,526.5789473684212C564.375,526.5789473684212,564.375,541.8421052631579,645,541.8421052631579" fill="none" stroke="#ccc"/><path d="M483.75,526.5789473684212C564.375,526.5789473684212,564.375,557.1052631578948,645,557.1052631578948" fill="none" stroke="#ccc"/><path d="M483.75,572.3684210526316C564.375,572.3684210526316,564.375,572.3684210526316,645,572.3684210526316" fill="none" stroke="#ccc"/></g><g id="nodes"><g transform="translate(0,265.19736842105266)"><circle fill="#0e8ee5" r="5"/><text text-anchor="end" dominant-baseline="text-before-edge" transform="translate(0,0)" style="stroke-width: 2px; paint-order: stroke; stroke: white; stroke-linecap: round; stroke-linejoin: round;"><tspan x="-8" y="0" dy="0" style="font-family: Arial, sans-serif; font-size: 10px; fill: black; font-weight: normal;"/></text></g><g id="Felidae" transform="translate(161.25,265.19736842105266)"><circle fill="#0e8ee5" r="5"/><text text-anchor="end" dominant-baseline="text-before-edge" transform="translate(0,-5.5)" style="stroke-width: 2px; paint-order: stroke; stroke: white; stroke-linecap: round; stroke-linejoin: round;"><tspan x="-8" y="0" dy="0" style="font-family: Arial, sans-serif; font-size: 10px; fill: black; font-weight: normal;">Felidae</tspan></text></g><g id="Acinonychinae" transform="translate(322.5,7.631578947368423)"><circle fill="#0e8ee5" r="5"/><text text-anchor="end" dominant-baseline="text-before-edge" transform="translate(0,-5.55224609375)" style="stroke-width: 2px; paint-order: stroke; stroke: white; stroke-linecap: round; stroke-linejoin: round;"><tspan x="-8" y="0" dy="0" style="font-family: Arial, sans-serif; font-size: 10px; fill: black; font-weight: normal;">Acinonychinae</tspan></text></g><g id="Felinae" transform="translate(322.5,236.5789473684211)"><circle fill="#0e8ee5" r="5"/><text text-anchor="end" dominant-baseline="text-before-edge" transform="translate(0,-5.5)" style="stroke-width: 2px; paint-order: stroke; stroke: white; stroke-linecap: round; stroke-linejoin: round;"><tspan x="-8" y="0" dy="0" style="font-family: Arial, sans-serif; font-size: 10px; fill: black; font-weight: normal;">Felinae</tspan></text></g><g id="Pantherinae" transform="translate(322.5,522.7631578947369)"><circle fill="#0e8ee5" r="5"/><text text-anchor="end" dominant-baseline="text-before-edge" transform="translate(0,-5.5)" style="stroke-width: 2px; paint-order: stroke; stroke: white; stroke-linecap: round; stroke-linejoin: round;"><tspan x="-8" y="0" dy="0" style="font-family: Arial, sans-serif; font-size: 10px; fill: black; font-weight: normal;">Pantherinae</tspan></text></g><g id="Acinonyx" transform="translate(483.75,7.631578947368423)"><circle fill="#0e8ee5" r="5"/><text text-anchor="end" dominant-baseline="text-before-edge" transform="translate(0,-5.55224609375)" style="stroke-width: 2px; paint-order: stroke; stroke: white; stroke-linecap: round; stroke-linejoin: round;"><tspan x="-8" y="0" dy="0" style="font-family: Arial, sans-serif; font-size: 10px; fill: black; font-weight: normal;">Acinonyx</tspan></text></g><g id="Catopuma" transform="translate(483.75,30.526315789473692)"><circle fill="#0e8ee5" r="5"/><text text-anchor="end" dominant-baseline="text-before-edge" transform="translate(0,-5.5)" style="stroke-width: 2px; paint-order: stroke; stroke: white; stroke-linecap: round; stroke-linejoin: round;"><tspan x="-8" y="0" dy="0" style="font-family: Arial, sans-serif; font-size: 10px; fill: black; font-weight: normal;">Catopuma</tspan></text></g><g id="Felis" transform="translate(483.75,83.94736842105266)"><circle fill="#0e8ee5" r="5"/><text text-anchor="end" dominant-baseline="text-before-edge" transform="translate(0,-5.5)" style="stroke-width: 2px; paint-order: stroke; stroke: white; stroke-linecap: round; stroke-linejoin: round;"><tspan x="-8" y="0" dy="0" style="font-family: Arial, sans-serif; font-size: 10px; fill: black; font-weight: normal;">Felis</tspan></text></g><g id="Leopardus" transform="translate(483.75,183.15789473684208)"><circle fill="#0e8ee5" r="5"/><text text-anchor="end" dominant-baseline="text-before-edge" transform="translate(0,-5.5)" style="stroke-width: 2px; paint-order: stroke; stroke: white; stroke-linecap: round; stroke-linejoin: round;"><tspan x="-8" y="0" dy="0" style="font-family: Arial, sans-serif; font-size: 10px; fill: black; font-weight: normal;">Leopardus</tspan></text></g><g id="Leptailurus" transform="translate(483.75,251.8421052631579)"><circle fill="#0e8ee5" r="5"/><text text-anchor="end" dominant-baseline="text-before-edge" transform="translate(0,-5.5)" style="stroke-width: 2px; paint-order: stroke; stroke: white; stroke-linecap: round; stroke-linejoin: round;"><tspan x="-8" y="0" dy="0" style="font-family: Arial, sans-serif; font-size: 10px; fill: black; font-weight: normal;">Leptailurus</tspan></text></g><g id="Lynx" transform="translate(483.75,290)"><circle fill="#0e8ee5" r="5"/><text text-anchor="end" dominant-baseline="text-before-edge" transform="translate(0,-5.55224609375)" style="stroke-width: 2px; paint-order: stroke; stroke: white; stroke-linecap: round; stroke-linejoin: round;"><tspan x="-8" y="0" dy="0" style="font-family: Arial, sans-serif; font-size: 10px; fill: black; font-weight: normal;">Lynx</tspan></text></g><g id="Otocolobus" transform="translate(483.75,328.15789473684214)"><circle fill="#0e8ee5" r="5"/><text text-anchor="end" dominant-baseline="text-before-edge" transform="translate(0,-5.5)" style="stroke-width: 2px; paint-order: stroke; stroke: white; stroke-linecap: round; stroke-linejoin: round;"><tspan x="-8" y="0" dy="0" style="font-family: Arial, sans-serif; font-size: 10px; fill: black; font-weight: normal;">Otocolobus</tspan></text></g><g id="Prionailurus" transform="translate(483.75,373.94736842105266)"><circle fill="#0e8ee5" r="5"/><text text-anchor="end" dominant-baseline="text-before-edge" transform="translate(0,-5.5)" style="stroke-width: 2px; paint-order: stroke; stroke: white; stroke-linecap: round; stroke-linejoin: round;"><tspan x="-8" y="0" dy="0" style="font-family: Arial, sans-serif; font-size: 10px; fill: black; font-weight: normal;">Prionailurus</tspan></text></g><g id="Profelis" transform="translate(483.75,419.7368421052632)"><circle fill="#0e8ee5" r="5"/><text text-anchor="end" dominant-baseline="text-before-edge" transform="translate(0,-5.5)" style="stroke-width: 2px; paint-order: stroke; stroke: white; stroke-linecap: round; stroke-linejoin: round;"><tspan x="-8" y="0" dy="0" style="font-family: Arial, sans-serif; font-size: 10px; fill: black; font-weight: normal;">Profelis</tspan></text></g><g id="Puma" transform="translate(483.75,442.6315789473685)"><circle fill="#0e8ee5" r="5"/><text text-anchor="end" dominant-baseline="text-before-edge" transform="translate(0,-5.5)" style="stroke-width: 2px; paint-order: stroke; stroke: white; stroke-linecap: round; stroke-linejoin: round;"><tspan x="-8" y="0" dy="0" style="font-family: Arial, sans-serif; font-size: 10px; fill: black; font-weight: normal;">Puma</tspan></text></g><g id="Neofelis" transform="translate(483.75,473.15789473684214)"><circle fill="#0e8ee5" r="5"/><text text-anchor="end" dominant-baseline="text-before-edge" transform="translate(0,-5.5)" style="stroke-width: 2px; paint-order: stroke; stroke: white; stroke-linecap: round; stroke-linejoin: round;"><tspan x="-8" y="0" dy="0" style="font-family: Arial, sans-serif; font-size: 10px; fill: black; font-weight: normal;">Neofelis</tspan></text></g><g id="Panthera" transform="translate(483.75,526.5789473684212)"><circle fill="#0e8ee5" r="5"/><text text-anchor="end" dominant-baseline="text-before-edge" transform="translate(0,-5.5)" style="stroke-width: 2px; paint-order: stroke; stroke: white; stroke-linecap: round; stroke-linejoin: round;"><tspan x="-8" y="0" dy="0" style="font-family: Arial, sans-serif; font-size: 10px; fill: black; font-weight: normal;">Panthera</tspan></text></g><g id="Pardofelis" transform="translate(483.75,572.3684210526316)"><circle fill="#0e8ee5" r="5"/><text text-anchor="end" dominant-baseline="text-before-edge" transform="translate(0,-5.5)" style="stroke-width: 2px; paint-order: stroke; stroke: white; stroke-linecap: round; stroke-linejoin: round;"><tspan x="-8" y="0" dy="0" style="font-family: Arial, sans-serif; font-size: 10px; fill: black; font-weight: normal;">Pardofelis</tspan></text></g><g id="cheetah" transform="translate(645,7.631578947368423)"><circle fill="#0e8ee5" r="6"/><text text-anchor="start" dominant-baseline="text-before-edge" transform="translate(0,-5.5)" style="stroke-width: 2px; paint-order: stroke; stroke: white; stroke-linecap: round; stroke-linejoin: round;"><tspan x="8" y="0" dy="0" style="font-family: Arial, sans-serif; font-size: 10px; fill: black; font-weight: normal;">cheetah</tspan></text></g><g id="Asiatic golden cat" transform="translate(645,22.894736842105267)"><circle fill="#0e8ee5" r="6"/><text text-anchor="start" dominant-baseline="text-before-edge" transform="translate(0,-5.55224609375)" style="stroke-width: 2px; paint-order: stroke; stroke: white; stroke-linecap: round; stroke-linejoin: round;"><tspan x="8" y="0" dy="0" style="font-family: Arial, sans-serif; font-size: 10px; fill: black; font-weight: normal;">Asiatic golden cat</tspan></text></g><g id="bay cat" transform="translate(645,38.15789473684212)"><circle fill="#0e8ee5" r="6"/><text text-anchor="start" dominant-baseline="text-before-edge" transform="translate(0,-5.55224609375)" style="stroke-width: 2px; paint-order: stroke; stroke: white; stroke-linecap: round; stroke-linejoin: round;"><tspan x="8" y="0" dy="0" style="font-family: Arial, sans-serif; font-size: 10px; fill: black; font-weight: normal;">bay cat</tspan></text></g><g id="black-footed cat" transform="translate(645,53.42105263157896)"><circle fill="#0e8ee5" r="6"/><text text-anchor="start" dominant-baseline="text-before-edge" transform="translate(0,-5.5)" style="stroke-width: 2px; paint-order: stroke; stroke: white; stroke-linecap: round; stroke-linejoin: round;"><tspan x="8" y="0" dy="0" style="font-family: Arial, sans-serif; font-size: 10px; fill: black; font-weight: normal;">black-footed cat</tspan></text></g><g id="domestic cat" transform="translate(645,68.68421052631581)"><circle fill="#0e8ee5" r="6"/><text text-anchor="start" dominant-baseline="text-before-edge" transform="translate(0,-5.5)" style="stroke-width: 2px; paint-order: stroke; stroke: white; stroke-linecap: round; stroke-linejoin: round;"><tspan x="8" y="0" dy="0" style="font-family: Arial, sans-serif; font-size: 10px; fill: black; font-weight: normal;">domestic cat</tspan></text></g><g id="jungle cat" transform="translate(645,83.94736842105266)"><circle fill="#0e8ee5" r="6"/><text text-anchor="start" dominant-baseline="text-before-edge" transform="translate(0,-5.55224609375)" style="stroke-width: 2px; paint-order: stroke; stroke: white; stroke-linecap: round; stroke-linejoin: round;"><tspan x="8" y="0" dy="0" style="font-family: Arial, sans-serif; font-size: 10px; fill: black; font-weight: normal;">jungle cat</tspan></text></g><g id="sand cat" transform="translate(645,99.2105263157895)"><circle fill="#0e8ee5" r="6"/><text text-anchor="start" dominant-baseline="text-before-edge" transform="translate(0,-5.5)" style="stroke-width: 2px; paint-order: stroke; stroke: white; stroke-linecap: round; stroke-linejoin: round;"><tspan x="8" y="0" dy="0" style="font-family: Arial, sans-serif; font-size: 10px; fill: black; font-weight: normal;">sand cat</tspan></text></g><g id="wild cat" transform="translate(645,114.47368421052634)"><circle fill="#0e8ee5" r="6"/><text text-anchor="start" dominant-baseline="text-before-edge" transform="translate(0,-5.5)" style="stroke-width: 2px; paint-order: stroke; stroke: white; stroke-linecap: round; stroke-linejoin: round;"><tspan x="8" y="0" dy="0" style="font-family: Arial, sans-serif; font-size: 10px; fill: black; font-weight: normal;">wild cat</tspan></text></g><g id="Andean mountain cat" transform="translate(645,129.73684210526315)"><circle fill="#0e8ee5" r="6"/><text text-anchor="start" dominant-baseline="text-before-edge" transform="translate(0,-5.5)" style="stroke-width: 2px; paint-order: stroke; stroke: white; stroke-linecap: round; stroke-linejoin: round;"><tspan x="8" y="0" dy="0" style="font-family: Arial, sans-serif; font-size: 10px; fill: black; font-weight: normal;">Andean mountain cat</tspan></text></g><g id="Colocolo" transform="translate(645,145)"><circle fill="#0e8ee5" r="6"/><text text-anchor="start" dominant-baseline="text-before-edge" transform="translate(0,-5.5)" style="stroke-width: 2px; paint-order: stroke; stroke: white; stroke-linecap: round; stroke-linejoin: round;"><tspan x="8" y="0" dy="0" style="font-family: Arial, sans-serif; font-size: 10px; fill: black; font-weight: normal;">Colocolo</tspan></text></g><g id="Geoffroy's cat" transform="translate(645,160.26315789473685)"><circle fill="#0e8ee5" r="6"/><text text-anchor="start" dominant-baseline="text-before-edge" transform="translate(0,-5.55224609375)" style="stroke-width: 2px; paint-order: stroke; stroke: white; stroke-linecap: round; stroke-linejoin: round;"><tspan x="8" y="0" dy="0" style="font-family: Arial, sans-serif; font-size: 10px; fill: black; font-weight: normal;">Geoffroy's cat</tspan></text></g><g id="Kodkod" transform="translate(645,175.52631578947367)"><circle fill="#0e8ee5" r="6"/><text text-anchor="start" dominant-baseline="text-before-edge" transform="translate(0,-5.5)" style="stroke-width: 2px; paint-order: stroke; stroke: white; stroke-linecap: round; stroke-linejoin: round;"><tspan x="8" y="0" dy="0" style="font-family: Arial, sans-serif; font-size: 10px; fill: black; font-weight: normal;">Kodkod</tspan></text></g><g id="Southern oncilla" transform="translate(645,190.78947368421052)"><circle fill="#0e8ee5" r="6"/><text text-anchor="start" dominant-baseline="text-before-edge" transform="translate(0,-5.5)" style="stroke-width: 2px; paint-order: stroke; stroke: white; stroke-linecap: round; stroke-linejoin: round;"><tspan x="8" y="0" dy="0" style="font-family: Arial, sans-serif; font-size: 10px; fill: black; font-weight: normal;">Southern oncilla</tspan></text></g><g id="little spotted cat" transform="translate(645,206.05263157894737)"><circle fill="#0e8ee5" r="6"/><text text-anchor="start" dominant-baseline="text-before-edge" transform="translate(0,-5.5)" style="stroke-width: 2px; paint-order: stroke; stroke: white; stroke-linecap: round; stroke-linejoin: round;"><tspan x="8" y="0" dy="0" style="font-family: Arial, sans-serif; font-size: 10px; fill: black; font-weight: normal;">little spotted cat</tspan></text></g><g id="margay" transform="translate(645,221.31578947368422)"><circle fill="#0e8ee5" r="6"/><text text-anchor="start" dominant-baseline="text-before-edge" transform="translate(0,-5.55224609375)" style="stroke-width: 2px; paint-order: stroke; stroke: white; stroke-linecap: round; stroke-linejoin: round;"><tspan x="8" y="0" dy="0" style="font-family: Arial, sans-serif; font-size: 10px; fill: black; font-weight: normal;">margay</tspan></text></g><g id="ocelot" transform="translate(645,236.57894736842104)"><circle fill="#0e8ee5" r="6"/><text text-anchor="start" dominant-baseline="text-before-edge" transform="translate(0,-5.5)" style="stroke-width: 2px; paint-order: stroke; stroke: white; stroke-linecap: round; stroke-linejoin: round;"><tspan x="8" y="0" dy="0" style="font-family: Arial, sans-serif; font-size: 10px; fill: black; font-weight: normal;">ocelot</tspan></text></g><g id="serval" transform="translate(645,251.8421052631579)"><circle fill="#0e8ee5" r="6"/><text text-anchor="start" dominant-baseline="text-before-edge" transform="translate(0,-5.5)" style="stroke-width: 2px; paint-order: stroke; stroke: white; stroke-linecap: round; stroke-linejoin: round;"><tspan x="8" y="0" dy="0" style="font-family: Arial, sans-serif; font-size: 10px; fill: black; font-weight: normal;">serval</tspan></text></g><g id="Canada lynx" transform="translate(645,267.10526315789474)"><circle fill="#0e8ee5" r="6"/><text text-anchor="start" dominant-baseline="text-before-edge" transform="translate(0,-5.55224609375)" style="stroke-width: 2px; paint-order: stroke; stroke: white; stroke-linecap: round; stroke-linejoin: round;"><tspan x="8" y="0" dy="0" style="font-family: Arial, sans-serif; font-size: 10px; fill: black; font-weight: normal;">Canada lynx</tspan></text></g><g id="Eurasian lynx" transform="translate(645,282.36842105263156)"><circle fill="#0e8ee5" r="6"/><text text-anchor="start" dominant-baseline="text-before-edge" transform="translate(0,-5.55224609375)" style="stroke-width: 2px; paint-order: stroke; stroke: white; stroke-linecap: round; stroke-linejoin: round;"><tspan x="8" y="0" dy="0" style="font-family: Arial, sans-serif; font-size: 10px; fill: black; font-weight: normal;">Eurasian lynx</tspan></text></g><g id="Spanish lynx" transform="translate(645,297.63157894736844)"><circle fill="#0e8ee5" r="6"/><text text-anchor="start" dominant-baseline="text-before-edge" transform="translate(0,-5.55224609375)" style="stroke-width: 2px; paint-order: stroke; stroke: white; stroke-linecap: round; stroke-linejoin: round;"><tspan x="8" y="0" dy="0" style="font-family: Arial, sans-serif; font-size: 10px; fill: black; font-weight: normal;">Spanish lynx</tspan></text></g><g id="bobcat" transform="translate(645,312.89473684210526)"><circle fill="#0e8ee5" r="6"/><text text-anchor="start" dominant-baseline="text-before-edge" transform="translate(0,-5.5)" style="stroke-width: 2px; paint-order: stroke; stroke: white; stroke-linecap: round; stroke-linejoin: round;"><tspan x="8" y="0" dy="0" style="font-family: Arial, sans-serif; font-size: 10px; fill: black; font-weight: normal;">bobcat</tspan></text></g><g id="Pallas's cat" transform="translate(645,328.15789473684214)"><circle fill="#0e8ee5" r="6"/><text text-anchor="start" dominant-baseline="text-before-edge" transform="translate(0,-5.5)" style="stroke-width: 2px; paint-order: stroke; stroke: white; stroke-linecap: round; stroke-linejoin: round;"><tspan x="8" y="0" dy="0" style="font-family: Arial, sans-serif; font-size: 10px; fill: black; font-weight: normal;">Pallas's cat</tspan></text></g><g id="Iriomote cat" transform="translate(645,343.42105263157896)"><circle fill="#0e8ee5" r="6"/><text text-anchor="start" dominant-baseline="text-before-edge" transform="translate(0,-5.5)" style="stroke-width: 2px; paint-order: stroke; stroke: white; stroke-linecap: round; stroke-linejoin: round;"><tspan x="8" y="0" dy="0" style="font-family: Arial, sans-serif; font-size: 10px; fill: black; font-weight: normal;">Iriomote cat</tspan></text></g><g id="fishing cat" transform="translate(645,358.68421052631584)"><circle fill="#0e8ee5" r="6"/><text text-anchor="start" dominant-baseline="text-before-edge" transform="translate(0,-5.55224609375)" style="stroke-width: 2px; paint-order: stroke; stroke: white; stroke-linecap: round; stroke-linejoin: round;"><tspan x="8" y="0" dy="0" style="font-family: Arial, sans-serif; font-size: 10px; fill: black; font-weight: normal;">fishing cat</tspan></text></g><g id="flat-headed cat" transform="translate(645,373.94736842105266)"><circle fill="#0e8ee5" r="6"/><text text-anchor="start" dominant-baseline="text-before-edge" transform="translate(0,-5.5)" style="stroke-width: 2px; paint-order: stroke; stroke: white; stroke-linecap: round; stroke-linejoin: round;"><tspan x="8" y="0" dy="0" style="font-family: Arial, sans-serif; font-size: 10px; fill: black; font-weight: normal;">flat-headed cat</tspan></text></g><g id="leopard cat" transform="translate(645,389.21052631578954)"><circle fill="#0e8ee5" r="6"/><text text-anchor="start" dominant-baseline="text-before-edge" transform="translate(0,-5.5)" style="stroke-width: 2px; paint-order: stroke; stroke: white; stroke-linecap: round; stroke-linejoin: round;"><tspan x="8" y="0" dy="0" style="font-family: Arial, sans-serif; font-size: 10px; fill: black; font-weight: normal;">leopard cat</tspan></text></g><g id="rusty-spotted cat" transform="translate(645,404.47368421052636)"><circle fill="#0e8ee5" r="6"/><text text-anchor="start" dominant-baseline="text-before-edge" transform="translate(0,-5.55224609375)" style="stroke-width: 2px; paint-order: stroke; stroke: white; stroke-linecap: round; stroke-linejoin: round;"><tspan x="8" y="0" dy="0" style="font-family: Arial, sans-serif; font-size: 10px; fill: black; font-weight: normal;">rusty-spotted cat</tspan></text></g><g id="African golden cat" transform="translate(645,419.7368421052632)"><circle fill="#0e8ee5" r="6"/><text text-anchor="start" dominant-baseline="text-before-edge" transform="translate(0,-5.55224609375)" style="stroke-width: 2px; paint-order: stroke; stroke: white; stroke-linecap: round; stroke-linejoin: round;"><tspan x="8" y="0" dy="0" style="font-family: Arial, sans-serif; font-size: 10px; fill: black; font-weight: normal;">African golden cat</tspan></text></g><g id="jaguarundi" transform="translate(645,435.00000000000006)"><circle fill="#0e8ee5" r="6"/><text text-anchor="start" dominant-baseline="text-before-edge" transform="translate(0,-5.55224609375)" style="stroke-width: 2px; paint-order: stroke; stroke: white; stroke-linecap: round; stroke-linejoin: round;"><tspan x="8" y="0" dy="0" style="font-family: Arial, sans-serif; font-size: 10px; fill: black; font-weight: normal;">jaguarundi</tspan></text></g><g id="puma" transform="translate(645,450.2631578947369)"><circle fill="#0e8ee5" r="6"/><text text-anchor="start" dominant-baseline="text-before-edge" transform="translate(0,-5.5)" style="stroke-width: 2px; paint-order: stroke; stroke: white; stroke-linecap: round; stroke-linejoin: round;"><tspan x="8" y="0" dy="0" style="font-family: Arial, sans-serif; font-size: 10px; fill: black; font-weight: normal;">puma</tspan></text></g><g id="Clouded leopard" transform="translate(645,465.52631578947376)"><circle fill="#0e8ee5" r="6"/><text text-anchor="start" dominant-baseline="text-before-edge" transform="translate(0,-5.5)" style="stroke-width: 2px; paint-order: stroke; stroke: white; stroke-linecap: round; stroke-linejoin: round;"><tspan x="8" y="0" dy="0" style="font-family: Arial, sans-serif; font-size: 10px; fill: black; font-weight: normal;">Clouded leopard</tspan></text></g><g id="Sunda clouded leopard" transform="translate(645,480.7894736842106)"><circle fill="#0e8ee5" r="6"/><text text-anchor="start" dominant-baseline="text-before-edge" transform="translate(0,-5.5)" style="stroke-width: 2px; paint-order: stroke; stroke: white; stroke-linecap: round; stroke-linejoin: round;"><tspan x="8" y="0" dy="0" style="font-family: Arial, sans-serif; font-size: 10px; fill: black; font-weight: normal;">Sunda clouded leopard</tspan></text></g><g id="jaguar" transform="translate(645,496.05263157894746)"><circle fill="#0e8ee5" r="6"/><text text-anchor="start" dominant-baseline="text-before-edge" transform="translate(0,-5.55224609375)" style="stroke-width: 2px; paint-order: stroke; stroke: white; stroke-linecap: round; stroke-linejoin: round;"><tspan x="8" y="0" dy="0" style="font-family: Arial, sans-serif; font-size: 10px; fill: black; font-weight: normal;">jaguar</tspan></text></g><g id="leopard" transform="translate(645,511.3157894736843)"><circle fill="#0e8ee5" r="6"/><text text-anchor="start" dominant-baseline="text-before-edge" transform="translate(0,-5.5)" style="stroke-width: 2px; paint-order: stroke; stroke: white; stroke-linecap: round; stroke-linejoin: round;"><tspan x="8" y="0" dy="0" style="font-family: Arial, sans-serif; font-size: 10px; fill: black; font-weight: normal;">leopard</tspan></text></g><g id="lion" transform="translate(645,526.5789473684212)"><circle fill="#0e8ee5" r="6"/><text text-anchor="start" dominant-baseline="text-before-edge" transform="translate(0,-5.5)" style="stroke-width: 2px; paint-order: stroke; stroke: white; stroke-linecap: round; stroke-linejoin: round;"><tspan x="8" y="0" dy="0" style="font-family: Arial, sans-serif; font-size: 10px; fill: black; font-weight: normal;">lion</tspan></text></g><g id="snow leopard" transform="translate(645,541.8421052631579)"><circle fill="#0e8ee5" r="6"/><text text-anchor="start" dominant-baseline="text-before-edge" transform="translate(0,-5.5)" style="stroke-width: 2px; paint-order: stroke; stroke: white; stroke-linecap: round; stroke-linejoin: round;"><tspan x="8" y="0" dy="0" style="font-family: Arial, sans-serif; font-size: 10px; fill: black; font-weight: normal;">snow leopard</tspan></text></g><g id="tiger" transform="translate(645,557.1052631578948)"><circle fill="#0e8ee5" r="6"/><text text-anchor="start" dominant-baseline="text-before-edge" transform="translate(0,-5.55224609375)" style="stroke-width: 2px; paint-order: stroke; stroke: white; stroke-linecap: round; stroke-linejoin: round;"><tspan x="8" y="0" dy="0" style="font-family: Arial, sans-serif; font-size: 10px; fill: black; font-weight: normal;">tiger</tspan></text></g><g id="marbled cat" transform="translate(645,572.3684210526316)"><circle fill="#0e8ee5" r="6"/><text text-anchor="start" dominant-baseline="text-before-edge" transform="translate(0,-5.5)" style="stroke-width: 2px; paint-order: stroke; stroke: white; stroke-linecap: round; stroke-linejoin: round;"><tspan x="8" y="0" dy="0" style="font-family: Arial, sans-serif; font-size: 10px; fill: black; font-weight: normal;">marbled cat</tspan></text></g></g></g></svg>