<?xml version="1.0" encoding="UTF-8"?><svg id="Layer_1" xmlns="http://www.w3.org/2000/svg" viewBox="0 0 1140 1140"><defs><style>.cls-1,.cls-2,.cls-3,.cls-4,.cls-5,.cls-6,.cls-7,.cls-8,.cls-9,.cls-10,.cls-11,.cls-12,.cls-13,.cls-14,.cls-15,.cls-16,.cls-17,.cls-18{stroke:#fff;}.cls-1,.cls-2,.cls-3,.cls-4,.cls-5,.cls-6,.cls-7,.cls-19,.cls-20,.cls-21,.cls-22,.cls-23,.cls-24,.cls-25{stroke-width:1.5px;}.cls-1,.cls-15{fill:#e49a3e;}.cls-2,.cls-11{fill:#d96694;}.cls-3,.cls-12{fill:#c73938;}.cls-4,.cls-14{fill:#618;}.cls-5,.cls-13{fill:#316db0;}.cls-6,.cls-10{fill:#707070;}.cls-7,.cls-9{fill:#53793f;}.cls-8{font-size:83.29px;}.cls-8,.cls-16,.cls-18{font-family:Arial-BoldMT, Arial;stroke-width:2px;}.cls-16{font-size:90px;}.cls-17,.cls-19,.cls-20,.cls-21,.cls-22,.cls-23,.cls-24,.cls-25{fill:none;}.cls-19{stroke:#316db0;}.cls-20{stroke:#618;}.cls-21{stroke:#e49a3e;}.cls-22{stroke:#c73938;}.cls-23{stroke:#707070;}.cls-24{stroke:#53793f;}.cls-25{stroke:#d96694;}.cls-18{font-size:100px;}.cls-26{fill:#fff;opacity:.5;}</style></defs><path class="cls-17" d="M567.6,447.72c80.01,0,144.88,64.86,144.88,144.88s-64.86,144.88-144.88,144.88-144.88-64.86-144.88-144.88,64.86-144.88,144.88-144.88Z"/><path class="cls-3" d="M567.6,302.84c100.86,0,194.46,52.45,247.12,138.47l-123.56,75.64c-26.33-43.01-73.13-69.23-123.56-69.23v-144.88Z"/><path class="cls-5" d="M814.72,441.31c61.73,100.84,56,229.08-14.49,324.01l-116.32-86.36c35.24-47.47,38.11-111.58,7.24-162.01l123.56-75.64Z"/><path class="cls-4" d="M800.24,765.32c-42.22,56.87-103.81,96.3-173.13,110.84l-29.75-141.79c34.66-7.27,65.45-26.99,86.56-55.42l116.32,86.36Z"/><path class="cls-7" d="M627.11,876.17c-49.47,10.38-100.79,7.64-148.87-7.95l44.68-137.81c24.04,7.79,49.7,9.16,74.43,3.97l29.75,141.79Z"/><path class="cls-2" d="M478.24,868.22c-79.03-25.62-143.26-83.94-176.38-160.13l132.87-57.75c16.56,38.1,48.67,67.26,88.19,80.07l-44.68,137.81Z"/><path class="cls-6" d="M301.86,708.09c-38.47-88.51-30.34-190.36,21.67-271.65l122.04,78.08c-26.01,40.65-30.07,91.57-10.84,135.83l-132.87,57.75Z"/><path class="cls-1" d="M323.53,436.44c53.25-83.23,145.26-133.59,244.07-133.59v144.88c-49.41,0-95.41,25.18-122.03,66.8l-122.04-78.08Z"/><path class="cls-12" d="M567.6,157.97c17.65,0,35.28,1.07,52.8,3.22l-17.6,143.8c-11.68-1.43-23.43-2.15-35.2-2.15V157.97Z"/><path class="cls-12" d="M620.4,161.19c16.55,2.03,32.96,5,49.17,8.91l-33.99,140.83c-10.8-2.61-21.75-4.59-32.78-5.94l17.6-143.8Z"/><path class="cls-12" d="M669.57,170.1c6.59,1.59,13.14,3.33,19.65,5.23l-40.54,139.09c-4.34-1.26-8.71-2.43-13.1-3.49l33.99-140.83Z"/><path class="cls-12" d="M689.22,175.33c8.23,2.4,16.38,5.04,24.46,7.92l-48.69,136.45c-5.38-1.92-10.82-3.68-16.3-5.28l40.54-139.09Z"/><path class="cls-12" d="M713.68,183.25c12.01,4.29,23.82,9.1,35.41,14.42l-60.5,131.64c-7.72-3.55-15.6-6.76-23.61-9.61l48.69-136.45Z"/><path class="cls-12" d="M749.09,197.67c7.78,3.58,15.45,7.38,23.01,11.41l-68.16,127.84c-5.04-2.69-10.15-5.22-15.34-7.61l60.5-131.64Z"/><path class="cls-12" d="M772.1,209.08c40.59,21.64,77.48,49.59,109.3,82.8l-104.6,100.24c-21.22-22.14-45.81-40.77-72.87-55.2l68.16-127.84Z"/><path class="cls-12" d="M881.4,291.88c6.12,6.39,12.05,12.97,17.77,19.72l-110.53,93.66c-3.82-4.5-7.77-8.89-11.85-13.15l104.6-100.24Z"/><path class="cls-12" d="M899.18,311.6c11.3,13.33,21.78,27.33,31.39,41.93l-120.99,79.69c-6.41-9.73-13.4-19.06-20.93-27.95l110.53-93.66Z"/><path class="cls-12" d="M930.57,353.53c2.64,4.01,5.21,8.05,7.71,12.14l-123.56,75.64c-1.67-2.73-3.38-5.43-5.14-8.1l120.99-79.69Z"/><path class="cls-13" d="M938.28,365.67c5.2,8.49,10.1,17.16,14.71,25.99l-128.46,66.98c-3.07-5.89-6.34-11.66-9.8-17.33l123.56-75.64Z"/><path class="cls-13" d="M952.99,391.66c7.62,14.61,14.4,29.65,20.31,45.03l-135.23,51.97c-3.94-10.25-8.46-20.28-13.54-30.02l128.46-66.98Z"/><path class="cls-13" d="M973.3,436.69c3.64,9.47,6.95,19.07,9.92,28.78l-138.54,42.38c-1.98-6.47-4.18-12.87-6.61-19.19l135.23-51.97Z"/><path class="cls-13" d="M983.22,465.47c5.21,17.02,9.36,34.35,12.44,51.88l-142.69,25.08c-2.05-11.69-4.83-23.24-8.3-34.58l138.54-42.38Z"/><path class="cls-13" d="M995.66,517.34c2.19,12.47,3.84,25.02,4.93,37.64l-144.33,12.54c-.73-8.41-1.83-16.78-3.29-25.09l142.69-25.08Z"/><path class="cls-13" d="M1000.6,554.98c1.18,13.53,1.72,27.11,1.62,40.7l-144.87-1.03c.06-9.06-.3-18.11-1.08-27.13l144.33-12.54Z"/><path class="cls-13" d="M1002.22,595.68c-.1,14.57-.94,29.13-2.51,43.62l-144.04-15.57c1.04-9.66,1.6-19.36,1.67-29.08l144.87,1.03Z"/><path class="cls-13" d="M999.71,639.3c-.86,8-1.95,15.97-3.26,23.91l-142.95-23.54c.87-5.29,1.6-10.61,2.17-15.94l144.04,15.57Z"/><path class="cls-13" d="M996.45,663.21c-.68,4.14-1.42,8.28-2.23,12.4l-142.21-27.67c.53-2.75,1.03-5.5,1.48-8.27l142.95,23.54Z"/><path class="cls-13" d="M994.23,675.61c-4.75,24.43-11.6,48.41-20.45,71.66l-135.39-51.56c5.9-15.51,10.47-31.49,13.64-47.78l142.21,27.67Z"/><path class="cls-13" d="M973.77,747.27c-7.95,20.87-17.49,41.1-28.55,60.5l-125.87-71.73c7.37-12.94,13.73-26.42,19.03-40.33l135.39,51.56Z"/><path class="cls-13" d="M945.22,807.77c-4.15,7.28-8.51,14.44-13.07,21.46l-121.52-78.88c3.04-4.68,5.95-9.46,8.71-14.31l125.87,71.73Z"/><path class="cls-13" d="M932.16,829.23c-4.96,7.65-10.17,15.13-15.6,22.45l-116.32-86.36c3.62-4.88,7.09-9.87,10.4-14.97l121.52,78.88Z"/><path class="cls-14" d="M916.56,851.69c-7.1,9.57-14.6,18.84-22.46,27.79l-108.83-95.63c5.24-5.97,10.24-12.15,14.97-18.52l116.32,86.36Z"/><path class="cls-14" d="M894.1,879.48c-15.82,18-33.1,34.67-51.67,49.82l-91.61-112.24c12.38-10.1,23.9-21.21,34.44-33.21l108.83,95.63Z"/><path class="cls-14" d="M842.43,929.3c-8.86,7.23-18.01,14.11-27.41,20.62l-82.47-119.11c6.27-4.34,12.37-8.93,18.27-13.75l91.61,112.24Z"/><path class="cls-14" d="M815.02,949.92c-10.29,7.13-20.89,13.81-31.76,20.02l-71.89-125.78c7.25-4.14,14.31-8.6,21.18-13.35l82.47,119.11Z"/><path class="cls-14" d="M783.26,969.94c-7.47,4.27-15.07,8.32-22.78,12.14l-64.29-129.83c5.14-2.55,10.2-5.24,15.18-8.09l71.89,125.78Z"/><path class="cls-14" d="M760.48,982.08c-10.85,5.38-21.93,10.29-33.19,14.74l-53.23-134.74c7.51-2.97,14.89-6.25,22.13-9.83l64.29,129.83Z"/><path class="cls-14" d="M727.28,996.82c-10.78,4.26-21.73,8.09-32.82,11.47l-42.29-138.57c7.39-2.26,14.69-4.81,21.88-7.65l53.23,134.74Z"/><path class="cls-14" d="M694.46,1008.29c-12.38,3.78-24.93,7-37.6,9.66l-29.76-141.79c8.45-1.77,16.81-3.92,25.06-6.44l42.29,138.57Z"/><path class="cls-9" d="M656.87,1017.95c-8.85,1.86-17.76,3.44-26.71,4.74l-20.85-143.37c5.97-.87,11.91-1.92,17.81-3.16l29.76,141.79Z"/><path class="cls-9" d="M630.15,1022.69c-4.79,.7-9.58,1.31-14.39,1.85l-16.05-143.98c3.2-.36,6.4-.77,9.59-1.23l20.85,143.37Z"/><path class="cls-9" d="M615.76,1024.54c-2.19,.24-4.37,.47-6.56,.68l-13.86-144.21c1.46-.14,2.92-.29,4.38-.45l16.05,143.98Z"/><path class="cls-9" d="M609.2,1025.22c-7.83,.75-15.68,1.29-23.53,1.62l-6.02-144.75c5.24-.22,10.47-.58,15.69-1.08l13.86,144.21Z"/><path class="cls-9" d="M585.66,1026.84c-17.25,.72-34.53,.41-51.75-.93l11.23-144.44c11.48,.89,23,1.1,34.5,.62l6.02,144.75Z"/><path class="cls-9" d="M533.92,1025.91c-5.92-.46-11.84-1.04-17.74-1.75l17.14-143.86c3.93,.47,7.88,.86,11.83,1.16l-11.23,144.44Z"/><path class="cls-9" d="M516.18,1024.17c-15.57-1.86-31.03-4.55-46.31-8.08l32.58-141.16c10.19,2.35,20.49,4.15,30.87,5.38l-17.14,143.86Z"/><path class="cls-9" d="M469.87,1016.09c-12.24-2.83-24.35-6.18-36.3-10.05l44.68-137.81c7.97,2.58,16.04,4.82,24.2,6.7l-32.58,141.16Z"/><path class="cls-11" d="M433.56,1006.03c-11.45-3.71-22.74-7.9-33.84-12.55l55.96-133.63c7.4,3.1,14.93,5.89,22.56,8.37l-44.68,137.81Z"/><path class="cls-11" d="M399.72,993.49c-5.69-2.38-11.34-4.89-16.93-7.52l61.6-131.12c3.73,1.75,7.49,3.42,11.28,5.01l-55.96,133.63Z"/><path class="cls-11" d="M382.79,985.97c-11.93-5.61-23.61-11.75-34.98-18.42l73.26-124.99c7.58,4.45,15.37,8.54,23.32,12.28l-61.6,131.12Z"/><path class="cls-11" d="M347.81,967.55c-4.36-2.56-8.68-5.19-12.95-7.9l77.58-122.35c2.85,1.81,5.73,3.56,8.64,5.27l-73.26,124.99Z"/><path class="cls-11" d="M334.86,959.65c-9.25-5.86-18.27-12.07-27.04-18.62l86.6-116.15c5.85,4.36,11.87,8.5,18.03,12.41l-77.58,122.35Z"/><path class="cls-11" d="M307.81,941.03c-7.71-5.75-15.23-11.76-22.55-18.01l94.11-110.14c4.88,4.17,9.89,8.17,15.03,12l-86.6,116.15Z"/><path class="cls-11" d="M285.27,923.02c-9.18-7.84-18.03-16.07-26.52-24.64l102.95-101.93c5.66,5.72,11.56,11.2,17.68,16.43l-94.11,110.14Z"/><path class="cls-11" d="M258.74,898.38c-8.55-8.64-16.73-17.63-24.53-26.95l111.13-92.94c5.2,6.21,10.65,12.21,16.35,17.97l-102.95,101.93Z"/><path class="cls-11" d="M234.21,871.43c-8.11-9.7-15.8-19.75-23.03-30.12l118.81-82.91c4.82,6.91,9.95,13.61,15.36,20.08l-111.13,92.94Z"/><path class="cls-11" d="M211.18,841.31c-7.23-10.36-14.01-21.03-20.31-31.99l125.58-72.25c4.2,7.3,8.72,14.42,13.54,21.32l-118.81,82.91Z"/><path class="cls-11" d="M190.87,809.33c-4.95-8.61-9.61-17.38-13.96-26.31l130.23-63.47c2.9,5.95,6,11.8,9.31,17.54l-125.58,72.25Z"/><path class="cls-11" d="M176.91,783.02c-2.51-5.15-4.92-10.35-7.22-15.6l132.64-58.27c1.54,3.5,3.14,6.96,4.82,10.4l-130.23,63.47Z"/><path class="cls-11" d="M169.69,767.42c-.23-.53-.46-1.06-.69-1.59l132.87-57.75c.15,.35,.31,.71,.46,1.06l-132.64,58.27Z"/><path class="cls-10" d="M169,765.83c-3.16-7.27-6.12-14.63-8.88-22.07l135.83-50.39c1.84,4.96,3.81,9.86,5.92,14.71l-132.87,57.75Z"/><path class="cls-10" d="M160.11,743.76c-5.57-15.02-10.31-30.34-14.19-45.88l140.56-35.09c2.59,10.36,5.75,20.57,9.46,30.59l-135.83,50.39Z"/><path class="cls-10" d="M145.92,697.88c-2.96-11.86-5.42-23.83-7.37-35.9l143.02-23.13c1.3,8.04,2.94,16.03,4.91,23.93l-140.56,35.09Z"/><path class="cls-10" d="M138.55,661.98c-1.68-10.37-2.98-20.8-3.9-31.27l144.32-12.71c.61,6.98,1.48,13.93,2.6,20.85l-143.02,23.13Z"/><path class="cls-10" d="M134.65,630.71c-1.23-13.95-1.78-27.96-1.66-41.96l144.87,1.28c-.08,9.34,.29,18.67,1.11,27.97l-144.32,12.71Z"/><path class="cls-10" d="M132.99,588.75c.17-18.88,1.56-37.72,4.18-56.41l143.48,20.09c-1.74,12.46-2.68,25.02-2.79,37.61l-144.87-1.28Z"/><path class="cls-10" d="M137.17,532.34c2.73-19.5,6.78-38.8,12.13-57.75l139.43,39.33c-3.56,12.64-6.27,25.5-8.09,38.5l-143.48-20.09Z"/><path class="cls-10" d="M149.3,474.59c2.49-8.84,5.27-17.6,8.32-26.27l136.66,48.09c-2.03,5.78-3.88,11.62-5.55,17.51l-139.43-39.33Z"/><path class="cls-10" d="M157.62,448.32c2.58-7.33,5.36-14.6,8.33-21.78l133.88,55.35c-1.98,4.79-3.83,9.63-5.55,14.52l-136.66-48.09Z"/><path class="cls-10" d="M165.95,426.54c5.25-12.7,11.1-25.14,17.53-37.29l128.04,67.78c-4.29,8.1-8.19,16.39-11.69,24.86l-133.88-55.35Z"/><path class="cls-10" d="M183.48,389.25c2.99-5.64,6.1-11.22,9.33-16.72l124.93,73.35c-2.15,3.67-4.23,7.39-6.22,11.15l-128.04-67.78Z"/><path class="cls-10" d="M192.81,372.53c2.81-4.78,5.71-9.51,8.69-14.18l122.03,78.08c-1.99,3.11-3.92,6.26-5.79,9.45l-124.93-73.35Z"/><path class="cls-15" d="M201.5,358.36c7.85-12.27,16.31-24.13,25.35-35.55l113.58,89.93c-6.03,7.61-11.67,15.52-16.9,23.7l-122.03-78.08Z"/><path class="cls-15" d="M226.85,322.8c8.3-10.48,17.08-20.58,26.31-30.25l104.81,100.01c-6.15,6.45-12.01,13.18-17.54,20.17l-113.58-89.93Z"/><path class="cls-15" d="M253.16,292.55c6.37-6.67,12.95-13.14,19.73-19.4l98.24,106.48c-4.52,4.17-8.91,8.48-13.15,12.93l-104.81-100.01Z"/><path class="cls-15" d="M272.88,273.16c14.33-13.22,29.53-25.46,45.5-36.64l83.07,118.69c-10.65,7.45-20.78,15.61-30.33,24.43l-98.24-106.48Z"/><path class="cls-15" d="M318.38,236.52c6.62-4.63,13.36-9.08,20.23-13.33l76.33,123.14c-4.58,2.84-9.07,5.8-13.49,8.89l-83.07-118.69Z"/><path class="cls-15" d="M338.61,223.18c14.1-8.74,28.69-16.66,43.69-23.74l61.77,131.05c-10,4.71-19.73,10-29.13,15.82l-76.33-123.14Z"/><path class="cls-15" d="M382.3,199.45c11.46-5.4,23.15-10.3,35.04-14.68l50.09,135.94c-7.92,2.92-15.72,6.19-23.36,9.79l-61.77-131.05Z"/><path class="cls-15" d="M417.34,184.77c48.12-17.73,98.99-26.8,150.26-26.8v144.88c-34.18,0-68.1,6.05-100.18,17.87l-50.09-135.94Z"/><path class="cls-22" d="M575.51,85.59c6.51,.18,13.02,.36,18.7,.64,5.68,.28,10.55,.66,13.3,.88,2.76,.22,3.42,.28,5.05,.42,1.63,.15,4.23,.39,6.69,.64,2.45,.25,4.76,.51,7.06,.77"/><circle class="cls-12" cx="575.51" cy="85.59" r="6.53"/><circle class="cls-12" cx="594.21" cy="86.23" r="7.63"/><circle class="cls-12" cx="607.52" cy="87.1" r="3.69"/><circle class="cls-12" cx="612.56" cy="87.53" r="3.7"/><circle class="cls-12" cx="619.25" cy="88.17" r="4.75"/><circle class="cls-12" cx="626.3" cy="88.94" r="3.97"/><path class="cls-22" d="M630.64,89.46c-.28-.05-.57-.09,2.78,.36,3.35,.45,10.33,1.39,17.83,2.66,7.49,1.26,15.49,2.84,19.91,3.74,4.42,.9,5.24,1.1,6.77,1.46,1.52,.36,3.74,.86,5.95,1.36"/><circle class="cls-12" cx="630.64" cy="89.46" r="2.79"/><circle class="cls-12" cx="633.42" cy="89.82" r="2.7"/><circle class="cls-12" cx="651.24" cy="92.48" r="9.48"/><circle class="cls-12" cx="671.15" cy="96.22" r="4.4"/><circle class="cls-12" cx="677.92" cy="97.68" r="4.24"/><circle class="cls-12" cx="683.87" cy="99.04" r="3.87"/><path class="cls-22" d="M687.77,99.97c.46,.1,.91,.2,3.15,.78,2.24,.58,6.26,1.64,10.29,2.69"/><circle class="cls-12" cx="687.77" cy="99.97" r="2.58"/><circle class="cls-12" cx="690.92" cy="100.75" r="3.3"/><circle class="cls-12" cx="701.2" cy="103.45" r="6.81"/><path class="cls-22" d="M713.04,106.84c2.67,.81,5.34,1.61,8.55,2.64,3.21,1.03,6.97,2.29,10.73,3.55"/><circle class="cls-12" cx="713.04" cy="106.84" r="4.47"/><circle class="cls-12" cx="721.6" cy="109.48" r="5.32"/><circle class="cls-12" cx="732.32" cy="113.03" r="5.71"/><path class="cls-22" d="M742.77,116.75c2.68,1.01,5.37,2.01,7.3,2.75,1.93,.74,3.12,1.21,4.49,1.76,1.38,.55,2.95,1.18,4.95,1.99,2,.82,4.43,1.82,7.09,2.96,2.65,1.14,5.53,2.41,8.41,3.68"/><circle class="cls-12" cx="742.77" cy="116.75" r="5.21"/><circle class="cls-12" cx="750.07" cy="119.5" r="3.86"/><circle class="cls-12" cx="754.56" cy="121.26" r="3.34"/><circle class="cls-12" cx="759.51" cy="123.25" r="4.2"/><circle class="cls-12" cx="766.6" cy="126.21" r="4.88"/><circle class="cls-12" cx="775" cy="129.89" r="5.07"/><path class="cls-22" d="M781.55,132.88c2.16,1,4.33,2.01,7.43,3.53,3.11,1.52,7.16,3.57,11.21,5.61"/><circle class="cls-12" cx="781.55" cy="132.88" r="3.63"/><circle class="cls-12" cx="788.99" cy="136.41" r="5.59"/><circle class="cls-12" cx="800.2" cy="142.03" r="6.03"/><path class="cls-22" d="M809.05,146.71c1.16,.63,2.32,1.27,3.86,2.11,1.54,.84,3.46,1.9,6.72,3.78,3.26,1.88,7.88,4.6,11.69,6.91,3.82,2.31,6.83,4.22,9.3,5.8,2.46,1.58,4.36,2.82,5.92,3.84,1.56,1.02,2.77,1.83,4.49,2.99s3.96,2.68,6.34,4.34,4.89,3.46,6.42,4.55c1.53,1.08,2.08,1.45,5.39,3.93,3.31,2.48,9.39,7.07,14.83,11.4,5.44,4.33,10.23,8.38,12.96,10.7,2.73,2.32,3.4,2.91,5.38,4.66s5.26,4.67,8.29,7.45c3.03,2.77,5.81,5.4,8.34,7.84,2.53,2.44,4.82,4.68,6.84,6.7,2.02,2.02,3.77,3.8,5.52,5.59"/><circle class="cls-12" cx="809.05" cy="146.71" r="4.19"/><circle class="cls-12" cx="812.91" cy="148.82" r="2.48"/><circle class="cls-12" cx="819.63" cy="152.6" r="5.95"/><circle class="cls-12" cx="831.32" cy="159.51" r="6.15"/><circle class="cls-12" cx="840.62" cy="165.31" r="4.61"/><circle class="cls-12" cx="846.54" cy="169.15" r="4.1"/><circle class="cls-12" cx="851.03" cy="172.14" r="3.51"/><circle class="cls-12" cx="857.37" cy="176.48" r="5.39"/><circle class="cls-12" cx="863.79" cy="181.03" r="3.65"/><circle class="cls-12" cx="869.18" cy="184.96" r="4.76"/><circle class="cls-12" cx="884.01" cy="196.36" r="8.84"/><circle class="cls-12" cx="896.97" cy="207.07" r="3.52"/><circle class="cls-12" cx="902.35" cy="211.73" r="5.1"/><circle class="cls-12" cx="910.64" cy="219.18" r="5.84"/><circle class="cls-12" cx="918.98" cy="227.02" r="5.25"/><circle class="cls-12" cx="925.82" cy="233.71" r="4.9"/><circle class="cls-12" cx="931.34" cy="239.31" r="4.29"/><path class="cls-22" d="M938.48,246.81c3.1,3.39,6.2,6.77,8.56,9.41,2.36,2.64,3.98,4.54,5.61,6.43"/><circle class="cls-12" cx="938.48" cy="246.81" r="6.12"/><circle class="cls-12" cx="947.04" cy="256.23" r="5.58"/><circle class="cls-12" cx="952.64" cy="262.66" r="3.86"/><path class="cls-22" d="M957.16,268c1.44,1.75,2.89,3.5,3.93,4.77,1.04,1.27,1.68,2.07,2.25,2.79,.58,.72,1.09,1.37,2.15,2.7,1.06,1.34,2.67,3.37,4.97,6.39,2.3,3.02,5.29,7.02,7.83,10.52,2.54,3.5,4.63,6.48,6.35,8.97,1.72,2.49,3.06,4.48,4.41,6.48"/><circle class="cls-12" cx="957.16" cy="268" r="4.77"/><circle class="cls-12" cx="961.08" cy="272.77" r="3.24"/><circle class="cls-12" cx="963.33" cy="275.56" r="2.97"/><circle class="cls-12" cx="965.49" cy="278.27" r="3.13"/><circle class="cls-12" cx="970.45" cy="284.66" r="5.82"/><circle class="cls-12" cx="978.28" cy="295.17" r="6.07"/><circle class="cls-12" cx="984.63" cy="304.15" r="4.73"/><circle class="cls-12" cx="989.03" cy="310.62" r="4.45"/><path class="cls-22" d="M993.24,317.02c.97,1.5,1.93,3.01,2.58,4.02,.65,1.01,.97,1.54,1.49,2.36s1.21,1.95,1.91,3.07"/><circle class="cls-12" cx="993.24" cy="317.02" r="4.63"/><circle class="cls-12" cx="995.82" cy="321.04" r="2.07"/><circle class="cls-12" cx="997.31" cy="323.4" r="3.28"/><circle class="cls-12" cx="999.22" cy="326.47" r="2.96"/><path class="cls-19" d="M1002.71,332.22c1.61,2.72,3.21,5.44,4.58,7.82,1.37,2.38,2.51,4.41,3.43,6.07,.92,1.66,1.62,2.93,2.41,4.38,.79,1.45,1.66,3.08,2.53,4.71"/><circle class="cls-13" cx="1002.71" cy="332.22" r="5.25"/><circle class="cls-13" cx="1007.29" cy="340.03" r="4.62"/><circle class="cls-13" cx="1010.72" cy="346.1" r="4.03"/><circle class="cls-13" cx="1013.13" cy="350.49" r="3.27"/><circle class="cls-13" cx="1015.66" cy="355.2" r="4.26"/><path class="cls-19" d="M1019.74,363.06c1.46,2.92,2.91,5.84,3.99,8.04,1.08,2.2,1.78,3.67,2.92,6.11,1.14,2.44,2.72,5.86,4.19,9.17,1.48,3.31,2.85,6.52,3.81,8.79,.96,2.26,1.51,3.59,2.25,5.41,.74,1.82,1.67,4.15,2.6,6.48"/><circle class="cls-13" cx="1019.74" cy="363.06" r="5.45"/><circle class="cls-13" cx="1023.73" cy="371.1" r="4.33"/><circle class="cls-13" cx="1026.65" cy="377.21" r="4.22"/><circle class="cls-13" cx="1030.84" cy="386.38" r="6.05"/><circle class="cls-13" cx="1034.65" cy="395.17" r="3.88"/><circle class="cls-13" cx="1036.9" cy="400.58" r="4.07"/><circle class="cls-13" cx="1039.5" cy="407.06" r="4.59"/><path class="cls-19" d="M1043.34,417.13l5.85,16.77"/><circle class="cls-13" cx="1043.34" cy="417.13" r="6.08"/><circle class="cls-13" cx="1049.19" cy="433.9" r="7.66"/><path class="cls-19" d="M1052.89,445.6c1.54,5.12,3.07,10.25,4.89,17.24s3.93,15.86,5.3,21.99c1.37,6.13,2,9.54,2.64,12.95"/><circle class="cls-13" cx="1052.89" cy="445.6" r="2.73"/><circle class="cls-13" cx="1057.78" cy="462.84" r="9.44"/><circle class="cls-13" cx="1063.08" cy="484.84" r="5.72"/><circle class="cls-13" cx="1065.72" cy="497.78" r="6.2"/><path class="cls-19" d="M1067.8,509.45c.54,3.37,1.08,6.74,1.6,10.26,.52,3.52,1.01,7.19,1.44,10.74,.44,3.55,.82,6.97,1.1,9.65,.28,2.68,.46,4.63,.64,6.57"/><circle class="cls-13" cx="1067.8" cy="509.45" r="5.04"/><circle class="cls-13" cx="1069.4" cy="519.7" r="5.53"/><circle class="cls-13" cx="1070.84" cy="530.44" r="5.28"/><circle class="cls-13" cx="1071.94" cy="540.09" r="4.95"/><circle class="cls-13" cx="1072.58" cy="546.66" r="3.33"/><path class="cls-19" d="M1072.87,549.98c.11,1.31,.22,2.62,.39,4.92,.17,2.3,.4,5.59,.59,9.06,.2,3.47,.36,7.13,.48,10.35,.12,3.22,.19,6.01,.24,8.82s.07,5.64,.09,8.47"/><circle class="cls-13" cx="1072.87" cy="549.98" r="2.62"/><circle class="cls-13" cx="1073.26" cy="554.9" r="4.45"/><circle class="cls-13" cx="1073.86" cy="563.96" r="5.4"/><circle class="cls-13" cx="1074.34" cy="574.31" r="5.17"/><circle class="cls-13" cx="1074.58" cy="583.12" r="4.57"/><circle class="cls-13" cx="1074.66" cy="591.59" r="4.98" transform="translate(272.57 1519.78) rotate(-78)"/><path class="cls-19" d="M1074.64,597.37c-.01,1.54-.02,3.07-.09,6.03-.07,2.96-.21,7.34-.36,11.21-.16,3.86-.33,7.21-.61,11.16s-.65,8.51-1.03,13.06"/><circle class="cls-13" cx="1074.64" cy="597.37" r="2.52"/><circle class="cls-13" cx="1074.55" cy="603.41" r="5.12" transform="translate(292.98 1556.25) rotate(-79.96)"/><circle class="cls-13" cx="1074.19" cy="614.61" r="5.85"/><circle class="cls-13" cx="1073.58" cy="625.77" r="5.1"/><circle class="cls-13" cx="1072.55" cy="638.84" r="6.68"/><path class="cls-19" d="M1071.52,649.02c-.11,.94-.21,1.87-.33,2.9-.12,1.02-.25,2.14-.43,3.52-.18,1.39-.39,3.04-.56,4.29-.16,1.25-.28,2.08-.4,2.94-.12,.86-.25,1.75-.39,2.77s-.32,2.18-.51,3.44c-.19,1.26-.41,2.62-.62,3.99"/><circle class="cls-13" cx="1071.52" cy="649.02" r="3.24"/><circle class="cls-13" cx="1071.18" cy="651.92" r="2.29"/><circle class="cls-13" cx="1070.76" cy="655.44" r="3.73"/><circle class="cls-13" cx="1070.2" cy="659.73" r="3.07"/><circle class="cls-13" cx="1069.8" cy="662.67" r="2.56"/><circle class="cls-13" cx="1069.4" cy="665.44" r="2.92"/><circle class="cls-13" cx="1068.89" cy="668.89" r="3.2"/><circle class="cls-13" cx="1068.27" cy="672.87" r="3.39"/><path class="cls-19" d="M1067.82,675.61c-.2,1.17-.39,2.33-.66,3.89-.27,1.55-.62,3.49-.88,4.93-.26,1.44-.45,2.4-.63,3.35"/><circle class="cls-13" cx="1067.82" cy="675.61" r="1.86"/><circle class="cls-13" cx="1067.16" cy="679.49" r="4.22"/><circle class="cls-13" cx="1066.28" cy="684.42" r="3.03"/><circle class="cls-13" cx="1065.65" cy="687.77" r="3.03"/><path class="cls-19" d="M1062.98,700.82c-1.8,7.61-3.59,15.22-5.17,21.43-1.58,6.21-2.95,11.02-4.82,17.03-1.88,6.01-4.26,13.22-6.65,20.42"/><circle class="cls-13" cx="1062.98" cy="700.82" r="7.91"/><circle class="cls-13" cx="1057.81" cy="722.25" r="7.5"/><circle class="cls-13" cx="1052.98" cy="739.28" r="6.26"/><circle class="cls-13" cx="1046.34" cy="759.7" r="8.75"/><path class="cls-19" d="M1040.26,776.18c-.91,2.38-1.81,4.75-3.82,9.56-2.01,4.8-5.12,12.04-7.86,18.08-2.74,6.04-5.11,10.89-7.41,15.48-2.3,4.58-4.54,8.9-6.55,12.67-2.01,3.76-3.81,6.97-5.6,10.17"/><circle class="cls-13" cx="1040.26" cy="776.18" r="4.25"/><circle class="cls-13" cx="1036.44" cy="785.74" r="6.12"/><circle class="cls-13" cx="1028.58" cy="803.81" r="8.3"/><circle class="cls-13" cx="1021.17" cy="819.29" r="4.86"/><circle class="cls-13" cx="1014.61" cy="831.96" r="7.3"/><circle class="cls-13" cx="1009.02" cy="842.13" r="3.06"/><path class="cls-19" d="M1007.09,845.51c-.86,1.48-1.72,2.97-2.49,4.28-.77,1.31-1.45,2.45-2.22,3.73-.77,1.28-1.63,2.7-2.59,4.26-.96,1.56-2.01,3.25-2.93,4.73-.93,1.47-1.73,2.73-2.53,3.99"/><circle class="cls-13" cx="1007.09" cy="845.51" r="3.41"/><circle class="cls-13" cx="1004.6" cy="849.79" r="3.88"/><circle class="cls-13" cx="1002.38" cy="853.52" r="2.89"/><circle class="cls-13" cx="999.79" cy="857.78" r="4.3"/><circle class="cls-13" cx="996.86" cy="862.51" r="3.39"/><circle class="cls-13" cx="994.32" cy="866.5" r="3.74"/><path class="cls-19" d="M991,871.61c-1.04,1.57-2.08,3.13-2.93,4.4-.85,1.26-1.5,2.22-2.28,3.35-.77,1.13-1.67,2.42-2.48,3.59-.81,1.16-1.54,2.19-2.23,3.17-.7,.98-1.36,1.9-1.98,2.78-.63,.87-1.22,1.68-1.79,2.48-.58,.79-1.14,1.56-1.71,2.33"/><circle class="cls-13" cx="991" cy="871.61" r="4.35"/><circle class="cls-13" cx="988.07" cy="876.01" r="3.1"/><circle class="cls-13" cx="985.79" cy="879.36" r="3.5"/><circle class="cls-13" cx="983.3" cy="882.95" r="3.36"/><circle class="cls-13" cx="981.07" cy="886.12" r="3.11"/><circle class="cls-13" cx="979.09" cy="888.89" r="2.96"/><circle class="cls-13" cx="977.29" cy="891.37" r="2.78"/><circle class="cls-13" cx="975.58" cy="893.7" r="2.8"/><path class="cls-20" d="M968.37,903.23l-13.11,16.21"/><circle class="cls-14" cx="968.37" cy="903.23" r="7.52"/><circle class="cls-14" cx="955.27" cy="919.44" r="7.47"/><path class="cls-20" d="M944.57,931.72c-3.67,4.01-7.33,8.02-11.19,12.04-3.86,4.02-7.9,8.06-10.66,10.78-2.76,2.71-4.23,4.11-5.52,5.33-1.29,1.22-2.41,2.28-3.9,3.67-1.5,1.4-3.38,3.13-5.35,4.91-1.97,1.79-4.04,3.62-5.66,5.05-1.61,1.42-2.78,2.42-3.81,3.32-1.04,.89-1.95,1.67-3.15,2.69-1.21,1.02-2.71,2.27-4.21,3.53"/><circle class="cls-14" cx="944.57" cy="931.72" r="5.66"/><circle class="cls-14" cx="933.38" cy="943.76" r="7.52"/><circle class="cls-14" cx="922.72" cy="954.54" r="5.01"/><circle class="cls-14" cx="917.2" cy="959.87" r="4.03"/><circle class="cls-14" cx="913.3" cy="963.55" r="3.56"/><circle class="cls-14" cx="907.95" cy="968.46" r="5.15"/><circle class="cls-14" cx="902.29" cy="973.51" r="3.79"/><circle class="cls-14" cx="898.48" cy="976.82" r="3.59"/><circle class="cls-14" cx="895.33" cy="979.51" r="3.07"/><circle class="cls-14" cx="891.12" cy="983.04" r="4.49"/><path class="cls-20" d="M886.68,986.68c-1.26,1.02-2.53,2.03-3.74,3-1.22,.97-2.39,1.89-3.46,2.72s-2.02,1.57-3.19,2.46c-1.17,.89-2.54,1.94-3.7,2.81-1.16,.87-2.09,1.57-3.19,2.39-1.1,.82-2.37,1.74-3.55,2.6-1.18,.86-2.27,1.64-3.45,2.49-1.18,.84-2.46,1.74-3.73,2.64"/><circle class="cls-14" cx="886.68" cy="986.68" r="3.28"/><circle class="cls-14" cx="882.94" cy="989.68" r="3.88"/><circle class="cls-14" cx="879.48" cy="992.4" r="2.94"/><circle class="cls-14" cx="876.29" cy="994.86" r="3.62"/><circle class="cls-14" cx="872.6" cy="997.68" r="3.46"/><circle class="cls-14" cx="869.4" cy="1000.06" r="3.09"/><circle class="cls-14" cx="865.86" cy="1002.66" r="3.77"/><circle class="cls-14" cx="862.4" cy="1005.15" r="2.96"/><circle class="cls-14" cx="858.68" cy="1007.79" r="3.99"/><path class="cls-20" d="M850.44,1013.44c-3.8,2.5-7.61,5-10.18,6.66-2.57,1.66-3.9,2.48-5.61,3.53-1.7,1.05-3.78,2.33-6.03,3.68-2.25,1.35-4.67,2.77-7.1,4.18"/><circle class="cls-14" cx="850.44" cy="1013.44" r="6.16"/><circle class="cls-14" cx="840.27" cy="1020.11" r="5.25"/><circle class="cls-14" cx="834.66" cy="1023.63" r="2.85"/><circle class="cls-14" cx="828.63" cy="1027.31" r="5.47"/><circle class="cls-14" cx="821.53" cy="1031.49" r="3.81"/><path class="cls-20" d="M817.67,1033.7c-1.26,.71-2.52,1.42-3.55,1.99-1.03,.57-1.83,1.01-3.02,1.67-1.19,.66-2.78,1.53-5.17,2.79-2.38,1.26-5.56,2.9-8.74,4.54"/><circle class="cls-14" cx="817.67" cy="1033.7" r="3.08"/><circle class="cls-14" cx="814.12" cy="1035.7" r="3.53"/><circle class="cls-14" cx="811.1" cy="1037.36" r="2.47"/><circle class="cls-14" cx="805.93" cy="1040.15" r="5.05"/><circle class="cls-14" cx="797.19" cy="1044.7" r="5.25"/><path class="cls-20" d="M788.35,1049.08c-3.13,1.49-6.26,2.98-9.24,4.35-2.98,1.37-5.82,2.63-8.26,3.7-2.45,1.07-4.5,1.95-6.69,2.87-2.19,.92-4.51,1.86-6.82,2.81"/><circle class="cls-14" cx="788.35" cy="1049.08" r="5.06"/><circle class="cls-14" cx="779.11" cy="1053.44" r="5.42"/><circle class="cls-14" cx="770.85" cy="1057.14" r="4.4"/><circle class="cls-14" cx="764.16" cy="1060.01" r="4.45"/><circle class="cls-14" cx="757.34" cy="1062.82" r="4.47"/><path class="cls-20" d="M746.23,1067.15c-4.2,1.54-8.4,3.08-11.91,4.32-3.51,1.24-6.32,2.17-8.9,3.01-2.58,.84-4.92,1.58-7.26,2.32"/><circle class="cls-14" cx="746.23" cy="1067.15" r="6.66"/><circle class="cls-14" cx="734.32" cy="1071.47" r="4.9"/><circle class="cls-14" cx="725.42" cy="1074.47" r="5.16"/><circle class="cls-14" cx="718.16" cy="1076.79" r="3.8"/><path class="cls-20" d="M714.3,1077.97c-.97,.29-1.93,.59-3.88,1.15s-4.86,1.41-8.05,2.29c-3.19,.88-6.65,1.79-9.08,2.41-2.43,.62-3.82,.96-5.08,1.27-1.25,.31-2.37,.58-4.32,1.04s-4.72,1.08-7.49,1.71"/><circle class="cls-14" cx="714.3" cy="1077.97" r="2.71"/><circle class="cls-14" cx="710.43" cy="1079.13" r="3.8"/><circle class="cls-14" cx="702.38" cy="1081.42" r="5.54"/><circle class="cls-14" cx="693.29" cy="1083.83" r="4.47"/><circle class="cls-14" cx="688.22" cy="1085.1" r="2.87"/><circle class="cls-14" cx="683.9" cy="1086.14" r="3.96"/><circle class="cls-14" cx="676.41" cy="1087.84" r="5.07"/><path class="cls-24" d="M669.05,1089.4c-1.98,.4-3.96,.8-6.04,1.2-2.08,.4-4.24,.8-6.19,1.14-1.94,.35-3.67,.64-5.14,.89s-2.71,.45-4.08,.67c-1.37,.22-2.89,.45-4.4,.68"/><circle class="cls-9" cx="669.05" cy="1089.4" r="3.85"/><circle class="cls-9" cx="663.02" cy="1090.6" r="4.29"/><circle class="cls-9" cx="656.83" cy="1091.74" r="3.94"/><circle class="cls-9" cx="651.69" cy="1092.64" r="3.55"/><circle class="cls-9" cx="647.6" cy="1093.31" r="3.11"/><circle class="cls-9" cx="643.2" cy="1093.99" r="3.78"/><path class="cls-24" d="M633.94,1095.3l-8.4,1.04"/><circle class="cls-9" cx="633.94" cy="1095.3" r="6.01"/><circle class="cls-9" cx="625.54" cy="1096.34" r="3.08"/><path class="cls-24" d="M621.09,1096.83l-3.83,.39"/><circle class="cls-9" cx="621.09" cy="1096.83" r="3.83"/><circle class="cls-9" cx="617.26" cy="1097.22" r="2.47"/><path class="cls-24" d="M615.23,1097.41c-1.33,.12-2.67,.25-4.26,.38-1.59,.14-3.43,.28-4.75,.38-1.32,.1-2.11,.16-3.16,.23-1.05,.07-2.36,.16-3.55,.24-1.19,.08-2.27,.14-3.41,.2-1.14,.06-2.34,.13-3.4,.18-1.06,.05-1.98,.09-2.9,.13"/><circle class="cls-9" cx="615.23" cy="1097.41" r="2.21"/><circle class="cls-9" cx="610.98" cy="1097.8" r="4.26"/><circle class="cls-9" cx="606.23" cy="1098.18" r="2.74"/><circle class="cls-9" cx="603.07" cy="1098.41" r="3.09"/><circle class="cls-9" cx="599.52" cy="1098.65" r="3.1"/><circle class="cls-9" cx="596.11" cy="1098.85" r="2.96"/><circle class="cls-9" cx="592.71" cy="1099.03" r="3.09"/><circle class="cls-9" cx="589.8" cy="1099.17" r="2.47"/><path class="cls-24" d="M585.14,1099.35c-2.17,.06-4.33,.13-6.15,.18-1.81,.05-3.27,.08-6.17,.1-2.89,.02-7.22,.03-10.72,0-3.51-.03-6.19-.1-8.63-.17-2.44-.07-4.65-.14-7.41-.26-2.77-.12-6.1-.3-8.12-.41-2.02-.11-2.72-.16-3.61-.23-.89-.06-1.97-.13-2.86-.2-.89-.06-1.59-.12-2.29-.17"/><circle class="cls-9" cx="585.14" cy="1099.35" r="4.37"/><circle class="cls-9" cx="578.99" cy="1099.53" r="3.75"/><circle class="cls-9" cx="572.82" cy="1099.63" r="4.38"/><circle class="cls-9" cx="562.1" cy="1099.63" r="6.21"/><circle class="cls-9" cx="553.46" cy="1099.46" r="2.82"/><circle class="cls-9" cx="546.05" cy="1099.2" r="5.66"/><circle class="cls-9" cx="537.93" cy="1098.79" r="3.43"/><circle class="cls-9" cx="534.32" cy="1098.56" r="2.78"/><circle class="cls-9" cx="531.47" cy="1098.37" r="2.77"/><circle class="cls-9" cx="529.17" cy="1098.2" r="2.17"/><path class="cls-24" d="M525.72,1097.92c-1.99-.17-3.97-.34-6.32-.56-2.35-.23-5.06-.51-7.77-.8"/><circle class="cls-9" cx="525.72" cy="1097.92" r="3.74"/><circle class="cls-9" cx="519.4" cy="1097.36" r="4.5"/><circle class="cls-9" cx="511.63" cy="1096.56" r="4.67"/><path class="cls-24" d="M504.15,1095.67c-1.86-.24-3.71-.48-5.31-.7-1.6-.21-2.93-.4-4.88-.69-1.94-.29-4.49-.69-6.45-.99-1.97-.3-3.35-.5-6.96-1.16-3.61-.66-9.44-1.78-15.28-2.9"/><circle class="cls-9" cx="504.15" cy="1095.67" r="4.33"/><circle class="cls-9" cx="498.84" cy="1094.97" r="3.18"/><circle class="cls-9" cx="493.96" cy="1094.28" r="4.06"/><circle class="cls-9" cx="487.51" cy="1093.29" r="4.33"/><circle class="cls-9" cx="480.54" cy="1092.13" r="4.4"/><circle class="cls-9" cx="465.27" cy="1089.22" r="8.03"/><path class="cls-24" d="M452.56,1086.43c-.81-.19-1.61-.38-2.53-.6-.92-.22-1.95-.47-2.79-.67-.84-.2-1.49-.36-2.14-.53-.65-.16-1.3-.33-1.98-.5-.67-.17-1.37-.35-1.9-.49-.53-.14-.9-.23-1.36-.35-.47-.12-1.03-.27-1.72-.45-.69-.18-1.51-.4-2.31-.62-.8-.22-1.6-.43-2.22-.6-.63-.17-1.09-.3-1.7-.47-.61-.17-1.36-.38-2.16-.6-.8-.23-1.66-.47-2.43-.69-.77-.22-1.46-.42-2.22-.64-.76-.22-1.59-.47-2.56-.76-.97-.29-2.08-.62-3.19-.96-1.11-.34-2.21-.68-3.04-.94-.83-.26-1.39-.43-1.89-.6-.5-.16-.96-.3-1.38-.44-.42-.14-.82-.26-1.21-.39"/><circle class="cls-9" cx="452.56" cy="1086.43" r="2.37"/><circle class="cls-9" cx="450.03" cy="1085.84" r="2.9"/><circle class="cls-9" cx="447.25" cy="1085.17" r="2.65"/><circle class="cls-9" cx="445.11" cy="1084.64" r="2.19"/><circle class="cls-9" cx="443.13" cy="1084.14" r="2.49"/><circle class="cls-9" cx="441.23" cy="1083.66" r="2.1" transform="translate(-670.98 1446.96) rotate(-85.93)"/><circle class="cls-9" cx="439.87" cy="1083.3" r="1.79" transform="translate(-671.89 1445.28) rotate(-85.93)"/><circle class="cls-9" cx="438.15" cy="1082.85" r="2.53"/><circle class="cls-9" cx="435.83" cy="1082.24" r="2.55"/><circle class="cls-9" cx="433.61" cy="1081.63" r="2.43"/><circle class="cls-9" cx="431.92" cy="1081.16" r="1.89"/><circle class="cls-9" cx="429.76" cy="1080.56" r="2.92"/><circle class="cls-9" cx="427.33" cy="1079.87" r="2.26"/><circle class="cls-9" cx="425.11" cy="1079.22" r="2.71"/><circle class="cls-9" cx="422.56" cy="1078.47" r="2.65"/><circle class="cls-9" cx="419.36" cy="1077.5" r="3.31"/><circle class="cls-9" cx="416.33" cy="1076.56" r="2.49"/><circle class="cls-9" cx="414.43" cy="1075.97" r="2.12"/><circle class="cls-9" cx="413.05" cy="1075.53" r="1.82"/><circle class="cls-9" cx="411.84" cy="1075.14" r="1.88"/><path class="cls-25" d="M408.25,1073.97c-1.8-.6-3.6-1.21-5.03-1.7-1.44-.49-2.52-.87-3.68-1.27-1.16-.41-2.4-.85-3.75-1.33-1.35-.49-2.82-1.02-3.94-1.44-1.12-.41-1.91-.71-2.92-1.09-1.01-.38-2.25-.85-3.86-1.47-1.61-.62-3.59-1.39-5.44-2.14-1.85-.74-3.58-1.44-5.3-2.15"/><circle class="cls-11" cx="408.25" cy="1073.97" r="4.1"/><circle class="cls-11" cx="403.22" cy="1072.27" r="3.44"/><circle class="cls-11" cx="399.54" cy="1071" r="3.03"/><circle class="cls-11" cx="395.79" cy="1069.66" r="3.51"/><circle class="cls-11" cx="391.85" cy="1068.22" r="3.21"/><circle class="cls-11" cx="388.93" cy="1067.13" r="2.54"/><circle class="cls-11" cx="385.07" cy="1065.66" r="3.97"/><circle class="cls-11" cx="379.63" cy="1063.53" r="3.96"/><circle class="cls-11" cx="374.33" cy="1061.38" r="3.89"/><path class="cls-25" d="M366.95,1058.26l-9.88-4.38"/><circle class="cls-11" cx="366.95" cy="1058.26" r="5.3"/><circle class="cls-11" cx="357.07" cy="1053.88" r="5.49"/><path class="cls-25" d="M348.72,1049.98c-2.52-1.22-5.04-2.44-7.45-3.64-2.42-1.2-4.73-2.38-7.41-3.78-2.69-1.4-5.75-3.01-8.92-4.75-3.17-1.73-6.44-3.58-9.72-5.43"/><circle class="cls-11" cx="348.72" cy="1049.98" r="4.42"/><circle class="cls-11" cx="341.27" cy="1046.34" r="5.02"/><circle class="cls-11" cx="333.86" cy="1042.57" r="4.43"/><circle class="cls-11" cx="324.94" cy="1037.82" r="5.9"/><circle class="cls-11" cx="315.22" cy="1032.38" r="5.02"/><path class="cls-25" d="M309.08,1028.81c-1.08-.64-2.16-1.29-3.45-2.06-1.28-.77-2.77-1.68-4.19-2.55-1.42-.87-2.76-1.71-4.1-2.56"/><circle class="cls-11" cx="309.08" cy="1028.81" r="3.62" transform="translate(-755.95 1169.1) rotate(-80.78)"/><circle class="cls-11" cx="305.64" cy="1026.74" r="2.92"/><circle class="cls-11" cx="301.45" cy="1024.19" r="4.23"/><circle class="cls-11" cx="297.35" cy="1021.63" r="2.86"/><path class="cls-25" d="M293.6,1019.25c-1.45-.94-2.91-1.88-4.78-3.11-1.87-1.23-4.15-2.74-7.01-4.7-2.86-1.96-6.29-4.36-8.93-6.24-2.64-1.88-4.47-3.23-6.31-4.58"/><circle class="cls-11" cx="293.6" cy="1019.25" r="3.97"/><circle class="cls-11" cx="288.83" cy="1016.15" r="3.87"/><circle class="cls-11" cx="281.82" cy="1011.45" r="5.52"/><circle class="cls-11" cx="272.89" cy="1005.21" r="5.31"/><circle class="cls-11" cx="266.58" cy="1000.63" r="3.72"/><path class="cls-25" d="M259.7,995.47c-3.09-2.4-6.17-4.8-8.32-6.5-2.15-1.7-3.37-2.71-4.52-3.65-1.14-.94-2.21-1.81-3.4-2.8-1.19-.99-2.51-2.1-3.83-3.21"/><circle class="cls-11" cx="259.7" cy="995.47" r="5.7"/><circle class="cls-11" cx="251.38" cy="988.97" r="4.94"/><circle class="cls-11" cx="246.86" cy="985.32" r="2.62"/><circle class="cls-11" cx="243.46" cy="982.52" r="4.11"/><circle class="cls-11" cx="239.63" cy="979.31" r="3.17"/><path class="cls-25" d="M237.5,977.49c-.64-.55-1.28-1.1-2.43-2.1-1.15-1-2.82-2.44-5.5-4.85-2.68-2.4-6.36-5.76-9.69-8.89-3.32-3.13-6.29-6.04-9.25-8.94"/><circle class="cls-11" cx="237.5" cy="977.49" r="2.24"/><circle class="cls-11" cx="235.07" cy="975.39" r="3.51"/><circle class="cls-11" cx="229.57" cy="970.54" r="5.22"/><circle class="cls-11" cx="219.88" cy="961.65" r="6.61"/><circle class="cls-11" cx="210.63" cy="952.71" r="5.06"/><path class="cls-25" d="M203.52,945.52c-1.99-2.06-3.97-4.12-6.59-6.93-2.62-2.81-5.86-6.36-8.69-9.55-2.83-3.19-5.25-6.02-7.66-8.85"/><circle class="cls-11" cx="203.52" cy="945.52" r="5.37"/><circle class="cls-11" cx="196.93" cy="938.59" r="4.76"/><circle class="cls-11" cx="188.24" cy="929.04" r="6.85"/><circle class="cls-11" cx="180.57" cy="920.19" r="4.01"/><path class="cls-25" d="M176.43,915.23c-1.89-2.29-3.77-4.59-6.33-7.83-2.56-3.25-5.81-7.45-8.52-11.07-2.72-3.63-4.91-6.68-7.1-9.73"/><circle class="cls-11" cx="176.43" cy="915.23" r="4.32"/><circle class="cls-11" cx="170.1" cy="907.4" r="5.97"/><circle class="cls-11" cx="161.57" cy="896.33" r="6.3"/><circle class="cls-11" cx="154.47" cy="886.59" r="5.02"/><path class="cls-25" d="M150.09,880.33c-1.06-1.54-2.12-3.09-3.4-4.99-1.28-1.9-2.78-4.16-4.56-6.9-1.78-2.74-3.82-5.97-5.67-8.96s-3.5-5.73-4.72-7.77c-1.21-2.04-1.99-3.38-2.77-4.71"/><circle class="cls-11" cx="150.09" cy="880.33" r="4"/><circle class="cls-11" cx="146.69" cy="875.34" r="4.07"/><circle class="cls-11" cx="142.13" cy="868.44" r="5.29"/><circle class="cls-11" cx="136.46" cy="859.48" r="5.4"/><circle class="cls-11" cx="131.75" cy="851.71" r="4.46"/><circle class="cls-11" cx="128.98" cy="846.99" r="3.1"/><path class="cls-25" d="M125.7,841.25c-1.21-2.16-2.41-4.33-3.56-6.44-1.15-2.11-2.24-4.16-3.33-6.23-1.09-2.07-2.17-4.17-2.8-5.41-.64-1.24-.83-1.62-1.25-2.47-.43-.86-1.09-2.19-1.76-3.52"/><circle class="cls-11" cx="125.7" cy="841.25" r="5.1"/><circle class="cls-11" cx="122.13" cy="834.81" r="3.69"/><circle class="cls-11" cx="118.8" cy="828.58" r="4.95"/><circle class="cls-11" cx="116" cy="823.18" r="2.89"/><circle class="cls-11" cx="114.75" cy="820.7" r="2.57"/><circle class="cls-11" cx="112.99" cy="817.18" r="3.82"/><path class="cls-25" d="M111.33,813.79c-.27-.56-.54-1.12-.95-1.98-.41-.85-.96-2.01-1.54-3.23-.58-1.23-1.18-2.53-1.62-3.48-.44-.95-.71-1.53-1-2.17-.29-.64-.6-1.32-.92-2.03-.32-.71-.65-1.44-.92-2.06-.27-.62-.49-1.11-.71-1.61"/><circle class="cls-11" cx="111.33" cy="813.79" r="2.4"/><circle class="cls-11" cx="110.38" cy="811.82" r="2.46"/><circle class="cls-11" cx="108.84" cy="808.59" r="3.64"/><circle class="cls-11" cx="107.22" cy="805.11" r="2.73"/><circle class="cls-11" cx="106.23" cy="802.94" r="2.33"/><circle class="cls-11" cx="105.3" cy="800.9" r="2.57"/><circle class="cls-11" cx="104.38" cy="798.84" r="2.35"/><circle class="cls-11" cx="103.67" cy="797.23" r="1.99"/><circle class="cls-11" cx="102.96" cy="795.63" r="2.33"/><path class="cls-23" d="M100.79,790.59c-1.03-2.46-2.06-4.93-3.06-7.36-.99-2.44-1.94-4.85-2.75-6.92-.8-2.07-1.46-3.79-2.11-5.52"/><circle class="cls-10" cx="100.79" cy="790.59" r="4.91"/><circle class="cls-10" cx="97.74" cy="783.23" r="4.34"/><circle class="cls-10" cx="94.99" cy="776.31" r="4.62"/><circle class="cls-10" cx="92.88" cy="770.79" r="3.25"/><path class="cls-23" d="M90.83,765.21c-.68-1.88-1.35-3.75-2.35-6.62-.99-2.87-2.3-6.73-3.64-10.9-1.34-4.17-2.7-8.64-3.75-12.2-1.05-3.56-1.79-6.2-2.37-8.32-.58-2.12-1.01-3.73-1.27-4.71-.26-.98-.35-1.33-.57-2.15-.21-.82-.55-2.12-.76-2.96-.21-.84-.31-1.23-.41-1.62"/><circle class="cls-10" cx="90.83" cy="765.21" r="4.63"/><circle class="cls-10" cx="88.48" cy="758.59" r="4.05"/><circle class="cls-10" cx="84.84" cy="747.68" r="6.75"/><circle class="cls-10" cx="81.09" cy="735.49" r="4.82"/><circle class="cls-10" cx="78.72" cy="727.16" r="4.84"/><circle class="cls-10" cx="77.45" cy="722.45" r="1.71"/><circle class="cls-10" cx="76.88" cy="720.3" r="3.02"/><circle class="cls-10" cx="76.12" cy="717.34" r="2.72"/><circle class="cls-10" cx="75.72" cy="715.72" r="1.27"/><path class="cls-23" d="M72.29,701.11c-1.48-7.34-2.96-14.68-3.77-18.94-.82-4.25-.98-5.42-1.14-6.59"/><circle class="cls-10" cx="72.29" cy="701.11" r="8.9"/><circle class="cls-10" cx="68.52" cy="682.17" r="4.99"/><circle class="cls-10" cx="67.38" cy="675.59" r="3.34"/><path class="cls-23" d="M66.81,672.09c-.14-.84-.27-1.68-.66-4.27-.39-2.6-1.02-6.96-1.59-11.49-.57-4.54-1.07-9.26-1.57-13.97"/><circle class="cls-10" cx="66.81" cy="672.09" r="2.81"/><circle class="cls-10" cx="66.15" cy="667.82" r="3.92"/><circle class="cls-10" cx="64.56" cy="656.33" r="6.87"/><circle class="cls-10" cx="62.99" cy="642.35" r="5.35"/><path class="cls-23" d="M62.37,635.68c-.17-2.01-.33-4.02-.5-6.29-.16-2.27-.33-4.81-.43-6.56-.11-1.75-.16-2.72-.21-3.81-.06-1.09-.12-2.3-.17-3.55-.06-1.25-.11-2.54-.16-3.77-.05-1.24-.09-2.43-.14-4.35-.06-1.91-.12-4.55-.16-7.33s-.05-5.71-.05-8.63"/><circle class="cls-10" cx="62.37" cy="635.68" r="2.74"/><circle class="cls-10" cx="61.88" cy="629.39" r="5.15"/><circle class="cls-10" cx="61.44" cy="622.83" r="2.99"/><circle class="cls-10" cx="61.23" cy="619.02" r="3.41"/><circle class="cls-10" cx="61.06" cy="615.47" r="2.75"/><circle class="cls-10" cx="60.9" cy="611.69" r="3.58"/><circle class="cls-10" cx="60.75" cy="607.35" r="3.26"/><circle class="cls-10" cx="60.59" cy="600.02" r="5.37"/><circle class="cls-10" cx="60.54" cy="591.39" r="4.2"/><path class="cls-23" d="M60.64,582.69c.11-4.1,.22-8.19,.38-11.96,.16-3.77,.36-7.21,.49-9.37,.13-2.16,.19-3.04,.31-4.67,.12-1.62,.29-3.99,.54-6.93,.25-2.94,.57-6.45,.96-10.09,.39-3.64,.84-7.42,1.3-11.19"/><circle class="cls-10" cx="60.64" cy="582.69" r="5.4"/><circle class="cls-10" cx="61.01" cy="570.73" r="5.94"/><circle class="cls-10" cx="61.5" cy="561.36" r="3.91"/><circle class="cls-10" cx="61.81" cy="556.69" r="3.15"/><circle class="cls-10" cx="62.35" cy="549.76" r="5.25"/><circle class="cls-10" cx="63.31" cy="539.67" r="5.21"/><circle class="cls-10" cx="64.61" cy="528.48" r="5.8"/><path class="cls-23" d="M65.78,519.87c.28-1.87,.55-3.73,.85-5.64,.3-1.91,.61-3.86,1.07-6.58,.47-2.72,1.08-6.21,1.73-9.62,.65-3.41,1.33-6.75,1.78-8.93,.45-2.18,.67-3.19,1.11-5.17,.44-1.98,1.1-4.91,1.77-7.78,.67-2.86,1.36-5.66,1.93-7.91,.57-2.26,1.02-3.98,1.49-5.73,.47-1.76,.96-3.55,1.45-5.35"/><circle class="cls-10" cx="65.78" cy="519.87" r="3.63"/><circle class="cls-10" cx="66.63" cy="514.23" r="4.19"/><circle class="cls-10" cx="67.71" cy="507.65" r="4.29"/><circle class="cls-10" cx="69.44" cy="498.03" r="5.86"/><circle class="cls-10" cx="71.21" cy="489.1" r="3.85"/><circle class="cls-10" cx="72.32" cy="483.93" r="3.7"/><circle class="cls-10" cx="74.09" cy="476.16" r="5.41"/><circle class="cls-10" cx="76.02" cy="468.24" r="3.82"/><circle class="cls-10" cx="77.51" cy="462.51" r="4.16"/><circle class="cls-10" cx="78.96" cy="457.16" r="3.54"/><path class="cls-23" d="M82.03,446.54c1.43-4.6,2.87-9.19,3.91-12.42,1.04-3.23,1.69-5.1,2.35-6.96"/><circle class="cls-10" cx="82.03" cy="446.54" r="6.86"/><circle class="cls-10" cx="85.94" cy="434.12" r="4.81"/><circle class="cls-10" cx="88.29" cy="427.16" r="4.06"/><path class="cls-23" d="M91.22,418.9c1.42-3.79,2.83-7.58,3.99-10.56,1.15-2.98,2.04-5.16,2.92-7.33"/><circle class="cls-10" cx="91.22" cy="418.9" r="5.55"/><circle class="cls-10" cx="95.2" cy="408.34" r="5.48"/><circle class="cls-10" cx="98.13" cy="401.01" r="3.53"/><path class="cls-23" d="M100.13,396.18c.94-2.23,1.88-4.45,3.29-7.65,1.4-3.2,3.27-7.37,5.4-11.86,2.13-4.49,4.52-9.31,6.91-14.12"/><circle class="cls-10" cx="100.13" cy="396.18" r="3.96"/><circle class="cls-10" cx="103.42" cy="388.53" r="5.4"/><circle class="cls-10" cx="108.81" cy="376.67" r="6.41"/><circle class="cls-10" cx="115.73" cy="362.55" r="6.61"/><path class="cls-23" d="M121.24,352.03c1.08-1.98,2.15-3.96,3.23-5.9,1.08-1.95,2.17-3.86,3.04-5.39,.88-1.53,1.55-2.69,2.22-3.84"/><circle class="cls-10" cx="121.24" cy="352.03" r="4.51"/><circle class="cls-10" cx="124.47" cy="346.12" r="3.99"/><circle class="cls-10" cx="127.51" cy="340.73" r="4.18"/><circle class="cls-10" cx="129.73" cy="336.89" r="2.54"/><path class="cls-23" d="M131,334.74c.4-.69,.8-1.38,1.84-3.09,1.04-1.71,2.71-4.44,4.38-7.17"/><circle class="cls-10" cx="131" cy="334.74" r="2.64"/><circle class="cls-10" cx="132.84" cy="331.65" r="3.52"/><circle class="cls-10" cx="137.22" cy="324.48" r="5.74"/><path class="cls-21" d="M143.44,314.74c1.41-2.13,2.83-4.27,4.19-6.29,1.36-2.02,2.68-3.94,4.45-6.46,1.77-2.53,3.99-5.66,6.35-8.87,2.35-3.21,4.84-6.48,7.32-9.75"/><circle class="cls-15" cx="143.44" cy="314.74" r="5.42"/><circle class="cls-15" cx="147.63" cy="308.45" r="3.38"/><circle class="cls-15" cx="152.08" cy="301.99" r="5.56"/><circle class="cls-15" cx="158.43" cy="293.12" r="5.28"/><circle class="cls-15" cx="165.74" cy="283.37" r="6.15"/><path class="cls-21" d="M171.33,276.24c.92-1.14,1.83-2.29,2.72-3.38,.89-1.1,1.75-2.14,2.68-3.27,.93-1.13,1.93-2.36,4.28-5.11,2.36-2.76,6.07-7.04,9.23-10.58,3.16-3.54,5.77-6.32,8.38-9.11"/><circle class="cls-15" cx="171.33" cy="276.24" r="3.32"/><circle class="cls-15" cx="174.05" cy="272.86" r="3.52"/><circle class="cls-15" cx="176.73" cy="269.58" r="3.22"/><circle class="cls-15" cx="181.02" cy="264.47" r="5.05"/><circle class="cls-15" cx="190.25" cy="253.89" r="7.08"/><circle class="cls-15" cx="198.63" cy="244.78" r="4.08"/><path class="cls-21" d="M205.9,237.23c2.73-2.74,5.46-5.48,7.81-7.78,2.35-2.3,4.33-4.17,6.31-6.04"/><circle class="cls-15" cx="205.9" cy="237.23" r="6.32"/><circle class="cls-15" cx="213.71" cy="229.45" r="4.42"/><circle class="cls-15" cx="220.02" cy="223.41" r="5.25"/><path class="cls-21" d="M225.68,218.16c1.82-1.65,3.64-3.3,5.11-4.6,1.46-1.3,2.57-2.26,4.31-3.79s4.14-3.64,8.64-7.33c4.5-3.7,11.12-8.99,16.32-12.99s9-6.72,12.79-9.44"/><circle class="cls-15" cx="225.68" cy="218.16" r="3.74"/><circle class="cls-15" cx="230.78" cy="213.56" r="4.8"/><circle class="cls-15" cx="235.09" cy="209.77" r="2.81"/><circle class="cls-15" cx="243.73" cy="202.44" r="7.3"/><circle class="cls-15" cx="260.05" cy="189.45" r="7.7"/><circle class="cls-15" cx="272.84" cy="180.01" r="5.14"/><path class="cls-21" d="M280.93,174.35c2.04-1.39,4.08-2.79,6.44-4.34,2.35-1.56,5.02-3.28,7.69-5"/><circle class="cls-15" cx="280.93" cy="174.35" r="5.17"/><circle class="cls-15" cx="287.37" cy="170.01" r="3.89"/><circle class="cls-15" cx="295.06" cy="165.01" r="5.86"/><path class="cls-21" d="M304.5,159.13c3.72-2.21,7.44-4.42,10.4-6.14,2.96-1.72,5.16-2.94,7.6-4.28s5.12-2.81,8.61-4.65c3.49-1.83,7.81-4.03,10.82-5.54,3.01-1.51,4.72-2.32,6.43-3.14"/><circle class="cls-15" cx="304.5" cy="159.13" r="5.06"/><circle class="cls-15" cx="314.89" cy="152.99" r="6.28" transform="translate(113.44 439.31) rotate(-80.78)"/><circle class="cls-15" cx="322.49" cy="148.71" r="2.75"/><circle class="cls-15" cx="331.11" cy="144.06" r="6.72"/><circle class="cls-15" cx="341.93" cy="138.52" r="4.51"/><circle class="cls-15" cx="348.36" cy="135.38" r="4.27"/><path class="cls-21" d="M356.58,131.53c3.83-1.74,7.67-3.48,12.25-5.41,4.59-1.94,9.92-4.08,15.26-6.21"/><circle class="cls-15" cx="356.58" cy="131.53" r="5.54"/><circle class="cls-15" cx="368.83" cy="126.12" r="6.44"/><circle class="cls-15" cx="384.09" cy="119.9" r="6.88"/><path class="cls-21" d="M411.55,110.14c13.85-4.18,27.7-8.37,43.96-12.07,16.26-3.7,34.93-6.91,51.15-8.87,16.22-1.96,29.99-2.67,43.76-3.39"/><circle class="cls-15" cx="411.55" cy="110.14" r="10.48"/><circle class="cls-15" cx="455.51" cy="98.08" r="11.66"/><circle class="cls-15" cx="506.65" cy="89.21" r="12"/><circle class="cls-15" cx="550.41" cy="85.82" r="9.63"/><rect class="cls-26" x="-.78" y=".93" width="1139.07" height="1139.07"/><text class="cls-18" transform="translate(434.47 463.42) rotate(-38.16)"><tspan x="0" y="0">T</tspan></text><text class="cls-18" transform="translate(472.31 431.59) rotate(-22.19)"><tspan x="0" y="0">o</tspan></text><text class="cls-18" transform="translate(524.07 409.65) rotate(-3.96)"><tspan x="0" y="0">p</tspan></text><text class="cls-18" transform="translate(581.19 407.15) rotate(9.14)"><tspan x="0" y="0">i</tspan></text><text class="cls-18" transform="translate(605.56 409.15) rotate(21.61)"><tspan x="0" y="0">c</tspan></text><text class="cls-18" transform="translate(653.33 427.38) rotate(38.17)"><tspan x="0" y="0">s</tspan></text><text class="cls-16" transform="translate(370.22 329.28) rotate(-31.35)"><tspan x="0" y="0">S</tspan></text><text class="cls-16" transform="translate(419.42 299.31) rotate(-21.87)"><tspan x="0" y="0">u</tspan></text><text class="cls-16" transform="translate(468.2 279.53) rotate(-12.77)"><tspan x="0" y="0">b</tspan></text><text class="cls-16" transform="translate(520.16 268.43) rotate(-5.77)"><tspan x="0" y="0">t</tspan></text><text class="cls-16" transform="translate(548.09 264.75) rotate(1.11)"><tspan x="0" y="0">o</tspan></text><text class="cls-16" transform="translate(600.82 265.58) rotate(10.11)"><tspan x="0" y="0">p</tspan></text><text class="cls-16" transform="translate(653.04 275.67) rotate(16.72)"><tspan x="0" y="0">i</tspan></text><text class="cls-16" transform="translate(675.71 281.68) rotate(22.94)"><tspan x="0" y="0">c</tspan></text><text class="cls-16" transform="translate(719.89 300.21) rotate(31.19)"><tspan x="0" y="0">s</tspan></text><text class="cls-8" transform="translate(440.38 126.15) rotate(-11.11)"><tspan x="0" y="0">P</tspan></text><text class="cls-8" transform="translate(493.55 115.88) rotate(-5.36)"><tspan x="0" y="0">a</tspan></text><text class="cls-8" transform="translate(538.45 111.12) rotate(.93)"><tspan x="0" y="0">g</tspan></text><text class="cls-8" transform="translate(587.94 111.59) rotate(5.47)"><tspan x="0" y="0">e</tspan></text><text class="cls-8" transform="translate(632.79 115.82) rotate(10.69)"><tspan x="0" y="0">s</tspan></text></svg>